%TF.GenerationSoftware,KiCad,Pcbnew,8.0.8-8.0.8-0~ubuntu24.04.1*%
%TF.CreationDate,2025-03-19T16:12:17+01:00*%
%TF.ProjectId,teaser,74656173-6572-42e6-9b69-6361645f7063,rev?*%
%TF.SameCoordinates,Original*%
%TF.FileFunction,Soldermask,Top*%
%TF.FilePolarity,Negative*%
%FSLAX46Y46*%
G04 Gerber Fmt 4.6, Leading zero omitted, Abs format (unit mm)*
G04 Created by KiCad (PCBNEW 8.0.8-8.0.8-0~ubuntu24.04.1) date 2025-03-19 16:12:17*
%MOMM*%
%LPD*%
G01*
G04 APERTURE LIST*
G04 Aperture macros list*
%AMRoundRect*
0 Rectangle with rounded corners*
0 $1 Rounding radius*
0 $2 $3 $4 $5 $6 $7 $8 $9 X,Y pos of 4 corners*
0 Add a 4 corners polygon primitive as box body*
4,1,4,$2,$3,$4,$5,$6,$7,$8,$9,$2,$3,0*
0 Add four circle primitives for the rounded corners*
1,1,$1+$1,$2,$3*
1,1,$1+$1,$4,$5*
1,1,$1+$1,$6,$7*
1,1,$1+$1,$8,$9*
0 Add four rect primitives between the rounded corners*
20,1,$1+$1,$2,$3,$4,$5,0*
20,1,$1+$1,$4,$5,$6,$7,0*
20,1,$1+$1,$6,$7,$8,$9,0*
20,1,$1+$1,$8,$9,$2,$3,0*%
G04 Aperture macros list end*
%ADD10RoundRect,0.150000X-0.150000X0.587500X-0.150000X-0.587500X0.150000X-0.587500X0.150000X0.587500X0*%
%ADD11R,1.700000X1.700000*%
%ADD12O,1.700000X1.700000*%
%ADD13RoundRect,0.237500X-0.237500X0.300000X-0.237500X-0.300000X0.237500X-0.300000X0.237500X0.300000X0*%
%ADD14RoundRect,0.237500X0.237500X-0.250000X0.237500X0.250000X-0.237500X0.250000X-0.237500X-0.250000X0*%
%ADD15RoundRect,0.237500X-0.237500X0.250000X-0.237500X-0.250000X0.237500X-0.250000X0.237500X0.250000X0*%
%ADD16C,3.600000*%
%ADD17R,1.600000X0.550000*%
%ADD18R,0.550000X1.600000*%
%ADD19C,3.000000*%
%ADD20C,2.500000*%
%ADD21RoundRect,0.237500X0.237500X-0.300000X0.237500X0.300000X-0.237500X0.300000X-0.237500X-0.300000X0*%
%ADD22RoundRect,0.237500X0.237500X-0.287500X0.237500X0.287500X-0.237500X0.287500X-0.237500X-0.287500X0*%
%ADD23C,3.200000*%
%ADD24C,1.500000*%
%ADD25R,2.200000X2.200000*%
%ADD26O,2.200000X2.200000*%
%ADD27R,2.500000X1.200000*%
%ADD28C,2.200000*%
G04 APERTURE END LIST*
D10*
%TO.C,Q3*%
X124650000Y-82600000D03*
X122750000Y-82600000D03*
X123700000Y-84475000D03*
%TD*%
D11*
%TO.C,J4*%
X147140000Y-60900000D03*
D12*
X144600000Y-60900000D03*
%TD*%
D13*
%TO.C,C4*%
X142600000Y-65637500D03*
X142600000Y-67362500D03*
%TD*%
D14*
%TO.C,R10*%
X130480000Y-79625000D03*
X130480000Y-77800000D03*
%TD*%
D15*
%TO.C,R12*%
X131000000Y-57487500D03*
X131000000Y-59312500D03*
%TD*%
D16*
%TO.C,J2*%
X154000000Y-47500000D03*
X131000000Y-47500000D03*
%TD*%
D17*
%TO.C,U3*%
X132250000Y-63700000D03*
X132250000Y-64500000D03*
X132250000Y-65300000D03*
X132250000Y-66100000D03*
X132250000Y-66900000D03*
X132250000Y-67700000D03*
X132250000Y-68500000D03*
X132250000Y-69300000D03*
D18*
X133700000Y-70750000D03*
X134500000Y-70750000D03*
X135300000Y-70750000D03*
X136100000Y-70750000D03*
X136900000Y-70750000D03*
X137700000Y-70750000D03*
X138500000Y-70750000D03*
X139300000Y-70750000D03*
D17*
X140750000Y-69300000D03*
X140750000Y-68500000D03*
X140750000Y-67700000D03*
X140750000Y-66900000D03*
X140750000Y-66100000D03*
X140750000Y-65300000D03*
X140750000Y-64500000D03*
X140750000Y-63700000D03*
D18*
X139300000Y-62250000D03*
X138500000Y-62250000D03*
X137700000Y-62250000D03*
X136900000Y-62250000D03*
X136100000Y-62250000D03*
X135300000Y-62250000D03*
X134500000Y-62250000D03*
X133700000Y-62250000D03*
%TD*%
D19*
%TO.C,K1*%
X127450000Y-98350000D03*
D20*
X129400000Y-104400000D03*
D19*
X141600000Y-104400000D03*
X141650000Y-92350000D03*
D20*
X129400000Y-92400000D03*
%TD*%
D14*
%TO.C,R8*%
X133800000Y-79612500D03*
X133800000Y-77787500D03*
%TD*%
D19*
%TO.C,K2*%
X127400000Y-132200000D03*
D20*
X129350000Y-138250000D03*
D19*
X141550000Y-138250000D03*
X141600000Y-126200000D03*
D20*
X129350000Y-126250000D03*
%TD*%
D15*
%TO.C,R17*%
X124030000Y-93775000D03*
X124030000Y-95600000D03*
%TD*%
D21*
%TO.C,C5*%
X143000000Y-69237500D03*
X143000000Y-70962500D03*
%TD*%
D22*
%TO.C,D14*%
X123980000Y-116187500D03*
X123980000Y-114437500D03*
%TD*%
D10*
%TO.C,Q1*%
X132150000Y-82600000D03*
X130250000Y-82600000D03*
X131200000Y-84475000D03*
%TD*%
D19*
%TO.C,K4*%
X127400000Y-115450000D03*
D20*
X129350000Y-121500000D03*
D19*
X141550000Y-121500000D03*
X141600000Y-109450000D03*
D20*
X129350000Y-109500000D03*
%TD*%
D23*
%TO.C,H2*%
X160000000Y-54500000D03*
%TD*%
D10*
%TO.C,Q4*%
X133100000Y-86900000D03*
X131200000Y-86900000D03*
X132150000Y-88775000D03*
%TD*%
D11*
%TO.C,SW1*%
X140550000Y-74200000D03*
D12*
X138010000Y-74200000D03*
%TD*%
D19*
%TO.C,K3*%
X127400000Y-149150000D03*
D20*
X129350000Y-155200000D03*
D19*
X141550000Y-155200000D03*
X141600000Y-143150000D03*
D20*
X129350000Y-143200000D03*
%TD*%
D22*
%TO.C,D15*%
X124000000Y-99375000D03*
X124000000Y-97625000D03*
%TD*%
D14*
%TO.C,R11*%
X128800000Y-79625000D03*
X128800000Y-77800000D03*
%TD*%
D10*
%TO.C,Q2*%
X128400000Y-82600000D03*
X126500000Y-82600000D03*
X127450000Y-84475000D03*
%TD*%
D22*
%TO.C,D12*%
X124000000Y-132937500D03*
X124000000Y-131187500D03*
%TD*%
D24*
%TO.C,Y1*%
X125100000Y-75580000D03*
X125100000Y-70700000D03*
%TD*%
D19*
%TO.C,J3*%
X130760000Y-72500000D03*
X154360000Y-72500000D03*
D11*
X138760000Y-48500000D03*
D12*
X141300000Y-48500000D03*
X143840000Y-48500000D03*
X146380000Y-48500000D03*
%TD*%
D25*
%TO.C,D4*%
X152100000Y-99500000D03*
D26*
X152100000Y-89340000D03*
%TD*%
D23*
%TO.C,H3*%
X160000000Y-154500000D03*
%TD*%
D15*
%TO.C,R16*%
X124000000Y-110587500D03*
X124000000Y-112412500D03*
%TD*%
D23*
%TO.C,H1*%
X125000000Y-54500000D03*
%TD*%
D15*
%TO.C,R15*%
X124000000Y-144087500D03*
X124000000Y-145912500D03*
%TD*%
D14*
%TO.C,R9*%
X132100000Y-79612500D03*
X132100000Y-77787500D03*
%TD*%
D27*
%TO.C,SW7*%
X136250000Y-86310000D03*
X148750000Y-86310000D03*
X136250000Y-78690000D03*
X148750000Y-78690000D03*
%TD*%
D22*
%TO.C,D13*%
X123990000Y-149762500D03*
X123990000Y-148012500D03*
%TD*%
D15*
%TO.C,R14*%
X124000000Y-127237500D03*
X124000000Y-129062500D03*
%TD*%
D25*
%TO.C,D5*%
X156300000Y-99580000D03*
D26*
X156300000Y-89420000D03*
%TD*%
D11*
%TO.C,J1*%
X127340000Y-60760000D03*
D12*
X124800000Y-60760000D03*
X127340000Y-63300000D03*
X124800000Y-63300000D03*
X127340000Y-65840000D03*
X124800000Y-65840000D03*
%TD*%
D28*
%TO.C,C10*%
X150000000Y-154250000D03*
X134500000Y-154250000D03*
%TD*%
D25*
%TO.C,D2*%
X160700000Y-102600000D03*
D26*
X148000000Y-102600000D03*
%TD*%
D28*
%TO.C,C11*%
X157000000Y-145750000D03*
X134500000Y-145750000D03*
%TD*%
%TO.C,C7*%
X156000000Y-137000000D03*
X134500000Y-137000000D03*
%TD*%
%TO.C,C12*%
X161000000Y-117500000D03*
X133000000Y-117500000D03*
%TD*%
%TO.C,C8*%
X156500000Y-128750000D03*
X134500000Y-128750000D03*
%TD*%
D25*
%TO.C,D7*%
X146300000Y-106900000D03*
D26*
X136140000Y-106900000D03*
%TD*%
M02*
