%TF.GenerationSoftware,KiCad,Pcbnew,8.0.8-8.0.8-0~ubuntu24.04.1*%
%TF.CreationDate,2025-03-19T16:12:16+01:00*%
%TF.ProjectId,teaser,74656173-6572-42e6-9b69-6361645f7063,rev?*%
%TF.SameCoordinates,Original*%
%TF.FileFunction,Copper,L1,Top*%
%TF.FilePolarity,Positive*%
%FSLAX46Y46*%
G04 Gerber Fmt 4.6, Leading zero omitted, Abs format (unit mm)*
G04 Created by KiCad (PCBNEW 8.0.8-8.0.8-0~ubuntu24.04.1) date 2025-03-19 16:12:16*
%MOMM*%
%LPD*%
G01*
G04 APERTURE LIST*
G04 Aperture macros list*
%AMRoundRect*
0 Rectangle with rounded corners*
0 $1 Rounding radius*
0 $2 $3 $4 $5 $6 $7 $8 $9 X,Y pos of 4 corners*
0 Add a 4 corners polygon primitive as box body*
4,1,4,$2,$3,$4,$5,$6,$7,$8,$9,$2,$3,0*
0 Add four circle primitives for the rounded corners*
1,1,$1+$1,$2,$3*
1,1,$1+$1,$4,$5*
1,1,$1+$1,$6,$7*
1,1,$1+$1,$8,$9*
0 Add four rect primitives between the rounded corners*
20,1,$1+$1,$2,$3,$4,$5,0*
20,1,$1+$1,$4,$5,$6,$7,0*
20,1,$1+$1,$6,$7,$8,$9,0*
20,1,$1+$1,$8,$9,$2,$3,0*%
G04 Aperture macros list end*
%TA.AperFunction,SMDPad,CuDef*%
%ADD10RoundRect,0.150000X-0.150000X0.587500X-0.150000X-0.587500X0.150000X-0.587500X0.150000X0.587500X0*%
%TD*%
%TA.AperFunction,ComponentPad*%
%ADD11R,1.700000X1.700000*%
%TD*%
%TA.AperFunction,ComponentPad*%
%ADD12O,1.700000X1.700000*%
%TD*%
%TA.AperFunction,SMDPad,CuDef*%
%ADD13RoundRect,0.237500X-0.237500X0.300000X-0.237500X-0.300000X0.237500X-0.300000X0.237500X0.300000X0*%
%TD*%
%TA.AperFunction,SMDPad,CuDef*%
%ADD14RoundRect,0.237500X0.237500X-0.250000X0.237500X0.250000X-0.237500X0.250000X-0.237500X-0.250000X0*%
%TD*%
%TA.AperFunction,SMDPad,CuDef*%
%ADD15RoundRect,0.237500X-0.237500X0.250000X-0.237500X-0.250000X0.237500X-0.250000X0.237500X0.250000X0*%
%TD*%
%TA.AperFunction,ComponentPad*%
%ADD16C,3.600000*%
%TD*%
%TA.AperFunction,SMDPad,CuDef*%
%ADD17R,1.600000X0.550000*%
%TD*%
%TA.AperFunction,SMDPad,CuDef*%
%ADD18R,0.550000X1.600000*%
%TD*%
%TA.AperFunction,ComponentPad*%
%ADD19C,3.000000*%
%TD*%
%TA.AperFunction,ComponentPad*%
%ADD20C,2.500000*%
%TD*%
%TA.AperFunction,SMDPad,CuDef*%
%ADD21RoundRect,0.237500X0.237500X-0.300000X0.237500X0.300000X-0.237500X0.300000X-0.237500X-0.300000X0*%
%TD*%
%TA.AperFunction,SMDPad,CuDef*%
%ADD22RoundRect,0.237500X0.237500X-0.287500X0.237500X0.287500X-0.237500X0.287500X-0.237500X-0.287500X0*%
%TD*%
%TA.AperFunction,ComponentPad*%
%ADD23C,1.500000*%
%TD*%
%TA.AperFunction,ComponentPad*%
%ADD24R,2.200000X2.200000*%
%TD*%
%TA.AperFunction,ComponentPad*%
%ADD25O,2.200000X2.200000*%
%TD*%
%TA.AperFunction,SMDPad,CuDef*%
%ADD26R,2.500000X1.200000*%
%TD*%
%TA.AperFunction,ComponentPad*%
%ADD27C,2.200000*%
%TD*%
%TA.AperFunction,ViaPad*%
%ADD28C,0.600000*%
%TD*%
%TA.AperFunction,Conductor*%
%ADD29C,0.508000*%
%TD*%
%TA.AperFunction,Conductor*%
%ADD30C,0.762000*%
%TD*%
%TA.AperFunction,Conductor*%
%ADD31C,3.000000*%
%TD*%
%TA.AperFunction,Conductor*%
%ADD32C,2.500000*%
%TD*%
%TA.AperFunction,Conductor*%
%ADD33C,2.000000*%
%TD*%
G04 APERTURE END LIST*
D10*
%TO.P,Q3,1,B*%
%TO.N,Net-(Q3-B)*%
X124650000Y-82600000D03*
%TO.P,Q3,2,E*%
%TO.N,GND*%
X122750000Y-82600000D03*
%TO.P,Q3,3,C*%
%TO.N,Net-(D14-K)*%
X123700000Y-84475000D03*
%TD*%
D11*
%TO.P,J4,1,Pin_1*%
%TO.N,GND*%
X147140000Y-60900000D03*
D12*
%TO.P,J4,2,Pin_2*%
%TO.N,Net-(J4-Pin_2)*%
X144600000Y-60900000D03*
%TD*%
D13*
%TO.P,C4,1*%
%TO.N,GND*%
X142600000Y-65637500D03*
%TO.P,C4,2*%
%TO.N,Net-(U3-AREF)*%
X142600000Y-67362500D03*
%TD*%
D14*
%TO.P,R10,1*%
%TO.N,Net-(Q2-B)*%
X130480000Y-79625000D03*
%TO.P,R10,2*%
%TO.N,/CH2*%
X130480000Y-77800000D03*
%TD*%
D15*
%TO.P,R12,1*%
%TO.N,VCC*%
X131000000Y-57487500D03*
%TO.P,R12,2*%
%TO.N,/RESET*%
X131000000Y-59312500D03*
%TD*%
D16*
%TO.P,J2,1,Pin_1*%
%TO.N,Net-(D4-A)*%
X154000000Y-47500000D03*
%TO.P,J2,2,Pin_2*%
%TO.N,Net-(D2-K)*%
X131000000Y-47500000D03*
%TD*%
D17*
%TO.P,U3,1,PD3*%
%TO.N,unconnected-(U3-PD3-Pad1)*%
X132250000Y-63700000D03*
%TO.P,U3,2,PD4*%
%TO.N,unconnected-(U3-PD4-Pad2)*%
X132250000Y-64500000D03*
%TO.P,U3,3,GND*%
%TO.N,GND*%
X132250000Y-65300000D03*
%TO.P,U3,4,VCC*%
%TO.N,VCC*%
X132250000Y-66100000D03*
%TO.P,U3,5,GND*%
%TO.N,GND*%
X132250000Y-66900000D03*
%TO.P,U3,6,VCC*%
%TO.N,VCC*%
X132250000Y-67700000D03*
%TO.P,U3,7,XTAL1/PB6*%
%TO.N,Net-(U3-XTAL1{slash}PB6)*%
X132250000Y-68500000D03*
%TO.P,U3,8,XTAL2/PB7*%
%TO.N,Net-(U3-XTAL2{slash}PB7)*%
X132250000Y-69300000D03*
D18*
%TO.P,U3,9,PD5*%
%TO.N,/CH1*%
X133700000Y-70750000D03*
%TO.P,U3,10,PD6*%
%TO.N,/CH2*%
X134500000Y-70750000D03*
%TO.P,U3,11,PD7*%
%TO.N,/CH3*%
X135300000Y-70750000D03*
%TO.P,U3,12,PB0*%
%TO.N,/MEASURE_EN*%
X136100000Y-70750000D03*
%TO.P,U3,13,PB1*%
%TO.N,unconnected-(U3-PB1-Pad13)*%
X136900000Y-70750000D03*
%TO.P,U3,14,PB2*%
%TO.N,unconnected-(U3-PB2-Pad14)*%
X137700000Y-70750000D03*
%TO.P,U3,15,PB3*%
%TO.N,/MOSI*%
X138500000Y-70750000D03*
%TO.P,U3,16,PB4*%
%TO.N,/MISO*%
X139300000Y-70750000D03*
D17*
%TO.P,U3,17,PB5*%
%TO.N,/SCK*%
X140750000Y-69300000D03*
%TO.P,U3,18,AVCC*%
%TO.N,VCC*%
X140750000Y-68500000D03*
%TO.P,U3,19,ADC6*%
%TO.N,unconnected-(U3-ADC6-Pad19)*%
X140750000Y-67700000D03*
%TO.P,U3,20,AREF*%
%TO.N,Net-(U3-AREF)*%
X140750000Y-66900000D03*
%TO.P,U3,21,GND*%
%TO.N,GND*%
X140750000Y-66100000D03*
%TO.P,U3,22,ADC7*%
%TO.N,unconnected-(U3-ADC7-Pad22)*%
X140750000Y-65300000D03*
%TO.P,U3,23,PC0*%
%TO.N,/CH1_MEASURE*%
X140750000Y-64500000D03*
%TO.P,U3,24,PC1*%
%TO.N,/CH3_MEASURE*%
X140750000Y-63700000D03*
D18*
%TO.P,U3,25,PC2*%
%TO.N,/CH2_MEASURE*%
X139300000Y-62250000D03*
%TO.P,U3,26,PC3*%
%TO.N,unconnected-(U3-PC3-Pad26)*%
X138500000Y-62250000D03*
%TO.P,U3,27,PC4*%
%TO.N,/SDA*%
X137700000Y-62250000D03*
%TO.P,U3,28,PC5*%
%TO.N,/SCL*%
X136900000Y-62250000D03*
%TO.P,U3,29,~{RESET}/PC6*%
%TO.N,/RESET*%
X136100000Y-62250000D03*
%TO.P,U3,30,PD0*%
%TO.N,unconnected-(U3-PD0-Pad30)*%
X135300000Y-62250000D03*
%TO.P,U3,31,PD1*%
%TO.N,unconnected-(U3-PD1-Pad31)*%
X134500000Y-62250000D03*
%TO.P,U3,32,PD2*%
%TO.N,Net-(U3-PD2)*%
X133700000Y-62250000D03*
%TD*%
D19*
%TO.P,K1,1*%
%TO.N,GND*%
X127450000Y-98350000D03*
D20*
%TO.P,K1,2*%
%TO.N,Net-(D1-A)*%
X129400000Y-104400000D03*
D19*
%TO.P,K1,3*%
%TO.N,Net-(D2-A)*%
X141600000Y-104400000D03*
%TO.P,K1,4*%
%TO.N,unconnected-(K1-Pad4)*%
X141650000Y-92350000D03*
D20*
%TO.P,K1,5*%
%TO.N,VCC*%
X129400000Y-92400000D03*
%TD*%
D14*
%TO.P,R8,1*%
%TO.N,Net-(Q4-B)*%
X133800000Y-79612500D03*
%TO.P,R8,2*%
%TO.N,/MEASURE_EN*%
X133800000Y-77787500D03*
%TD*%
D19*
%TO.P,K2,1*%
%TO.N,Net-(D4-A)*%
X127400000Y-132200000D03*
D20*
%TO.P,K2,2*%
%TO.N,Net-(D12-K)*%
X129350000Y-138250000D03*
D19*
%TO.P,K2,3*%
%TO.N,/CH3_230*%
X141550000Y-138250000D03*
%TO.P,K2,4*%
%TO.N,unconnected-(K2-Pad4)*%
X141600000Y-126200000D03*
D20*
%TO.P,K2,5*%
%TO.N,VCC*%
X129350000Y-126250000D03*
%TD*%
D15*
%TO.P,R17,1*%
%TO.N,VCC*%
X124030000Y-93775000D03*
%TO.P,R17,2*%
%TO.N,Net-(D15-A)*%
X124030000Y-95600000D03*
%TD*%
D21*
%TO.P,C5,2*%
%TO.N,VCC*%
X143000000Y-69237500D03*
%TO.P,C5,1*%
%TO.N,GND*%
X143000000Y-70962500D03*
%TD*%
D22*
%TO.P,D14,1,K*%
%TO.N,Net-(D14-K)*%
X123980000Y-116187500D03*
%TO.P,D14,2,A*%
%TO.N,Net-(D14-A)*%
X123980000Y-114437500D03*
%TD*%
D10*
%TO.P,Q1,1,B*%
%TO.N,Net-(Q1-B)*%
X132150000Y-82600000D03*
%TO.P,Q1,2,E*%
%TO.N,GND*%
X130250000Y-82600000D03*
%TO.P,Q1,3,C*%
%TO.N,Net-(D12-K)*%
X131200000Y-84475000D03*
%TD*%
D19*
%TO.P,K4,1*%
%TO.N,Net-(D4-A)*%
X127400000Y-115450000D03*
D20*
%TO.P,K4,2*%
%TO.N,Net-(D14-K)*%
X129350000Y-121500000D03*
D19*
%TO.P,K4,3*%
%TO.N,/CH1_230*%
X141550000Y-121500000D03*
%TO.P,K4,4*%
%TO.N,unconnected-(K4-Pad4)*%
X141600000Y-109450000D03*
D20*
%TO.P,K4,5*%
%TO.N,VCC*%
X129350000Y-109500000D03*
%TD*%
D10*
%TO.P,Q4,1,B*%
%TO.N,Net-(Q4-B)*%
X133100000Y-86900000D03*
%TO.P,Q4,2,E*%
%TO.N,GND*%
X131200000Y-86900000D03*
%TO.P,Q4,3,C*%
%TO.N,Net-(D1-A)*%
X132150000Y-88775000D03*
%TD*%
D11*
%TO.P,SW1,1,A*%
%TO.N,Net-(J4-Pin_2)*%
X140550000Y-74200000D03*
D12*
%TO.P,SW1,2,B*%
%TO.N,Net-(Q6-D)*%
X138010000Y-74200000D03*
%TD*%
D19*
%TO.P,K3,1*%
%TO.N,Net-(D4-A)*%
X127400000Y-149150000D03*
D20*
%TO.P,K3,2*%
%TO.N,Net-(D13-K)*%
X129350000Y-155200000D03*
D19*
%TO.P,K3,3*%
%TO.N,/CH2_230*%
X141550000Y-155200000D03*
%TO.P,K3,4*%
%TO.N,unconnected-(K3-Pad4)*%
X141600000Y-143150000D03*
D20*
%TO.P,K3,5*%
%TO.N,VCC*%
X129350000Y-143200000D03*
%TD*%
D22*
%TO.P,D15,1,K*%
%TO.N,Net-(D1-A)*%
X124000000Y-99375000D03*
%TO.P,D15,2,A*%
%TO.N,Net-(D15-A)*%
X124000000Y-97625000D03*
%TD*%
D14*
%TO.P,R11,1*%
%TO.N,Net-(Q3-B)*%
X128800000Y-79625000D03*
%TO.P,R11,2*%
%TO.N,/CH1*%
X128800000Y-77800000D03*
%TD*%
D10*
%TO.P,Q2,1,B*%
%TO.N,Net-(Q2-B)*%
X128400000Y-82600000D03*
%TO.P,Q2,2,E*%
%TO.N,GND*%
X126500000Y-82600000D03*
%TO.P,Q2,3,C*%
%TO.N,Net-(D13-K)*%
X127450000Y-84475000D03*
%TD*%
D22*
%TO.P,D12,1,K*%
%TO.N,Net-(D12-K)*%
X124000000Y-132937500D03*
%TO.P,D12,2,A*%
%TO.N,Net-(D12-A)*%
X124000000Y-131187500D03*
%TD*%
D23*
%TO.P,Y1,1,1*%
%TO.N,Net-(U3-XTAL2{slash}PB7)*%
X125100000Y-75580000D03*
%TO.P,Y1,2,2*%
%TO.N,Net-(U3-XTAL1{slash}PB6)*%
X125100000Y-70700000D03*
%TD*%
D19*
%TO.P,J3,*%
%TO.N,*%
X130760000Y-72500000D03*
X154360000Y-72500000D03*
D11*
%TO.P,J3,1,Pin_1*%
%TO.N,VCC*%
X138760000Y-48500000D03*
D12*
%TO.P,J3,2,Pin_2*%
%TO.N,GND*%
X141300000Y-48500000D03*
%TO.P,J3,3,Pin_3*%
%TO.N,/SCL*%
X143840000Y-48500000D03*
%TO.P,J3,4,Pin_4*%
%TO.N,/SDA*%
X146380000Y-48500000D03*
%TD*%
D24*
%TO.P,D4,1,K*%
%TO.N,/CH3_230*%
X152100000Y-99500000D03*
D25*
%TO.P,D4,2,A*%
%TO.N,Net-(D4-A)*%
X152100000Y-89340000D03*
%TD*%
D15*
%TO.P,R16,1*%
%TO.N,VCC*%
X124000000Y-110587500D03*
%TO.P,R16,2*%
%TO.N,Net-(D14-A)*%
X124000000Y-112412500D03*
%TD*%
%TO.P,R15,1*%
%TO.N,VCC*%
X124000000Y-144087500D03*
%TO.P,R15,2*%
%TO.N,Net-(D13-A)*%
X124000000Y-145912500D03*
%TD*%
D14*
%TO.P,R9,1*%
%TO.N,Net-(Q1-B)*%
X132100000Y-79612500D03*
%TO.P,R9,2*%
%TO.N,/CH3*%
X132100000Y-77787500D03*
%TD*%
D26*
%TO.P,SW7,1,1*%
%TO.N,Net-(U3-PD2)*%
X136250000Y-86310000D03*
%TO.P,SW7,2,2*%
%TO.N,VCC*%
X148750000Y-86310000D03*
%TO.P,SW7,3*%
%TO.N,N/C*%
X136250000Y-78690000D03*
%TO.P,SW7,4*%
X148750000Y-78690000D03*
%TD*%
D22*
%TO.P,D13,1,K*%
%TO.N,Net-(D13-K)*%
X123990000Y-149762500D03*
%TO.P,D13,2,A*%
%TO.N,Net-(D13-A)*%
X123990000Y-148012500D03*
%TD*%
D15*
%TO.P,R14,1*%
%TO.N,VCC*%
X124000000Y-127237500D03*
%TO.P,R14,2*%
%TO.N,Net-(D12-A)*%
X124000000Y-129062500D03*
%TD*%
D24*
%TO.P,D5,1,K*%
%TO.N,/CH2_230*%
X156300000Y-99580000D03*
D25*
%TO.P,D5,2,A*%
%TO.N,Net-(D4-A)*%
X156300000Y-89420000D03*
%TD*%
D11*
%TO.P,J1,1,Pin_1*%
%TO.N,/MISO*%
X127340000Y-60760000D03*
D12*
%TO.P,J1,2,Pin_2*%
%TO.N,VCC*%
X124800000Y-60760000D03*
%TO.P,J1,3,Pin_3*%
%TO.N,/SCK*%
X127340000Y-63300000D03*
%TO.P,J1,4,Pin_4*%
%TO.N,/MOSI*%
X124800000Y-63300000D03*
%TO.P,J1,5,Pin_5*%
%TO.N,/RESET*%
X127340000Y-65840000D03*
%TO.P,J1,6,Pin_6*%
%TO.N,GND*%
X124800000Y-65840000D03*
%TD*%
D27*
%TO.P,C10,1*%
%TO.N,Net-(D2-K)*%
X150000000Y-154250000D03*
%TO.P,C10,2*%
%TO.N,/CH2_230*%
X134500000Y-154250000D03*
%TD*%
D24*
%TO.P,D2,1,K*%
%TO.N,Net-(D2-K)*%
X160700000Y-102600000D03*
D25*
%TO.P,D2,2,A*%
%TO.N,Net-(D2-A)*%
X148000000Y-102600000D03*
%TD*%
D27*
%TO.P,C11,1*%
%TO.N,Net-(D2-K)*%
X157000000Y-145750000D03*
%TO.P,C11,2*%
%TO.N,/CH2_230*%
X134500000Y-145750000D03*
%TD*%
%TO.P,C7,1*%
%TO.N,Net-(D2-K)*%
X156000000Y-137000000D03*
%TO.P,C7,2*%
%TO.N,/CH3_230*%
X134500000Y-137000000D03*
%TD*%
%TO.P,C12,1*%
%TO.N,Net-(D2-K)*%
X161000000Y-117500000D03*
%TO.P,C12,2*%
%TO.N,/CH1_230*%
X133000000Y-117500000D03*
%TD*%
%TO.P,C8,1*%
%TO.N,Net-(D2-K)*%
X156500000Y-128750000D03*
%TO.P,C8,2*%
%TO.N,/CH3_230*%
X134500000Y-128750000D03*
%TD*%
D24*
%TO.P,D7,1,K*%
%TO.N,/CH1_230*%
X146300000Y-106900000D03*
D25*
%TO.P,D7,2,A*%
%TO.N,Net-(D4-A)*%
X136140000Y-106900000D03*
%TD*%
D28*
%TO.N,GND*%
X131000000Y-62300000D03*
X129600000Y-95000000D03*
X127600000Y-78500000D03*
X143600000Y-66400000D03*
X137300000Y-72400000D03*
X125300000Y-106900000D03*
X131100000Y-82600000D03*
X137900000Y-84600000D03*
X136100000Y-66500000D03*
X142600000Y-79600000D03*
X143200000Y-72000000D03*
X129600000Y-96700000D03*
X124200000Y-108700000D03*
X125800000Y-57600000D03*
X151900000Y-80600000D03*
X135000000Y-94100000D03*
X150000000Y-68400000D03*
X138300000Y-77700000D03*
X140500000Y-71600000D03*
X136700000Y-80400000D03*
X135100000Y-92900000D03*
X122200000Y-90000000D03*
X122900000Y-68300000D03*
X127200000Y-91500000D03*
X131800000Y-92900000D03*
X128600000Y-73800000D03*
X132700000Y-94100000D03*
X141100000Y-76200000D03*
X148800000Y-77300000D03*
X127300000Y-94900000D03*
X125800000Y-83800000D03*
X134400000Y-68800000D03*
X127500000Y-82500000D03*
X136200000Y-92900000D03*
X134400000Y-64000000D03*
X132400000Y-57800000D03*
X122900000Y-80000000D03*
X126000000Y-86700000D03*
X140800000Y-58800000D03*
X122800000Y-73300000D03*
X136500000Y-59600000D03*
X151700000Y-75500000D03*
X131000000Y-66900000D03*
%TO.N,VCC*%
X148600000Y-67700000D03*
X148600000Y-66800000D03*
X131096000Y-66046000D03*
X140200000Y-87800000D03*
X130633159Y-67733159D03*
X148600000Y-68600000D03*
X143500000Y-68600000D03*
X140800000Y-86310000D03*
X140200000Y-86958096D03*
%TO.N,Net-(D1-A)*%
X133875000Y-89075000D03*
%TO.N,Net-(D12-K)*%
X128900000Y-87000000D03*
%TO.N,Net-(D13-K)*%
X127450000Y-86950000D03*
%TO.N,Net-(D14-K)*%
X123700000Y-87000000D03*
%TO.N,/CH1_MEASURE*%
X142500000Y-85100000D03*
%TO.N,/CH2_MEASURE*%
X147850000Y-84950000D03*
%TO.N,/CH3_MEASURE*%
X145250000Y-85100000D03*
%TO.N,/SCK*%
X140250000Y-70350000D03*
%TO.N,/MISO*%
X139300000Y-69200000D03*
%TO.N,/MOSI*%
X139300000Y-67700000D03*
%TO.N,Net-(U3-PD2)*%
X132700000Y-62100000D03*
X134800000Y-81900000D03*
%TD*%
D29*
%TO.N,GND*%
X130400000Y-64600000D02*
X130400000Y-64633000D01*
X142137500Y-66100000D02*
X140750000Y-66100000D01*
X130400000Y-64633000D02*
X130996000Y-65229000D01*
X143600000Y-66400000D02*
X143362500Y-66400000D01*
X143362500Y-66400000D02*
X142600000Y-65637500D01*
D30*
X141340000Y-58260000D02*
X140800000Y-58800000D01*
D29*
X140750000Y-66100000D02*
X138800000Y-66100000D01*
X132250000Y-65300000D02*
X134600000Y-65300000D01*
X130996000Y-65229000D02*
X132179000Y-65229000D01*
X126600000Y-82500000D02*
X126500000Y-82600000D01*
X131100000Y-82600000D02*
X130250000Y-82600000D01*
X132250000Y-66900000D02*
X134600000Y-66900000D01*
D30*
X141340000Y-48375000D02*
X141340000Y-58260000D01*
D29*
X134600000Y-66900000D02*
X134700000Y-67000000D01*
X132179000Y-65229000D02*
X132250000Y-65300000D01*
X127500000Y-82500000D02*
X126600000Y-82500000D01*
X142600000Y-65637500D02*
X142137500Y-66100000D01*
X131000000Y-66900000D02*
X132250000Y-66900000D01*
D30*
%TO.N,VCC*%
X131000000Y-56175000D02*
X138800000Y-48375000D01*
D29*
X130587682Y-66046000D02*
X129800000Y-66833682D01*
X131266318Y-66100000D02*
X132250000Y-66100000D01*
D30*
X148600000Y-66800000D02*
X148600000Y-68600000D01*
X148600000Y-74200000D02*
X150600000Y-76200000D01*
D29*
X130666318Y-67700000D02*
X132250000Y-67700000D01*
D30*
X150600000Y-79700000D02*
X148750000Y-81550000D01*
X124740000Y-60760000D02*
X124800000Y-60760000D01*
D29*
X124012500Y-127237500D02*
X125000000Y-126250000D01*
D30*
X124800000Y-60760000D02*
X128072500Y-57487500D01*
D29*
X131212318Y-66046000D02*
X131266318Y-66100000D01*
D30*
X131000000Y-57487500D02*
X131000000Y-56175000D01*
D29*
X130133159Y-67733159D02*
X129800000Y-67400000D01*
X124030000Y-93775000D02*
X125005000Y-92800000D01*
D30*
X140800000Y-86358096D02*
X140200000Y-86958096D01*
D29*
X125000000Y-126250000D02*
X129350000Y-126250000D01*
X124000000Y-110587500D02*
X125087500Y-109500000D01*
X142262500Y-68500000D02*
X143000000Y-69237500D01*
D30*
X148750000Y-81550000D02*
X148750000Y-86310000D01*
D29*
X130633159Y-67733159D02*
X130133159Y-67733159D01*
D30*
X140200000Y-86958096D02*
X140200000Y-87800000D01*
D29*
X129300000Y-143250000D02*
X129350000Y-143200000D01*
X143000000Y-69237500D02*
X143500000Y-68737500D01*
D30*
X140800000Y-86310000D02*
X148750000Y-86310000D01*
D29*
X124000000Y-144087500D02*
X124837500Y-143250000D01*
X130633159Y-67733159D02*
X130666318Y-67700000D01*
X131096000Y-66046000D02*
X131212318Y-66046000D01*
X125087500Y-109500000D02*
X129350000Y-109500000D01*
D30*
X123000000Y-62500000D02*
X124740000Y-60760000D01*
D29*
X140750000Y-68500000D02*
X142262500Y-68500000D01*
X129300000Y-92800000D02*
X129400000Y-92700000D01*
D30*
X123000000Y-66200000D02*
X123000000Y-62500000D01*
X124200000Y-67400000D02*
X123000000Y-66200000D01*
X129800000Y-67400000D02*
X124200000Y-67400000D01*
D29*
X129800000Y-66833682D02*
X129800000Y-67400000D01*
X124000000Y-127237500D02*
X124012500Y-127237500D01*
D30*
X148600000Y-68600000D02*
X148600000Y-74200000D01*
D29*
X131096000Y-66046000D02*
X130587682Y-66046000D01*
X124837500Y-143250000D02*
X129300000Y-143250000D01*
D30*
X128072500Y-57487500D02*
X131000000Y-57487500D01*
X140800000Y-86310000D02*
X140800000Y-86358096D01*
X150600000Y-76200000D02*
X150600000Y-79700000D01*
D29*
X143500000Y-68737500D02*
X143500000Y-68600000D01*
X125005000Y-92800000D02*
X129300000Y-92800000D01*
%TO.N,Net-(U3-AREF)*%
X142600000Y-67362500D02*
X142137500Y-66900000D01*
X142137500Y-66900000D02*
X140750000Y-66900000D01*
D31*
%TO.N,Net-(D2-K)*%
X161000000Y-124000000D02*
X156500000Y-128500000D01*
X157000000Y-138000000D02*
X156000000Y-137000000D01*
X157000000Y-136000000D02*
X157000000Y-128500000D01*
X157000000Y-145500000D02*
X157000000Y-138000000D01*
X157000000Y-128500000D02*
X157000000Y-145500000D01*
X156750000Y-128750000D02*
X157000000Y-128500000D01*
X150000000Y-154250000D02*
X157000000Y-147250000D01*
X156500000Y-128500000D02*
X156500000Y-128750000D01*
X156500000Y-128750000D02*
X156750000Y-128750000D01*
X161000000Y-117500000D02*
X161000000Y-124000000D01*
X157000000Y-147250000D02*
X157000000Y-145500000D01*
X156000000Y-137000000D02*
X157000000Y-136000000D01*
D32*
%TO.N,/CH3_230*%
X136700000Y-138700000D02*
X134500000Y-136500000D01*
X152100000Y-99500000D02*
X152100000Y-105100000D01*
X150800000Y-106400000D02*
X150800000Y-118300000D01*
X134500000Y-136500000D02*
X134500000Y-128750000D01*
X150800000Y-118300000D02*
X146200000Y-122900000D01*
X146200000Y-134300000D02*
X141800000Y-138700000D01*
X146200000Y-122900000D02*
X146200000Y-134300000D01*
X152100000Y-105100000D02*
X150800000Y-106400000D01*
X141800000Y-138700000D02*
X136700000Y-138700000D01*
%TO.N,/CH2_230*%
X143400000Y-153700000D02*
X143400000Y-152500000D01*
X143400000Y-152500000D02*
X151200000Y-144700000D01*
X134500000Y-154250000D02*
X135900000Y-155650000D01*
X151200000Y-144700000D02*
X151200000Y-125500000D01*
X155600000Y-108000000D02*
X156400000Y-107200000D01*
X156400000Y-99680000D02*
X156300000Y-99580000D01*
X155600000Y-121100000D02*
X155600000Y-108000000D01*
X135900000Y-155650000D02*
X141450000Y-155650000D01*
X134500000Y-145750000D02*
X134500000Y-154250000D01*
X151200000Y-125500000D02*
X155600000Y-121100000D01*
X141450000Y-155650000D02*
X143400000Y-153700000D01*
X156400000Y-107200000D02*
X156400000Y-99680000D01*
%TO.N,/CH1_230*%
X141650000Y-118050000D02*
X143200000Y-116500000D01*
X146400000Y-113300000D02*
X143200000Y-116500000D01*
X133600000Y-118100000D02*
X133000000Y-117500000D01*
X141650000Y-121400000D02*
X141650000Y-118050000D01*
X143200000Y-116500000D02*
X141600000Y-118100000D01*
X141550000Y-121500000D02*
X141650000Y-121400000D01*
X141600000Y-118100000D02*
X133600000Y-118100000D01*
X146300000Y-106900000D02*
X146400000Y-107000000D01*
X146400000Y-107000000D02*
X146400000Y-113300000D01*
D29*
%TO.N,Net-(U3-XTAL1{slash}PB6)*%
X125100000Y-70700000D02*
X127300000Y-68500000D01*
X124610000Y-70690000D02*
X124600000Y-70700000D01*
X127300000Y-68500000D02*
X132250000Y-68500000D01*
%TO.N,Net-(U3-XTAL2{slash}PB7)*%
X128200000Y-72480000D02*
X125100000Y-75580000D01*
X128200000Y-70300000D02*
X128200000Y-72480000D01*
X129200000Y-69300000D02*
X128200000Y-70300000D01*
X132250000Y-69300000D02*
X129200000Y-69300000D01*
%TO.N,Net-(D1-A)*%
X133875000Y-94525000D02*
X130800000Y-97600000D01*
X124075000Y-99375000D02*
X124000000Y-99375000D01*
X133875000Y-89075000D02*
X133875000Y-94525000D01*
X130800000Y-97600000D02*
X130800000Y-103300000D01*
X130800000Y-103300000D02*
X129400000Y-104700000D01*
X133875000Y-89075000D02*
X132150000Y-89075000D01*
X129400000Y-104700000D02*
X124075000Y-99375000D01*
D33*
%TO.N,Net-(D2-A)*%
X143800000Y-102500000D02*
X141600000Y-104700000D01*
X148050000Y-102500000D02*
X143800000Y-102500000D01*
D29*
%TO.N,Net-(D12-K)*%
X122900000Y-131837500D02*
X124000000Y-132937500D01*
X128900000Y-87700000D02*
X125200000Y-91400000D01*
X127500000Y-138250000D02*
X129350000Y-138250000D01*
X124400000Y-91400000D02*
X122900000Y-92900000D01*
X124000000Y-132937500D02*
X124000000Y-134750000D01*
X128900000Y-87000000D02*
X128900000Y-87700000D01*
X122900000Y-92900000D02*
X122900000Y-131837500D01*
X128900000Y-87000000D02*
X128900000Y-86200000D01*
X125200000Y-91400000D02*
X124400000Y-91400000D01*
X124000000Y-134750000D02*
X127500000Y-138250000D01*
X130375000Y-84725000D02*
X131200000Y-84725000D01*
X128900000Y-86200000D02*
X130375000Y-84725000D01*
D31*
%TO.N,Net-(D4-A)*%
X147000000Y-97500000D02*
X152100000Y-92400000D01*
X136250000Y-100350000D02*
X139100000Y-97500000D01*
X139100000Y-97500000D02*
X147000000Y-97500000D01*
X157700000Y-88020000D02*
X157700000Y-76900000D01*
X158800000Y-75800000D02*
X158800000Y-66600000D01*
X156300000Y-89420000D02*
X157700000Y-88020000D01*
X131500000Y-113500000D02*
X132500000Y-113500000D01*
X152100000Y-89340000D02*
X156220000Y-89340000D01*
X158800000Y-66600000D02*
X154000000Y-61800000D01*
X127400000Y-115450000D02*
X129550000Y-115450000D01*
X132500000Y-113500000D02*
X136250000Y-109750000D01*
X136250000Y-109750000D02*
X136250000Y-100350000D01*
X157700000Y-76900000D02*
X158800000Y-75800000D01*
X129550000Y-115450000D02*
X131500000Y-113500000D01*
X154000000Y-61800000D02*
X154000000Y-47500000D01*
X152100000Y-92400000D02*
X152100000Y-89340000D01*
D29*
%TO.N,Net-(D13-K)*%
X123990000Y-151490000D02*
X127700000Y-155200000D01*
X122000000Y-92400000D02*
X122000000Y-147772500D01*
X127450000Y-86950000D02*
X122000000Y-92400000D01*
X127700000Y-155200000D02*
X129350000Y-155200000D01*
X122000000Y-147772500D02*
X123990000Y-149762500D01*
X123990000Y-149762500D02*
X123990000Y-151490000D01*
X127450000Y-86950000D02*
X127450000Y-84725000D01*
D30*
%TO.N,Net-(D14-K)*%
X129350000Y-121500000D02*
X129292500Y-121500000D01*
D29*
X127000000Y-121500000D02*
X123980000Y-118480000D01*
X129350000Y-121500000D02*
X127000000Y-121500000D01*
X123700000Y-87000000D02*
X123700000Y-84725000D01*
X123980000Y-118480000D02*
X123980000Y-116187500D01*
%TO.N,/CH1_MEASURE*%
X144500000Y-65900000D02*
X143100000Y-64500000D01*
X144500000Y-83100000D02*
X144500000Y-65900000D01*
X142500000Y-85100000D02*
X144500000Y-83100000D01*
X143100000Y-64500000D02*
X140750000Y-64500000D01*
%TO.N,/CH2_MEASURE*%
X146500000Y-65500000D02*
X143250000Y-62250000D01*
X147850000Y-84950000D02*
X146500000Y-83600000D01*
X143250000Y-62250000D02*
X139300000Y-62250000D01*
X146500000Y-83600000D02*
X146500000Y-65500000D01*
%TO.N,/CH3_MEASURE*%
X145500000Y-84850000D02*
X145500000Y-65700000D01*
X145500000Y-65700000D02*
X143500000Y-63700000D01*
X143500000Y-63700000D02*
X140750000Y-63700000D01*
X145250000Y-85100000D02*
X145500000Y-84850000D01*
%TO.N,Net-(D12-A)*%
X124000000Y-131187500D02*
X124000000Y-129062500D01*
%TO.N,Net-(D13-A)*%
X124000000Y-148002500D02*
X123990000Y-148012500D01*
X124000000Y-145912500D02*
X124000000Y-148002500D01*
%TO.N,Net-(D14-A)*%
X123980000Y-112432500D02*
X124000000Y-112412500D01*
X123980000Y-114437500D02*
X123980000Y-112432500D01*
%TO.N,Net-(D15-A)*%
X124030000Y-95600000D02*
X124030000Y-97595000D01*
X124030000Y-97595000D02*
X124000000Y-97625000D01*
%TO.N,/RESET*%
X130800000Y-59200000D02*
X134500000Y-59200000D01*
X134500000Y-59200000D02*
X136100000Y-60800000D01*
X129200000Y-60800000D02*
X130800000Y-59200000D01*
X127340000Y-65840000D02*
X129200000Y-63980000D01*
X129200000Y-63980000D02*
X129200000Y-60800000D01*
X136100000Y-60800000D02*
X136100000Y-62250000D01*
%TO.N,/SCK*%
X140750000Y-69850000D02*
X140750000Y-69300000D01*
X140250000Y-70350000D02*
X140750000Y-69850000D01*
%TO.N,/MISO*%
X139300000Y-70750000D02*
X139300000Y-69200000D01*
%TO.N,/MOSI*%
X138500000Y-68500000D02*
X138500000Y-70750000D01*
X139300000Y-67700000D02*
X138500000Y-68500000D01*
%TO.N,/SDA*%
X143900000Y-58800000D02*
X145500000Y-58800000D01*
X146200000Y-48605000D02*
X146305000Y-48500000D01*
X141800000Y-60900000D02*
X143900000Y-58800000D01*
X145500000Y-58800000D02*
X146200000Y-58100000D01*
X146200000Y-58100000D02*
X146200000Y-48605000D01*
X137700000Y-61200000D02*
X138000000Y-60900000D01*
X137700000Y-62250000D02*
X137700000Y-61200000D01*
X138000000Y-60900000D02*
X141800000Y-60900000D01*
%TO.N,/SCL*%
X143765000Y-57435000D02*
X143765000Y-48500000D01*
X141300000Y-59900000D02*
X143765000Y-57435000D01*
X136900000Y-60700000D02*
X137700000Y-59900000D01*
X137700000Y-59900000D02*
X141300000Y-59900000D01*
X136900000Y-62250000D02*
X136900000Y-60700000D01*
%TO.N,Net-(Q1-B)*%
X132150000Y-79662500D02*
X132100000Y-79612500D01*
X132150000Y-82600000D02*
X132150000Y-79662500D01*
%TO.N,Net-(Q2-B)*%
X130480000Y-79625000D02*
X130480000Y-79920000D01*
X130480000Y-79920000D02*
X128400000Y-82000000D01*
X128400000Y-82000000D02*
X128400000Y-82600000D01*
%TO.N,Net-(Q3-B)*%
X126475000Y-79625000D02*
X124650000Y-81450000D01*
X124650000Y-81450000D02*
X124650000Y-82600000D01*
X128200000Y-79625000D02*
X126475000Y-79625000D01*
%TO.N,Net-(Q4-B)*%
X133600000Y-84700000D02*
X133600000Y-79812500D01*
X133100000Y-87200000D02*
X133100000Y-85200000D01*
X133600000Y-79812500D02*
X133800000Y-79612500D01*
X133100000Y-85200000D02*
X133600000Y-84700000D01*
%TO.N,Net-(U3-PD2)*%
X134800000Y-81900000D02*
X134800000Y-83700000D01*
X132700000Y-62100000D02*
X133550000Y-62100000D01*
X133550000Y-62100000D02*
X133700000Y-62250000D01*
X136250000Y-85150000D02*
X136250000Y-86310000D01*
X134800000Y-83700000D02*
X136250000Y-85150000D01*
%TO.N,/MEASURE_EN*%
X136100000Y-70750000D02*
X136100000Y-75600000D01*
X136100000Y-75600000D02*
X133912500Y-77787500D01*
%TO.N,/CH3*%
X135300000Y-70750000D02*
X135300000Y-74587500D01*
X135300000Y-74587500D02*
X132100000Y-77787500D01*
%TO.N,/CH2*%
X134500000Y-73700000D02*
X132500000Y-75700000D01*
X130480000Y-77720000D02*
X130480000Y-77800000D01*
X134500000Y-70750000D02*
X134500000Y-73700000D01*
X132500000Y-75700000D02*
X130480000Y-77720000D01*
%TO.N,/CH1*%
X133700000Y-72900000D02*
X133700000Y-70750000D01*
X131800000Y-74800000D02*
X133700000Y-72900000D01*
X128800000Y-77800000D02*
X131800000Y-74800000D01*
%TD*%
%TA.AperFunction,Conductor*%
%TO.N,GND*%
G36*
X124049151Y-100420184D02*
G01*
X124069793Y-100436818D01*
X125763681Y-102130706D01*
X125797166Y-102192028D01*
X125800000Y-102218386D01*
X125800000Y-108621500D01*
X125780315Y-108688539D01*
X125727511Y-108734294D01*
X125676000Y-108745500D01*
X125013183Y-108745500D01*
X124867427Y-108774493D01*
X124867419Y-108774495D01*
X124730108Y-108831371D01*
X124606535Y-108913939D01*
X124606534Y-108913940D01*
X124553988Y-108966487D01*
X124501441Y-109019034D01*
X124501439Y-109019036D01*
X123957292Y-109563181D01*
X123895969Y-109596666D01*
X123869611Y-109599500D01*
X123778500Y-109599500D01*
X123711461Y-109579815D01*
X123665706Y-109527011D01*
X123654500Y-109475500D01*
X123654500Y-100524499D01*
X123674185Y-100457460D01*
X123726989Y-100411705D01*
X123778496Y-100400499D01*
X123982112Y-100400499D01*
X124049151Y-100420184D01*
G37*
%TD.AperFunction*%
%TA.AperFunction,Conductor*%
G36*
X132792365Y-83736275D02*
G01*
X132836129Y-83790741D01*
X132845500Y-83838030D01*
X132845500Y-84336112D01*
X132825815Y-84403151D01*
X132809181Y-84423793D01*
X132513943Y-84719030D01*
X132513942Y-84719031D01*
X132431372Y-84842607D01*
X132431371Y-84842609D01*
X132431370Y-84842611D01*
X132415916Y-84879921D01*
X132415916Y-84879922D01*
X132386889Y-84949999D01*
X132374495Y-84979919D01*
X132374493Y-84979925D01*
X132345499Y-85125685D01*
X132345499Y-85280425D01*
X132345500Y-85280446D01*
X132345500Y-86043941D01*
X132340576Y-86078536D01*
X132302402Y-86209926D01*
X132302401Y-86209932D01*
X132299500Y-86246798D01*
X132299500Y-87413000D01*
X132279815Y-87480039D01*
X132227011Y-87525794D01*
X132175500Y-87537000D01*
X132124000Y-87537000D01*
X132056961Y-87517315D01*
X132011206Y-87464511D01*
X132000000Y-87413000D01*
X132000000Y-87150000D01*
X131450000Y-87150000D01*
X131450000Y-87805684D01*
X131432733Y-87868804D01*
X131398254Y-87927105D01*
X131398254Y-87927106D01*
X131352402Y-88084926D01*
X131352401Y-88084932D01*
X131349500Y-88121798D01*
X131349500Y-89428201D01*
X131352401Y-89465067D01*
X131352402Y-89465073D01*
X131398254Y-89622893D01*
X131398255Y-89622896D01*
X131481917Y-89764362D01*
X131481923Y-89764370D01*
X131598129Y-89880576D01*
X131598133Y-89880579D01*
X131598135Y-89880581D01*
X131739602Y-89964244D01*
X131781224Y-89976336D01*
X131897426Y-90010097D01*
X131897429Y-90010097D01*
X131897431Y-90010098D01*
X131934306Y-90013000D01*
X131934314Y-90013000D01*
X132365686Y-90013000D01*
X132365694Y-90013000D01*
X132402569Y-90010098D01*
X132402571Y-90010097D01*
X132402573Y-90010097D01*
X132444191Y-89998005D01*
X132560398Y-89964244D01*
X132701865Y-89880581D01*
X132701870Y-89880576D01*
X132716628Y-89865819D01*
X132777951Y-89832334D01*
X132804309Y-89829500D01*
X132996500Y-89829500D01*
X133063539Y-89849185D01*
X133109294Y-89901989D01*
X133120500Y-89953500D01*
X133120500Y-94161112D01*
X133100815Y-94228151D01*
X133084181Y-94248793D01*
X130213943Y-97119030D01*
X130213942Y-97119031D01*
X130131372Y-97242607D01*
X130131366Y-97242618D01*
X130074496Y-97379916D01*
X130074493Y-97379926D01*
X130045499Y-97525685D01*
X130045499Y-97680425D01*
X130045500Y-97680446D01*
X130045500Y-99432598D01*
X130025815Y-99499637D01*
X130008416Y-99521038D01*
X128336184Y-101164440D01*
X128274572Y-101197391D01*
X128249268Y-101200000D01*
X127018386Y-101200000D01*
X126951347Y-101180315D01*
X126930705Y-101163681D01*
X126766524Y-100999500D01*
X125011818Y-99244793D01*
X124978333Y-99183470D01*
X124975499Y-99157112D01*
X124975499Y-99038330D01*
X124975498Y-99038313D01*
X124965174Y-98937247D01*
X124957767Y-98914895D01*
X124910908Y-98773484D01*
X124820340Y-98626650D01*
X124781371Y-98587681D01*
X124747886Y-98526358D01*
X124752870Y-98456666D01*
X124781371Y-98412319D01*
X124820340Y-98373350D01*
X124834744Y-98349998D01*
X125444891Y-98349998D01*
X125444891Y-98350001D01*
X125465300Y-98635362D01*
X125526109Y-98914895D01*
X125626091Y-99182958D01*
X125763191Y-99434038D01*
X125763196Y-99434046D01*
X125869882Y-99576562D01*
X125869883Y-99576563D01*
X126848958Y-98597488D01*
X126873978Y-98657890D01*
X126945112Y-98764351D01*
X127035649Y-98854888D01*
X127142110Y-98926022D01*
X127202511Y-98951041D01*
X126223435Y-99930115D01*
X126223436Y-99930116D01*
X126365953Y-100036803D01*
X126365961Y-100036808D01*
X126617042Y-100173908D01*
X126617041Y-100173908D01*
X126885104Y-100273890D01*
X127164637Y-100334699D01*
X127449999Y-100355109D01*
X127450001Y-100355109D01*
X127735362Y-100334699D01*
X128014895Y-100273890D01*
X128282958Y-100173908D01*
X128534038Y-100036808D01*
X128534039Y-100036807D01*
X128676563Y-99930115D01*
X127697488Y-98951041D01*
X127757890Y-98926022D01*
X127864351Y-98854888D01*
X127954888Y-98764351D01*
X128026022Y-98657890D01*
X128051041Y-98597488D01*
X129030115Y-99576563D01*
X129136807Y-99434039D01*
X129136808Y-99434038D01*
X129273908Y-99182958D01*
X129373890Y-98914895D01*
X129434699Y-98635362D01*
X129455109Y-98350001D01*
X129455109Y-98349998D01*
X129434699Y-98064637D01*
X129373890Y-97785104D01*
X129273908Y-97517041D01*
X129136808Y-97265961D01*
X129136803Y-97265953D01*
X129030116Y-97123436D01*
X129030115Y-97123435D01*
X128051041Y-98102510D01*
X128026022Y-98042110D01*
X127954888Y-97935649D01*
X127864351Y-97845112D01*
X127757890Y-97773978D01*
X127697487Y-97748958D01*
X128676563Y-96769883D01*
X128676562Y-96769882D01*
X128534046Y-96663196D01*
X128534038Y-96663191D01*
X128282957Y-96526091D01*
X128282958Y-96526091D01*
X128014895Y-96426109D01*
X127735362Y-96365300D01*
X127450001Y-96344891D01*
X127449999Y-96344891D01*
X127164637Y-96365300D01*
X126885104Y-96426109D01*
X126617041Y-96526091D01*
X126365961Y-96663191D01*
X126365953Y-96663196D01*
X126223435Y-96769882D01*
X127202512Y-97748958D01*
X127142110Y-97773978D01*
X127035649Y-97845112D01*
X126945112Y-97935649D01*
X126873978Y-98042110D01*
X126848958Y-98102511D01*
X125869882Y-97123435D01*
X125763196Y-97265953D01*
X125763191Y-97265961D01*
X125626091Y-97517041D01*
X125526109Y-97785104D01*
X125465300Y-98064637D01*
X125444891Y-98349998D01*
X124834744Y-98349998D01*
X124910908Y-98226516D01*
X124965174Y-98062753D01*
X124975500Y-97961677D01*
X124975499Y-97288324D01*
X124970829Y-97242611D01*
X124965174Y-97187247D01*
X124944029Y-97123436D01*
X124910908Y-97023484D01*
X124820340Y-96876650D01*
X124820339Y-96876649D01*
X124820338Y-96876647D01*
X124815862Y-96870987D01*
X124816981Y-96870101D01*
X124787334Y-96815806D01*
X124784500Y-96789448D01*
X124784500Y-96428052D01*
X124804185Y-96361013D01*
X124820819Y-96340371D01*
X124850340Y-96310850D01*
X124940908Y-96164016D01*
X124995174Y-96000253D01*
X125005500Y-95899177D01*
X125005499Y-95300824D01*
X124995174Y-95199747D01*
X124940908Y-95035984D01*
X124850340Y-94889150D01*
X124736371Y-94775181D01*
X124702886Y-94713858D01*
X124707870Y-94644166D01*
X124736371Y-94599819D01*
X124736879Y-94599311D01*
X124850340Y-94485850D01*
X124940908Y-94339016D01*
X124995174Y-94175253D01*
X125005500Y-94074177D01*
X125005499Y-93917885D01*
X125025183Y-93850846D01*
X125041809Y-93830213D01*
X125281206Y-93590816D01*
X125342528Y-93557334D01*
X125368886Y-93554500D01*
X128022461Y-93554500D01*
X128089500Y-93574185D01*
X128109610Y-93591021D01*
X128109793Y-93590825D01*
X128251006Y-93721851D01*
X128305521Y-93772433D01*
X128522296Y-93920228D01*
X128522301Y-93920230D01*
X128522302Y-93920231D01*
X128522303Y-93920232D01*
X128647843Y-93980688D01*
X128758673Y-94034061D01*
X128758674Y-94034061D01*
X128758677Y-94034063D01*
X129009385Y-94111396D01*
X129268818Y-94150500D01*
X129531182Y-94150500D01*
X129790615Y-94111396D01*
X130041323Y-94034063D01*
X130277704Y-93920228D01*
X130494479Y-93772433D01*
X130686805Y-93593981D01*
X130850386Y-93388857D01*
X130981568Y-93161643D01*
X131077420Y-92917416D01*
X131135802Y-92661630D01*
X131155408Y-92400000D01*
X131135802Y-92138370D01*
X131077420Y-91882584D01*
X130981568Y-91638357D01*
X130850386Y-91411143D01*
X130686805Y-91206019D01*
X130686804Y-91206018D01*
X130686801Y-91206014D01*
X130494479Y-91027567D01*
X130464201Y-91006924D01*
X130277704Y-90879772D01*
X130277700Y-90879770D01*
X130277697Y-90879768D01*
X130277696Y-90879767D01*
X130041325Y-90765938D01*
X130041327Y-90765938D01*
X129790623Y-90688606D01*
X129790619Y-90688605D01*
X129790615Y-90688604D01*
X129665823Y-90669794D01*
X129531187Y-90649500D01*
X129531182Y-90649500D01*
X129268818Y-90649500D01*
X129268812Y-90649500D01*
X129107247Y-90673853D01*
X129009385Y-90688604D01*
X129009382Y-90688605D01*
X129009376Y-90688606D01*
X128758673Y-90765938D01*
X128522303Y-90879767D01*
X128522302Y-90879768D01*
X128305520Y-91027567D01*
X128113198Y-91206014D01*
X127949614Y-91411143D01*
X127818432Y-91638356D01*
X127722582Y-91882578D01*
X127722577Y-91882595D01*
X127707399Y-91949093D01*
X127673290Y-92010071D01*
X127611628Y-92042929D01*
X127586508Y-92045500D01*
X125920888Y-92045500D01*
X125853849Y-92025815D01*
X125808094Y-91973011D01*
X125798150Y-91903853D01*
X125827175Y-91840297D01*
X125833207Y-91833819D01*
X128044131Y-89622893D01*
X129380963Y-88286060D01*
X129380966Y-88286059D01*
X129486059Y-88180966D01*
X129568629Y-88057390D01*
X129625505Y-87920080D01*
X129654500Y-87774312D01*
X129654500Y-87553149D01*
X130400000Y-87553149D01*
X130402899Y-87589989D01*
X130402900Y-87589995D01*
X130448716Y-87747693D01*
X130448717Y-87747696D01*
X130532314Y-87889052D01*
X130532321Y-87889061D01*
X130648438Y-88005178D01*
X130648447Y-88005185D01*
X130789801Y-88088781D01*
X130947514Y-88134600D01*
X130947511Y-88134600D01*
X130949998Y-88134795D01*
X130950000Y-88134795D01*
X130950000Y-87150000D01*
X130400000Y-87150000D01*
X130400000Y-87553149D01*
X129654500Y-87553149D01*
X129654500Y-87288537D01*
X129661459Y-87247582D01*
X129681083Y-87191500D01*
X129685368Y-87179255D01*
X129703595Y-87017483D01*
X129705565Y-87000003D01*
X129705565Y-86999996D01*
X129685369Y-86820750D01*
X129685368Y-86820745D01*
X129661458Y-86752414D01*
X129654500Y-86711459D01*
X129654500Y-86563886D01*
X129674185Y-86496847D01*
X129690815Y-86476209D01*
X130243992Y-85923031D01*
X130305315Y-85889547D01*
X130375007Y-85894531D01*
X130430940Y-85936403D01*
X130455357Y-86001867D01*
X130450750Y-86045307D01*
X130402899Y-86210010D01*
X130400000Y-86246850D01*
X130400000Y-86650000D01*
X132000000Y-86650000D01*
X132000000Y-86246865D01*
X131999999Y-86246850D01*
X131997100Y-86210010D01*
X131997099Y-86210004D01*
X131951283Y-86052306D01*
X131951282Y-86052303D01*
X131867685Y-85910947D01*
X131867678Y-85910938D01*
X131751561Y-85794821D01*
X131751550Y-85794813D01*
X131751055Y-85794520D01*
X131750746Y-85794189D01*
X131745393Y-85790037D01*
X131746062Y-85789173D01*
X131703373Y-85743450D01*
X131690871Y-85674708D01*
X131717518Y-85610119D01*
X131745859Y-85585563D01*
X131745702Y-85585361D01*
X131749435Y-85582465D01*
X131751061Y-85581055D01*
X131751865Y-85580581D01*
X131868081Y-85464365D01*
X131951744Y-85322898D01*
X131991791Y-85185057D01*
X131997597Y-85165073D01*
X131997597Y-85165071D01*
X131997598Y-85165069D01*
X132000500Y-85128194D01*
X132000500Y-83962000D01*
X132020185Y-83894961D01*
X132072989Y-83849206D01*
X132124500Y-83838000D01*
X132365686Y-83838000D01*
X132365694Y-83838000D01*
X132402569Y-83835098D01*
X132402571Y-83835097D01*
X132402573Y-83835097D01*
X132448347Y-83821798D01*
X132560398Y-83789244D01*
X132658380Y-83731297D01*
X132726103Y-83714115D01*
X132792365Y-83736275D01*
G37*
%TD.AperFunction*%
%TA.AperFunction,Conductor*%
G36*
X142112258Y-69895442D02*
G01*
X142130114Y-69918023D01*
X142145280Y-69942611D01*
X142179661Y-69998351D01*
X142193982Y-70012672D01*
X142227467Y-70073995D01*
X142222483Y-70143687D01*
X142193985Y-70188032D01*
X142180052Y-70201965D01*
X142089551Y-70348688D01*
X142089546Y-70348699D01*
X142035319Y-70512347D01*
X142025000Y-70613345D01*
X142025000Y-70712500D01*
X142876000Y-70712500D01*
X142943039Y-70732185D01*
X142988794Y-70784989D01*
X143000000Y-70836500D01*
X143000000Y-70962500D01*
X143126000Y-70962500D01*
X143193039Y-70982185D01*
X143238794Y-71034989D01*
X143250000Y-71086500D01*
X143250000Y-71999999D01*
X143286640Y-71999999D01*
X143286654Y-71999998D01*
X143387652Y-71989680D01*
X143551300Y-71935453D01*
X143551308Y-71935449D01*
X143556398Y-71932310D01*
X143623789Y-71913866D01*
X143690454Y-71934785D01*
X143735226Y-71988425D01*
X143745500Y-72037845D01*
X143745500Y-82736112D01*
X143725815Y-82803151D01*
X143709181Y-82823793D01*
X142181357Y-84351616D01*
X142155869Y-84369705D01*
X142156373Y-84370507D01*
X141997737Y-84470184D01*
X141870184Y-84597737D01*
X141774211Y-84750476D01*
X141714631Y-84920745D01*
X141714630Y-84920750D01*
X141694435Y-85099996D01*
X141694435Y-85100003D01*
X141715411Y-85286175D01*
X141713514Y-85286388D01*
X141709824Y-85346643D01*
X141668527Y-85403002D01*
X141603316Y-85428087D01*
X141593205Y-85428500D01*
X140713178Y-85428500D01*
X140542881Y-85462374D01*
X140542871Y-85462377D01*
X140382459Y-85528821D01*
X140382446Y-85528828D01*
X140238077Y-85625293D01*
X140238073Y-85625296D01*
X140115296Y-85748073D01*
X140115293Y-85748077D01*
X140025231Y-85882864D01*
X140009810Y-85901654D01*
X139515293Y-86396171D01*
X139447429Y-86497737D01*
X139447430Y-86497738D01*
X139418827Y-86540545D01*
X139418823Y-86540552D01*
X139352376Y-86700971D01*
X139352374Y-86700977D01*
X139318500Y-86871273D01*
X139318500Y-86871276D01*
X139318500Y-87886820D01*
X139318500Y-87886822D01*
X139318499Y-87886822D01*
X139352374Y-88057118D01*
X139352377Y-88057128D01*
X139390561Y-88149312D01*
X139400000Y-88196764D01*
X139400000Y-89949976D01*
X139380315Y-90017015D01*
X139365290Y-90036019D01*
X134834867Y-94737401D01*
X134774174Y-94772015D01*
X134704402Y-94768322D01*
X134647703Y-94727494D01*
X134622078Y-94662493D01*
X134623959Y-94627167D01*
X134629501Y-94599312D01*
X134629501Y-94450688D01*
X134629501Y-94445578D01*
X134629500Y-94445552D01*
X134629500Y-89363537D01*
X134636459Y-89322582D01*
X134660368Y-89254255D01*
X134661174Y-89247094D01*
X134680565Y-89075003D01*
X134680565Y-89074996D01*
X134660369Y-88895750D01*
X134660368Y-88895745D01*
X134600788Y-88725476D01*
X134504815Y-88572737D01*
X134377262Y-88445184D01*
X134224523Y-88349211D01*
X134054254Y-88289631D01*
X134054249Y-88289630D01*
X133875004Y-88269435D01*
X133874996Y-88269435D01*
X133695750Y-88289630D01*
X133695737Y-88289633D01*
X133627415Y-88313541D01*
X133586460Y-88320500D01*
X133572633Y-88320500D01*
X133505594Y-88300815D01*
X133459839Y-88248011D01*
X133449895Y-88178853D01*
X133478920Y-88115297D01*
X133509512Y-88089768D01*
X133517699Y-88084926D01*
X133651865Y-88005581D01*
X133768081Y-87889365D01*
X133851744Y-87747898D01*
X133897598Y-87590069D01*
X133900500Y-87553194D01*
X133900500Y-86246806D01*
X133897598Y-86209931D01*
X133859424Y-86078536D01*
X133854500Y-86043941D01*
X133854500Y-85563885D01*
X133874185Y-85496846D01*
X133890815Y-85476208D01*
X134080963Y-85286060D01*
X134080966Y-85286059D01*
X134186059Y-85180966D01*
X134251925Y-85082390D01*
X134268630Y-85057389D01*
X134301946Y-84976955D01*
X134325505Y-84920080D01*
X134340915Y-84842610D01*
X134354501Y-84774312D01*
X134354501Y-84625688D01*
X134354501Y-84620887D01*
X134374186Y-84553848D01*
X134426990Y-84508093D01*
X134496148Y-84498149D01*
X134559704Y-84527174D01*
X134566182Y-84533206D01*
X135031085Y-84998109D01*
X135064570Y-85059432D01*
X135059586Y-85129124D01*
X135017714Y-85185057D01*
X134955340Y-85208321D01*
X134955429Y-85209146D01*
X134892516Y-85215908D01*
X134757671Y-85266202D01*
X134757664Y-85266206D01*
X134642455Y-85352452D01*
X134642452Y-85352455D01*
X134556206Y-85467664D01*
X134556202Y-85467671D01*
X134505908Y-85602517D01*
X134500774Y-85650278D01*
X134499501Y-85662123D01*
X134499500Y-85662135D01*
X134499500Y-86957870D01*
X134499501Y-86957876D01*
X134505908Y-87017483D01*
X134556202Y-87152328D01*
X134556206Y-87152335D01*
X134642452Y-87267544D01*
X134642455Y-87267547D01*
X134757664Y-87353793D01*
X134757671Y-87353797D01*
X134892517Y-87404091D01*
X134892516Y-87404091D01*
X134899444Y-87404835D01*
X134952127Y-87410500D01*
X137547872Y-87410499D01*
X137607483Y-87404091D01*
X137742331Y-87353796D01*
X137857546Y-87267546D01*
X137943796Y-87152331D01*
X137994091Y-87017483D01*
X138000500Y-86957873D01*
X138000499Y-85662128D01*
X137994091Y-85602517D01*
X137987692Y-85585361D01*
X137943797Y-85467671D01*
X137943793Y-85467664D01*
X137857547Y-85352455D01*
X137857544Y-85352452D01*
X137742335Y-85266206D01*
X137742328Y-85266202D01*
X137607482Y-85215908D01*
X137607483Y-85215908D01*
X137547883Y-85209501D01*
X137547881Y-85209500D01*
X137547873Y-85209500D01*
X137547865Y-85209500D01*
X137128501Y-85209500D01*
X137061462Y-85189815D01*
X137015707Y-85137011D01*
X137004501Y-85085500D01*
X137004501Y-85075686D01*
X136989069Y-84998109D01*
X136979499Y-84950000D01*
X136975505Y-84929920D01*
X136939340Y-84842610D01*
X136918630Y-84792611D01*
X136876742Y-84729921D01*
X136836059Y-84669034D01*
X136836057Y-84669031D01*
X136726647Y-84559621D01*
X136726624Y-84559600D01*
X135590819Y-83423794D01*
X135557334Y-83362471D01*
X135554500Y-83336113D01*
X135554500Y-82188537D01*
X135561459Y-82147582D01*
X135569923Y-82123394D01*
X135585368Y-82079255D01*
X135600285Y-81946865D01*
X135605565Y-81900003D01*
X135605565Y-81899996D01*
X135585369Y-81720750D01*
X135585368Y-81720745D01*
X135546945Y-81610938D01*
X135525789Y-81550478D01*
X135506031Y-81519034D01*
X135438285Y-81411217D01*
X135429816Y-81397738D01*
X135302262Y-81270184D01*
X135245500Y-81234518D01*
X135149523Y-81174211D01*
X134979254Y-81114631D01*
X134979249Y-81114630D01*
X134800004Y-81094435D01*
X134799996Y-81094435D01*
X134620750Y-81114630D01*
X134620742Y-81114632D01*
X134519454Y-81150074D01*
X134449675Y-81153635D01*
X134389048Y-81118906D01*
X134356821Y-81056912D01*
X134354500Y-81033032D01*
X134354500Y-80603274D01*
X134374185Y-80536235D01*
X134413401Y-80497736D01*
X134498350Y-80445340D01*
X134620340Y-80323350D01*
X134710908Y-80176516D01*
X134765174Y-80012753D01*
X134775500Y-79911677D01*
X134775499Y-79909575D01*
X134775629Y-79909135D01*
X134775660Y-79908529D01*
X134775804Y-79908536D01*
X134795171Y-79842536D01*
X134847966Y-79796771D01*
X134912754Y-79786267D01*
X134917927Y-79786823D01*
X134952127Y-79790500D01*
X137547872Y-79790499D01*
X137607483Y-79784091D01*
X137742331Y-79733796D01*
X137857546Y-79647546D01*
X137943796Y-79532331D01*
X137994091Y-79397483D01*
X138000500Y-79337873D01*
X138000499Y-78042128D01*
X137994091Y-77982517D01*
X137943796Y-77847669D01*
X137943795Y-77847668D01*
X137943793Y-77847664D01*
X137857547Y-77732455D01*
X137857544Y-77732452D01*
X137742335Y-77646206D01*
X137742328Y-77646202D01*
X137607482Y-77595908D01*
X137607483Y-77595908D01*
X137547883Y-77589501D01*
X137547881Y-77589500D01*
X137547873Y-77589500D01*
X137547865Y-77589500D01*
X135476885Y-77589500D01*
X135409846Y-77569815D01*
X135364091Y-77517011D01*
X135354147Y-77447853D01*
X135383172Y-77384297D01*
X135389204Y-77377819D01*
X135957857Y-76809166D01*
X136580963Y-76186060D01*
X136580966Y-76186059D01*
X136686059Y-76080966D01*
X136768629Y-75957390D01*
X136825505Y-75820080D01*
X136854500Y-75674312D01*
X136854500Y-75253758D01*
X136874185Y-75186719D01*
X136926989Y-75140964D01*
X136996147Y-75131020D01*
X137059703Y-75160045D01*
X137066181Y-75166077D01*
X137138599Y-75238495D01*
X137235384Y-75306265D01*
X137332165Y-75374032D01*
X137332167Y-75374033D01*
X137332170Y-75374035D01*
X137546337Y-75473903D01*
X137774592Y-75535063D01*
X137951034Y-75550500D01*
X138009999Y-75555659D01*
X138010000Y-75555659D01*
X138010001Y-75555659D01*
X138068966Y-75550500D01*
X138245408Y-75535063D01*
X138473663Y-75473903D01*
X138687830Y-75374035D01*
X138881401Y-75238495D01*
X139003329Y-75116566D01*
X139064648Y-75083084D01*
X139134340Y-75088068D01*
X139190274Y-75129939D01*
X139207189Y-75160917D01*
X139256202Y-75292328D01*
X139256206Y-75292335D01*
X139342452Y-75407544D01*
X139342455Y-75407547D01*
X139457664Y-75493793D01*
X139457671Y-75493797D01*
X139592517Y-75544091D01*
X139592516Y-75544091D01*
X139599444Y-75544835D01*
X139652127Y-75550500D01*
X141447872Y-75550499D01*
X141507483Y-75544091D01*
X141642331Y-75493796D01*
X141757546Y-75407546D01*
X141843796Y-75292331D01*
X141894091Y-75157483D01*
X141900500Y-75097873D01*
X141900499Y-73302128D01*
X141894091Y-73242517D01*
X141892810Y-73239083D01*
X141843797Y-73107671D01*
X141843793Y-73107664D01*
X141757547Y-72992455D01*
X141757544Y-72992452D01*
X141642335Y-72906206D01*
X141642328Y-72906202D01*
X141507482Y-72855908D01*
X141507483Y-72855908D01*
X141447883Y-72849501D01*
X141447881Y-72849500D01*
X141447873Y-72849500D01*
X141447864Y-72849500D01*
X139652129Y-72849500D01*
X139652123Y-72849501D01*
X139592516Y-72855908D01*
X139457671Y-72906202D01*
X139457664Y-72906206D01*
X139342455Y-72992452D01*
X139342452Y-72992455D01*
X139256206Y-73107664D01*
X139256203Y-73107669D01*
X139207189Y-73239083D01*
X139165317Y-73295016D01*
X139099853Y-73319433D01*
X139031580Y-73304581D01*
X139003326Y-73283430D01*
X138881402Y-73161506D01*
X138881395Y-73161501D01*
X138687834Y-73025967D01*
X138687830Y-73025965D01*
X138687828Y-73025964D01*
X138473663Y-72926097D01*
X138473659Y-72926096D01*
X138473655Y-72926094D01*
X138245413Y-72864938D01*
X138245403Y-72864936D01*
X138010001Y-72844341D01*
X138009999Y-72844341D01*
X137774596Y-72864936D01*
X137774586Y-72864938D01*
X137546344Y-72926094D01*
X137546335Y-72926098D01*
X137332171Y-73025964D01*
X137332169Y-73025965D01*
X137138597Y-73161505D01*
X137066181Y-73233922D01*
X137004858Y-73267407D01*
X136935166Y-73262423D01*
X136879233Y-73220551D01*
X136854816Y-73155087D01*
X136854500Y-73146241D01*
X136854500Y-72174499D01*
X136874185Y-72107460D01*
X136926989Y-72061705D01*
X136978500Y-72050499D01*
X137222871Y-72050499D01*
X137222872Y-72050499D01*
X137282483Y-72044091D01*
X137282486Y-72044089D01*
X137286744Y-72043632D01*
X137313254Y-72043632D01*
X137317514Y-72044089D01*
X137317517Y-72044091D01*
X137377127Y-72050500D01*
X138022872Y-72050499D01*
X138082483Y-72044091D01*
X138082486Y-72044089D01*
X138086744Y-72043632D01*
X138113254Y-72043632D01*
X138117514Y-72044089D01*
X138117517Y-72044091D01*
X138177127Y-72050500D01*
X138822872Y-72050499D01*
X138882483Y-72044091D01*
X138882486Y-72044089D01*
X138886744Y-72043632D01*
X138913254Y-72043632D01*
X138917514Y-72044089D01*
X138917517Y-72044091D01*
X138977127Y-72050500D01*
X139622872Y-72050499D01*
X139682483Y-72044091D01*
X139817331Y-71993796D01*
X139932546Y-71907546D01*
X140018796Y-71792331D01*
X140069091Y-71657483D01*
X140075500Y-71597873D01*
X140075499Y-71311654D01*
X142025001Y-71311654D01*
X142035319Y-71412652D01*
X142089546Y-71576300D01*
X142089551Y-71576311D01*
X142180052Y-71723034D01*
X142180055Y-71723038D01*
X142301961Y-71844944D01*
X142301965Y-71844947D01*
X142448688Y-71935448D01*
X142448699Y-71935453D01*
X142612347Y-71989680D01*
X142713352Y-71999999D01*
X142750000Y-71999999D01*
X142750000Y-71212500D01*
X142025001Y-71212500D01*
X142025001Y-71311654D01*
X140075499Y-71311654D01*
X140075499Y-71274657D01*
X140095183Y-71207620D01*
X140147987Y-71161865D01*
X140213383Y-71151439D01*
X140239253Y-71154354D01*
X140249999Y-71155565D01*
X140250000Y-71155565D01*
X140250004Y-71155565D01*
X140429249Y-71135369D01*
X140429252Y-71135368D01*
X140429255Y-71135368D01*
X140599522Y-71075789D01*
X140752262Y-70979816D01*
X140879816Y-70852262D01*
X140975789Y-70699522D01*
X140975789Y-70699520D01*
X140979494Y-70693625D01*
X140980299Y-70694131D01*
X140998382Y-70668641D01*
X141230963Y-70436060D01*
X141230966Y-70436059D01*
X141336059Y-70330966D01*
X141410849Y-70219034D01*
X141418630Y-70207389D01*
X141441554Y-70152046D01*
X141485395Y-70097643D01*
X141551689Y-70075578D01*
X141556115Y-70075499D01*
X141597871Y-70075499D01*
X141597872Y-70075499D01*
X141657483Y-70069091D01*
X141792331Y-70018796D01*
X141907546Y-69932546D01*
X141925312Y-69908813D01*
X141981243Y-69866943D01*
X142050935Y-69861957D01*
X142112258Y-69895442D01*
G37*
%TD.AperFunction*%
%TA.AperFunction,Conductor*%
G36*
X127622006Y-56519685D02*
G01*
X127667761Y-56572489D01*
X127677705Y-56641647D01*
X127648680Y-56705203D01*
X127623858Y-56727101D01*
X127582765Y-56754559D01*
X127546750Y-56778623D01*
X127510573Y-56802795D01*
X124941143Y-59372225D01*
X124879820Y-59405710D01*
X124842656Y-59408072D01*
X124800004Y-59404341D01*
X124799999Y-59404341D01*
X124564596Y-59424936D01*
X124564586Y-59424938D01*
X124336344Y-59486094D01*
X124336335Y-59486098D01*
X124122171Y-59585964D01*
X124122169Y-59585965D01*
X123928597Y-59721505D01*
X123761505Y-59888597D01*
X123625965Y-60082169D01*
X123625964Y-60082171D01*
X123526098Y-60296335D01*
X123526094Y-60296344D01*
X123464938Y-60524586D01*
X123464936Y-60524596D01*
X123443869Y-60765394D01*
X123442116Y-60765240D01*
X123424656Y-60824705D01*
X123408022Y-60845347D01*
X122315296Y-61938072D01*
X122315295Y-61938073D01*
X122218823Y-62082456D01*
X122152376Y-62242874D01*
X122152374Y-62242883D01*
X122139686Y-62306673D01*
X122133465Y-62337949D01*
X122118500Y-62413180D01*
X122118500Y-66113179D01*
X122118500Y-66286821D01*
X122118500Y-66286823D01*
X122118499Y-66286823D01*
X122152374Y-66457118D01*
X122152377Y-66457128D01*
X122218822Y-66617543D01*
X122315295Y-66761926D01*
X122315296Y-66761927D01*
X123515294Y-67961923D01*
X123635854Y-68082483D01*
X123638078Y-68084707D01*
X123638081Y-68084709D01*
X123724737Y-68142611D01*
X123724738Y-68142611D01*
X123782453Y-68181175D01*
X123782455Y-68181176D01*
X123782459Y-68181178D01*
X123942871Y-68247622D01*
X123942876Y-68247624D01*
X123942880Y-68247624D01*
X123942881Y-68247625D01*
X124113176Y-68281500D01*
X124113179Y-68281500D01*
X124113180Y-68281500D01*
X126152114Y-68281500D01*
X126219153Y-68301185D01*
X126264908Y-68353989D01*
X126274852Y-68423147D01*
X126245827Y-68486703D01*
X126239799Y-68493175D01*
X126006977Y-68725997D01*
X125313993Y-69418980D01*
X125252670Y-69452465D01*
X125215506Y-69454827D01*
X125100004Y-69444723D01*
X125099998Y-69444723D01*
X124972140Y-69455909D01*
X124882023Y-69463793D01*
X124882020Y-69463793D01*
X124670677Y-69520422D01*
X124670668Y-69520426D01*
X124472361Y-69612898D01*
X124472357Y-69612900D01*
X124293121Y-69738402D01*
X124138402Y-69893121D01*
X124012900Y-70072357D01*
X124012898Y-70072361D01*
X123920426Y-70270668D01*
X123920422Y-70270677D01*
X123863794Y-70482017D01*
X123863792Y-70482027D01*
X123856308Y-70567567D01*
X123854398Y-70580948D01*
X123845499Y-70625688D01*
X123845499Y-70685717D01*
X123845027Y-70696524D01*
X123844723Y-70699998D01*
X123844723Y-70699999D01*
X123845027Y-70703474D01*
X123845499Y-70714283D01*
X123845499Y-70774313D01*
X123854398Y-70819048D01*
X123856309Y-70832434D01*
X123863792Y-70917971D01*
X123863794Y-70917982D01*
X123920422Y-71129322D01*
X123920424Y-71129326D01*
X123920425Y-71129330D01*
X123947128Y-71186594D01*
X124012897Y-71327638D01*
X124012898Y-71327639D01*
X124138402Y-71506877D01*
X124293123Y-71661598D01*
X124472361Y-71787102D01*
X124670670Y-71879575D01*
X124882023Y-71936207D01*
X125064926Y-71952208D01*
X125099998Y-71955277D01*
X125100000Y-71955277D01*
X125100002Y-71955277D01*
X125128254Y-71952805D01*
X125317977Y-71936207D01*
X125529330Y-71879575D01*
X125727639Y-71787102D01*
X125906877Y-71661598D01*
X126061598Y-71506877D01*
X126187102Y-71327639D01*
X126279575Y-71129330D01*
X126336207Y-70917977D01*
X126352805Y-70728254D01*
X126355277Y-70700002D01*
X126355277Y-70699999D01*
X126352117Y-70663886D01*
X126345171Y-70584492D01*
X126358937Y-70515994D01*
X126381015Y-70486008D01*
X127576205Y-69290819D01*
X127637528Y-69257334D01*
X127663886Y-69254500D01*
X127879113Y-69254500D01*
X127946152Y-69274185D01*
X127991907Y-69326989D01*
X128001851Y-69396147D01*
X127972826Y-69459703D01*
X127966794Y-69466181D01*
X127613943Y-69819030D01*
X127613942Y-69819031D01*
X127531372Y-69942607D01*
X127531368Y-69942614D01*
X127507401Y-70000478D01*
X127474496Y-70079916D01*
X127474493Y-70079926D01*
X127469716Y-70103944D01*
X127445499Y-70225685D01*
X127445499Y-70380425D01*
X127445500Y-70380446D01*
X127445500Y-72116112D01*
X127425815Y-72183151D01*
X127409181Y-72203793D01*
X125313993Y-74298980D01*
X125252670Y-74332465D01*
X125215506Y-74334827D01*
X125100004Y-74324723D01*
X125099998Y-74324723D01*
X124954682Y-74337436D01*
X124882023Y-74343793D01*
X124882020Y-74343793D01*
X124670677Y-74400422D01*
X124670668Y-74400426D01*
X124472361Y-74492898D01*
X124472357Y-74492900D01*
X124293121Y-74618402D01*
X124138402Y-74773121D01*
X124012900Y-74952357D01*
X124012898Y-74952361D01*
X123920426Y-75150668D01*
X123920422Y-75150677D01*
X123863793Y-75362020D01*
X123863793Y-75362024D01*
X123846853Y-75555659D01*
X123844723Y-75580000D01*
X123862435Y-75782460D01*
X123863793Y-75797975D01*
X123863793Y-75797979D01*
X123920422Y-76009322D01*
X123920424Y-76009326D01*
X123920425Y-76009330D01*
X123966661Y-76108484D01*
X124012897Y-76207638D01*
X124012898Y-76207639D01*
X124138402Y-76386877D01*
X124293123Y-76541598D01*
X124472361Y-76667102D01*
X124670670Y-76759575D01*
X124882023Y-76816207D01*
X125064926Y-76832208D01*
X125099998Y-76835277D01*
X125100000Y-76835277D01*
X125100002Y-76835277D01*
X125128254Y-76832805D01*
X125317977Y-76816207D01*
X125529330Y-76759575D01*
X125727639Y-76667102D01*
X125906877Y-76541598D01*
X126061598Y-76386877D01*
X126187102Y-76207639D01*
X126279575Y-76009330D01*
X126336207Y-75797977D01*
X126355277Y-75580000D01*
X126345171Y-75464492D01*
X126358937Y-75395994D01*
X126381015Y-75366008D01*
X128657458Y-73089566D01*
X128718779Y-73056083D01*
X128788471Y-73061067D01*
X128844404Y-73102939D01*
X128861316Y-73133911D01*
X128909249Y-73262423D01*
X128935633Y-73333162D01*
X128935635Y-73333166D01*
X129072770Y-73584309D01*
X129072775Y-73584317D01*
X129244254Y-73813387D01*
X129244270Y-73813405D01*
X129446594Y-74015729D01*
X129446612Y-74015745D01*
X129675682Y-74187224D01*
X129675690Y-74187229D01*
X129926833Y-74324364D01*
X129926832Y-74324364D01*
X129926836Y-74324365D01*
X129926839Y-74324367D01*
X130194954Y-74424369D01*
X130194960Y-74424370D01*
X130194962Y-74424371D01*
X130474566Y-74485195D01*
X130474568Y-74485195D01*
X130474572Y-74485196D01*
X130738691Y-74504086D01*
X130804153Y-74528502D01*
X130846025Y-74584435D01*
X130851009Y-74654127D01*
X130817525Y-74715450D01*
X130817524Y-74715450D01*
X128757292Y-76775681D01*
X128695969Y-76809166D01*
X128669612Y-76812000D01*
X128513331Y-76812000D01*
X128513312Y-76812001D01*
X128412247Y-76822325D01*
X128248484Y-76876592D01*
X128248481Y-76876593D01*
X128101648Y-76967161D01*
X127979661Y-77089148D01*
X127889093Y-77235981D01*
X127889092Y-77235984D01*
X127834826Y-77399747D01*
X127834826Y-77399748D01*
X127834825Y-77399748D01*
X127824500Y-77500815D01*
X127824500Y-78099169D01*
X127824501Y-78099187D01*
X127834825Y-78200252D01*
X127889092Y-78364015D01*
X127889093Y-78364018D01*
X127979661Y-78510851D01*
X128093629Y-78624819D01*
X128127114Y-78686142D01*
X128122130Y-78755834D01*
X128093629Y-78800181D01*
X128059629Y-78834181D01*
X127998306Y-78867666D01*
X127971948Y-78870500D01*
X126555446Y-78870500D01*
X126555426Y-78870499D01*
X126549312Y-78870499D01*
X126400688Y-78870499D01*
X126400686Y-78870499D01*
X126279105Y-78894684D01*
X126254920Y-78899495D01*
X126219540Y-78914150D01*
X126219539Y-78914150D01*
X126117613Y-78956368D01*
X126117611Y-78956370D01*
X125994033Y-79038941D01*
X125941487Y-79091487D01*
X125888941Y-79144034D01*
X125888939Y-79144036D01*
X124063943Y-80969030D01*
X124063942Y-80969031D01*
X123981369Y-81092612D01*
X123981367Y-81092615D01*
X123972250Y-81114629D01*
X123972249Y-81114632D01*
X123928251Y-81220853D01*
X123924495Y-81229920D01*
X123923581Y-81234518D01*
X123921397Y-81245497D01*
X123921396Y-81245500D01*
X123895499Y-81375685D01*
X123895499Y-81530425D01*
X123895500Y-81530446D01*
X123895500Y-81743941D01*
X123890576Y-81778536D01*
X123852402Y-81909926D01*
X123852401Y-81909932D01*
X123849500Y-81946798D01*
X123849500Y-83113000D01*
X123829815Y-83180039D01*
X123777011Y-83225794D01*
X123725500Y-83237000D01*
X123674000Y-83237000D01*
X123606961Y-83217315D01*
X123561206Y-83164511D01*
X123550000Y-83113000D01*
X123550000Y-82850000D01*
X123000000Y-82850000D01*
X123000000Y-83505684D01*
X122982733Y-83568804D01*
X122948254Y-83627105D01*
X122948254Y-83627106D01*
X122902402Y-83784926D01*
X122902401Y-83784932D01*
X122899500Y-83821798D01*
X122899500Y-85128201D01*
X122902401Y-85165067D01*
X122902402Y-85165070D01*
X122908209Y-85185057D01*
X122940576Y-85296464D01*
X122945500Y-85331057D01*
X122945500Y-86711459D01*
X122938542Y-86752414D01*
X122914631Y-86820745D01*
X122914630Y-86820750D01*
X122894435Y-86999996D01*
X122894435Y-87000003D01*
X122914630Y-87179249D01*
X122914631Y-87179254D01*
X122974211Y-87349523D01*
X123012525Y-87410499D01*
X123070184Y-87502262D01*
X123197738Y-87629816D01*
X123350478Y-87725789D01*
X123413662Y-87747898D01*
X123520745Y-87785368D01*
X123520750Y-87785369D01*
X123699996Y-87805565D01*
X123700000Y-87805565D01*
X123700004Y-87805565D01*
X123879249Y-87785369D01*
X123879252Y-87785368D01*
X123879255Y-87785368D01*
X124049522Y-87725789D01*
X124202262Y-87629816D01*
X124329816Y-87502262D01*
X124425789Y-87349522D01*
X124485368Y-87179255D01*
X124488402Y-87152328D01*
X124505565Y-87000003D01*
X124505565Y-86999996D01*
X124485369Y-86820750D01*
X124485368Y-86820745D01*
X124461458Y-86752414D01*
X124454500Y-86711459D01*
X124454500Y-85331057D01*
X124459423Y-85296464D01*
X124497598Y-85165069D01*
X124500500Y-85128194D01*
X124500500Y-83962000D01*
X124520185Y-83894961D01*
X124572989Y-83849206D01*
X124624500Y-83838000D01*
X124865686Y-83838000D01*
X124865694Y-83838000D01*
X124902569Y-83835098D01*
X124902571Y-83835097D01*
X124902573Y-83835097D01*
X124948347Y-83821798D01*
X125060398Y-83789244D01*
X125201865Y-83705581D01*
X125318081Y-83589365D01*
X125401744Y-83447898D01*
X125447598Y-83290069D01*
X125450500Y-83253194D01*
X125450500Y-83253149D01*
X125700000Y-83253149D01*
X125702899Y-83289989D01*
X125702900Y-83289995D01*
X125748716Y-83447693D01*
X125748717Y-83447696D01*
X125832314Y-83589052D01*
X125832321Y-83589061D01*
X125948438Y-83705178D01*
X125948447Y-83705185D01*
X126089801Y-83788781D01*
X126247514Y-83834600D01*
X126247511Y-83834600D01*
X126249998Y-83834795D01*
X126250000Y-83834795D01*
X126250000Y-82850000D01*
X125700000Y-82850000D01*
X125700000Y-83253149D01*
X125450500Y-83253149D01*
X125450500Y-81946806D01*
X125447598Y-81909931D01*
X125425170Y-81832735D01*
X125425369Y-81762865D01*
X125456562Y-81710460D01*
X125543995Y-81623027D01*
X125605314Y-81589545D01*
X125675006Y-81594529D01*
X125730940Y-81636400D01*
X125755357Y-81701864D01*
X125750750Y-81745305D01*
X125702899Y-81910010D01*
X125700000Y-81946850D01*
X125700000Y-82350000D01*
X126250000Y-82350000D01*
X126750000Y-82350000D01*
X127300000Y-82350000D01*
X127300000Y-81946865D01*
X127299999Y-81946850D01*
X127297100Y-81910010D01*
X127297099Y-81910004D01*
X127251283Y-81752306D01*
X127251282Y-81752303D01*
X127167685Y-81610947D01*
X127167678Y-81610938D01*
X127051561Y-81494821D01*
X127051552Y-81494814D01*
X126910196Y-81411217D01*
X126910193Y-81411216D01*
X126752494Y-81365400D01*
X126752497Y-81365400D01*
X126750000Y-81365203D01*
X126750000Y-82350000D01*
X126250000Y-82350000D01*
X126250000Y-81365203D01*
X126247507Y-81365400D01*
X126082805Y-81413250D01*
X126012936Y-81413050D01*
X125954266Y-81375107D01*
X125925423Y-81311469D01*
X125935564Y-81242339D01*
X125960526Y-81206496D01*
X126751205Y-80415819D01*
X126812528Y-80382334D01*
X126838886Y-80379500D01*
X127971948Y-80379500D01*
X128038987Y-80399185D01*
X128059629Y-80415819D01*
X128101650Y-80457840D01*
X128248484Y-80548408D01*
X128412247Y-80602674D01*
X128441222Y-80605634D01*
X128505914Y-80632030D01*
X128546065Y-80689210D01*
X128548929Y-80759021D01*
X128516301Y-80816673D01*
X127813943Y-81519031D01*
X127813936Y-81519040D01*
X127801435Y-81537748D01*
X127786019Y-81556532D01*
X127731923Y-81610630D01*
X127731915Y-81610640D01*
X127648255Y-81752103D01*
X127648254Y-81752106D01*
X127602402Y-81909926D01*
X127602401Y-81909932D01*
X127599500Y-81946798D01*
X127599500Y-83113000D01*
X127579815Y-83180039D01*
X127527011Y-83225794D01*
X127475500Y-83237000D01*
X127424000Y-83237000D01*
X127356961Y-83217315D01*
X127311206Y-83164511D01*
X127300000Y-83113000D01*
X127300000Y-82850000D01*
X126750000Y-82850000D01*
X126750000Y-83505684D01*
X126732733Y-83568804D01*
X126698254Y-83627105D01*
X126698254Y-83627106D01*
X126652402Y-83784926D01*
X126652401Y-83784932D01*
X126649500Y-83821798D01*
X126649500Y-85128201D01*
X126652401Y-85165067D01*
X126652402Y-85165070D01*
X126658209Y-85185057D01*
X126690576Y-85296464D01*
X126695500Y-85331057D01*
X126695500Y-86586113D01*
X126675815Y-86653152D01*
X126659181Y-86673794D01*
X121712181Y-91620794D01*
X121650858Y-91654279D01*
X121581166Y-91649295D01*
X121525233Y-91607423D01*
X121500816Y-91541959D01*
X121500500Y-91533113D01*
X121500500Y-83253149D01*
X121950000Y-83253149D01*
X121952899Y-83289989D01*
X121952900Y-83289995D01*
X121998716Y-83447693D01*
X121998717Y-83447696D01*
X122082314Y-83589052D01*
X122082321Y-83589061D01*
X122198438Y-83705178D01*
X122198447Y-83705185D01*
X122339801Y-83788781D01*
X122497514Y-83834600D01*
X122497511Y-83834600D01*
X122499998Y-83834795D01*
X122500000Y-83834795D01*
X122500000Y-82850000D01*
X121950000Y-82850000D01*
X121950000Y-83253149D01*
X121500500Y-83253149D01*
X121500500Y-81946850D01*
X121950000Y-81946850D01*
X121950000Y-82350000D01*
X122500000Y-82350000D01*
X123000000Y-82350000D01*
X123550000Y-82350000D01*
X123550000Y-81946865D01*
X123549999Y-81946850D01*
X123547100Y-81910010D01*
X123547099Y-81910004D01*
X123501283Y-81752306D01*
X123501282Y-81752303D01*
X123417685Y-81610947D01*
X123417678Y-81610938D01*
X123301561Y-81494821D01*
X123301552Y-81494814D01*
X123160196Y-81411217D01*
X123160193Y-81411216D01*
X123002494Y-81365400D01*
X123002497Y-81365400D01*
X123000000Y-81365203D01*
X123000000Y-82350000D01*
X122500000Y-82350000D01*
X122500000Y-81365203D01*
X122497503Y-81365400D01*
X122339806Y-81411216D01*
X122339803Y-81411217D01*
X122198447Y-81494814D01*
X122198438Y-81494821D01*
X122082321Y-81610938D01*
X122082314Y-81610947D01*
X121998717Y-81752303D01*
X121998716Y-81752306D01*
X121952900Y-81910004D01*
X121952899Y-81910010D01*
X121950000Y-81946850D01*
X121500500Y-81946850D01*
X121500500Y-56624000D01*
X121520185Y-56556961D01*
X121572989Y-56511206D01*
X121624500Y-56500000D01*
X127554967Y-56500000D01*
X127622006Y-56519685D01*
G37*
%TD.AperFunction*%
%TA.AperFunction,Conductor*%
G36*
X131314834Y-80423870D02*
G01*
X131370767Y-80465742D01*
X131395184Y-80531206D01*
X131395500Y-80540052D01*
X131395500Y-81743941D01*
X131390576Y-81778536D01*
X131352402Y-81909926D01*
X131352401Y-81909932D01*
X131349500Y-81946798D01*
X131349500Y-83113000D01*
X131329815Y-83180039D01*
X131277011Y-83225794D01*
X131225500Y-83237000D01*
X131174000Y-83237000D01*
X131106961Y-83217315D01*
X131061206Y-83164511D01*
X131050000Y-83113000D01*
X131050000Y-82850000D01*
X129450000Y-82850000D01*
X129450000Y-83253149D01*
X129452899Y-83289989D01*
X129452900Y-83289995D01*
X129498716Y-83447693D01*
X129498717Y-83447696D01*
X129582314Y-83589052D01*
X129582321Y-83589061D01*
X129698438Y-83705178D01*
X129698447Y-83705185D01*
X129839802Y-83788781D01*
X129987189Y-83831601D01*
X130046075Y-83869208D01*
X130075282Y-83932680D01*
X130065536Y-84001867D01*
X130021486Y-84053780D01*
X129894034Y-84138940D01*
X129894030Y-84138943D01*
X128416181Y-85616793D01*
X128354858Y-85650278D01*
X128285166Y-85645294D01*
X128229233Y-85603422D01*
X128204816Y-85537958D01*
X128204500Y-85529112D01*
X128204500Y-85331057D01*
X128209423Y-85296464D01*
X128247598Y-85165069D01*
X128250500Y-85128194D01*
X128250500Y-83962000D01*
X128270185Y-83894961D01*
X128322989Y-83849206D01*
X128374500Y-83838000D01*
X128615686Y-83838000D01*
X128615694Y-83838000D01*
X128652569Y-83835098D01*
X128652571Y-83835097D01*
X128652573Y-83835097D01*
X128698347Y-83821798D01*
X128810398Y-83789244D01*
X128951865Y-83705581D01*
X129068081Y-83589365D01*
X129151744Y-83447898D01*
X129197598Y-83290069D01*
X129200500Y-83253194D01*
X129200500Y-82317885D01*
X129220185Y-82250846D01*
X129236814Y-82230209D01*
X129238321Y-82228702D01*
X129299642Y-82195219D01*
X129369334Y-82200203D01*
X129425267Y-82242075D01*
X129449684Y-82307539D01*
X129450000Y-82316385D01*
X129450000Y-82350000D01*
X131050000Y-82350000D01*
X131050000Y-81946865D01*
X131049999Y-81946850D01*
X131047100Y-81910010D01*
X131047099Y-81910004D01*
X131001283Y-81752306D01*
X131001282Y-81752303D01*
X130917685Y-81610947D01*
X130917678Y-81610938D01*
X130801561Y-81494821D01*
X130801552Y-81494814D01*
X130660196Y-81411217D01*
X130660193Y-81411216D01*
X130502495Y-81365400D01*
X130502489Y-81365399D01*
X130465649Y-81362500D01*
X130403885Y-81362500D01*
X130336846Y-81342815D01*
X130291091Y-81290011D01*
X130281147Y-81220853D01*
X130310172Y-81157297D01*
X130316204Y-81150819D01*
X130497993Y-80969030D01*
X130841883Y-80625139D01*
X130890554Y-80595118D01*
X131031516Y-80548408D01*
X131178350Y-80457840D01*
X131183819Y-80452371D01*
X131245142Y-80418886D01*
X131314834Y-80423870D01*
G37*
%TD.AperFunction*%
%TA.AperFunction,Conductor*%
G36*
X145900000Y-62600000D02*
G01*
X149200000Y-62500000D01*
X149300000Y-62600000D01*
X149963681Y-63263681D01*
X149997166Y-63325004D01*
X150000000Y-63351362D01*
X150000000Y-65200000D01*
X150665117Y-65865117D01*
X150698602Y-65926440D01*
X150701387Y-65949311D01*
X150757647Y-67949412D01*
X152056698Y-69062884D01*
X152094788Y-69121458D01*
X152100000Y-69157032D01*
X152100000Y-82074548D01*
X152089974Y-82123394D01*
X151832209Y-82724846D01*
X151787708Y-82778711D01*
X151721150Y-82799966D01*
X151718235Y-82800000D01*
X149755500Y-82800000D01*
X149688461Y-82780315D01*
X149642706Y-82727511D01*
X149631500Y-82676000D01*
X149631500Y-81966492D01*
X149651185Y-81899453D01*
X149667819Y-81878811D01*
X151284704Y-80261926D01*
X151284706Y-80261924D01*
X151381175Y-80117547D01*
X151447624Y-79957124D01*
X151466349Y-79862987D01*
X151481500Y-79786823D01*
X151481500Y-76113177D01*
X151447625Y-75942881D01*
X151447624Y-75942880D01*
X151447624Y-75942876D01*
X151381175Y-75782453D01*
X151375735Y-75774312D01*
X151375733Y-75774310D01*
X151375733Y-75774308D01*
X151284707Y-75638077D01*
X151284701Y-75638070D01*
X149517819Y-73871188D01*
X149484334Y-73809865D01*
X149481500Y-73783507D01*
X149481500Y-66713177D01*
X149447625Y-66542881D01*
X149447624Y-66542880D01*
X149447624Y-66542876D01*
X149447622Y-66542871D01*
X149381178Y-66382459D01*
X149381171Y-66382446D01*
X149284706Y-66238077D01*
X149284703Y-66238073D01*
X149161926Y-66115296D01*
X149161922Y-66115293D01*
X149017553Y-66018828D01*
X149017540Y-66018821D01*
X148857128Y-65952377D01*
X148857118Y-65952374D01*
X148686822Y-65918500D01*
X148686820Y-65918500D01*
X148513180Y-65918500D01*
X148513178Y-65918500D01*
X148342881Y-65952374D01*
X148342871Y-65952377D01*
X148182459Y-66018821D01*
X148182446Y-66018828D01*
X148038077Y-66115293D01*
X148038073Y-66115296D01*
X147915296Y-66238073D01*
X147915293Y-66238077D01*
X147818828Y-66382446D01*
X147818821Y-66382459D01*
X147752377Y-66542871D01*
X147752374Y-66542881D01*
X147718500Y-66713177D01*
X147718500Y-66713180D01*
X147718500Y-68513180D01*
X147718500Y-74113179D01*
X147718500Y-74286821D01*
X147718500Y-74286823D01*
X147718499Y-74286823D01*
X147752374Y-74457118D01*
X147752377Y-74457128D01*
X147818822Y-74617543D01*
X147915295Y-74761926D01*
X147915296Y-74761927D01*
X149682181Y-76528811D01*
X149715666Y-76590134D01*
X149718500Y-76616492D01*
X149718500Y-77465500D01*
X149698815Y-77532539D01*
X149646011Y-77578294D01*
X149594500Y-77589500D01*
X147452129Y-77589500D01*
X147452123Y-77589501D01*
X147391753Y-77595991D01*
X147322994Y-77583584D01*
X147271857Y-77535973D01*
X147254500Y-77472701D01*
X147254500Y-65580446D01*
X147254501Y-65580425D01*
X147254501Y-65425685D01*
X147225506Y-65279927D01*
X147225505Y-65279921D01*
X147223673Y-65275499D01*
X147222903Y-65273641D01*
X147193320Y-65202218D01*
X147173594Y-65154595D01*
X147168630Y-65142611D01*
X147086059Y-65019034D01*
X147086057Y-65019031D01*
X147086056Y-65019030D01*
X144533026Y-62466001D01*
X144499541Y-62404678D01*
X144504525Y-62334986D01*
X144546397Y-62279053D01*
X144609897Y-62254793D01*
X144835408Y-62235063D01*
X145063663Y-62173903D01*
X145277830Y-62074035D01*
X145471401Y-61938495D01*
X145638495Y-61771401D01*
X145774035Y-61577830D01*
X145873903Y-61363663D01*
X145900000Y-61266266D01*
X145900000Y-62600000D01*
G37*
%TD.AperFunction*%
%TA.AperFunction,Conductor*%
G36*
X134117514Y-63544089D02*
G01*
X134117517Y-63544091D01*
X134177127Y-63550500D01*
X134822872Y-63550499D01*
X134882483Y-63544091D01*
X134882486Y-63544089D01*
X134886744Y-63543632D01*
X134913254Y-63543632D01*
X134917514Y-63544089D01*
X134917517Y-63544091D01*
X134977127Y-63550500D01*
X135622872Y-63550499D01*
X135682483Y-63544091D01*
X135682486Y-63544089D01*
X135686744Y-63543632D01*
X135713254Y-63543632D01*
X135717514Y-63544089D01*
X135717517Y-63544091D01*
X135777127Y-63550500D01*
X136422872Y-63550499D01*
X136482483Y-63544091D01*
X136482486Y-63544089D01*
X136486744Y-63543632D01*
X136513254Y-63543632D01*
X136517514Y-63544089D01*
X136517517Y-63544091D01*
X136577127Y-63550500D01*
X137222872Y-63550499D01*
X137282483Y-63544091D01*
X137282486Y-63544089D01*
X137286744Y-63543632D01*
X137313254Y-63543632D01*
X137317514Y-63544089D01*
X137317517Y-63544091D01*
X137377127Y-63550500D01*
X138022872Y-63550499D01*
X138082483Y-63544091D01*
X138082486Y-63544089D01*
X138086744Y-63543632D01*
X138113254Y-63543632D01*
X138117514Y-63544089D01*
X138117517Y-63544091D01*
X138177127Y-63550500D01*
X138822872Y-63550499D01*
X138882483Y-63544091D01*
X138882486Y-63544089D01*
X138886744Y-63543632D01*
X138913254Y-63543632D01*
X138917514Y-63544089D01*
X138917517Y-63544091D01*
X138977127Y-63550500D01*
X139325500Y-63550499D01*
X139392539Y-63570183D01*
X139438294Y-63622987D01*
X139449500Y-63674499D01*
X139449500Y-64022869D01*
X139449501Y-64022879D01*
X139456367Y-64086751D01*
X139456367Y-64113257D01*
X139455909Y-64117516D01*
X139455909Y-64117517D01*
X139449500Y-64177127D01*
X139449500Y-64177129D01*
X139449500Y-64177133D01*
X139449500Y-64822870D01*
X139449501Y-64822879D01*
X139456367Y-64886751D01*
X139456367Y-64913257D01*
X139455909Y-64917516D01*
X139455909Y-64917517D01*
X139449500Y-64977127D01*
X139449500Y-64977132D01*
X139449500Y-64977133D01*
X139449500Y-65622870D01*
X139449501Y-65622876D01*
X139456619Y-65689092D01*
X139456619Y-65715599D01*
X139450000Y-65777169D01*
X139450000Y-65850000D01*
X139468591Y-65850000D01*
X139535630Y-65869685D01*
X139567855Y-65899686D01*
X139592454Y-65932546D01*
X139592455Y-65932546D01*
X139592456Y-65932548D01*
X139683540Y-66000734D01*
X139725411Y-66056668D01*
X139730395Y-66126359D01*
X139696909Y-66187682D01*
X139683540Y-66199266D01*
X139592456Y-66267451D01*
X139592454Y-66267454D01*
X139567856Y-66300312D01*
X139511924Y-66342182D01*
X139468591Y-66350000D01*
X139450000Y-66350000D01*
X139450000Y-66422844D01*
X139456619Y-66484398D01*
X139456620Y-66510909D01*
X139455909Y-66517514D01*
X139455909Y-66517517D01*
X139449500Y-66577127D01*
X139449500Y-66577135D01*
X139449500Y-66772523D01*
X139429815Y-66839562D01*
X139377011Y-66885317D01*
X139311620Y-66895744D01*
X139304024Y-66894888D01*
X139300000Y-66894435D01*
X139299999Y-66894435D01*
X139299996Y-66894435D01*
X139120750Y-66914630D01*
X139120745Y-66914631D01*
X138950476Y-66974211D01*
X138797737Y-67070184D01*
X138670184Y-67197737D01*
X138570507Y-67356373D01*
X138569705Y-67355869D01*
X138551615Y-67381359D01*
X137913943Y-68019030D01*
X137913942Y-68019031D01*
X137831369Y-68142611D01*
X137820963Y-68167734D01*
X137814867Y-68182453D01*
X137814867Y-68182454D01*
X137781051Y-68264093D01*
X137781050Y-68264095D01*
X137774496Y-68279915D01*
X137774493Y-68279925D01*
X137745499Y-68425685D01*
X137745499Y-68580425D01*
X137745500Y-68580446D01*
X137745500Y-69325500D01*
X137725815Y-69392539D01*
X137673011Y-69438294D01*
X137621501Y-69449500D01*
X137377130Y-69449500D01*
X137377120Y-69449501D01*
X137313248Y-69456367D01*
X137286742Y-69456367D01*
X137282483Y-69455909D01*
X137222873Y-69449500D01*
X137222864Y-69449500D01*
X136577129Y-69449500D01*
X136577120Y-69449501D01*
X136513248Y-69456367D01*
X136486742Y-69456367D01*
X136482483Y-69455909D01*
X136422873Y-69449500D01*
X136422864Y-69449500D01*
X135777129Y-69449500D01*
X135777120Y-69449501D01*
X135713248Y-69456367D01*
X135686742Y-69456367D01*
X135682483Y-69455909D01*
X135622873Y-69449500D01*
X135622864Y-69449500D01*
X134977129Y-69449500D01*
X134977120Y-69449501D01*
X134913248Y-69456367D01*
X134886742Y-69456367D01*
X134882483Y-69455909D01*
X134822873Y-69449500D01*
X134822864Y-69449500D01*
X134177129Y-69449500D01*
X134177120Y-69449501D01*
X134113248Y-69456367D01*
X134086742Y-69456367D01*
X134082483Y-69455909D01*
X134022873Y-69449500D01*
X134022867Y-69449500D01*
X133674499Y-69449500D01*
X133607460Y-69429815D01*
X133561705Y-69377011D01*
X133550499Y-69325500D01*
X133550499Y-68977129D01*
X133550499Y-68977128D01*
X133544091Y-68917517D01*
X133544089Y-68917513D01*
X133543632Y-68913255D01*
X133543632Y-68886745D01*
X133544089Y-68882486D01*
X133544091Y-68882483D01*
X133550500Y-68822873D01*
X133550499Y-68177128D01*
X133544091Y-68117517D01*
X133544089Y-68117513D01*
X133543632Y-68113255D01*
X133543632Y-68086745D01*
X133544089Y-68082486D01*
X133544091Y-68082483D01*
X133550500Y-68022873D01*
X133550499Y-67377128D01*
X133544091Y-67317517D01*
X133544090Y-67317516D01*
X133543380Y-67310904D01*
X133543381Y-67284393D01*
X133549999Y-67222842D01*
X133550000Y-67222827D01*
X133550000Y-67150000D01*
X133531409Y-67150000D01*
X133464370Y-67130315D01*
X133432144Y-67100313D01*
X133407546Y-67067454D01*
X133316457Y-66999265D01*
X133274588Y-66943333D01*
X133269604Y-66873641D01*
X133303089Y-66812318D01*
X133316452Y-66800738D01*
X133407546Y-66732546D01*
X133432143Y-66699687D01*
X133488076Y-66657818D01*
X133531409Y-66650000D01*
X133550000Y-66650000D01*
X133550000Y-66577172D01*
X133549999Y-66577160D01*
X133543380Y-66515604D01*
X133543380Y-66489090D01*
X133544090Y-66482485D01*
X133544091Y-66482483D01*
X133550500Y-66422873D01*
X133550499Y-65777128D01*
X133544091Y-65717517D01*
X133544090Y-65717516D01*
X133543380Y-65710904D01*
X133543381Y-65684393D01*
X133549999Y-65622842D01*
X133550000Y-65622827D01*
X133550000Y-65550000D01*
X133531409Y-65550000D01*
X133464370Y-65530315D01*
X133432144Y-65500313D01*
X133407546Y-65467454D01*
X133316457Y-65399265D01*
X133274588Y-65343333D01*
X133269604Y-65273641D01*
X133303089Y-65212318D01*
X133316452Y-65200738D01*
X133407546Y-65132546D01*
X133432143Y-65099687D01*
X133488076Y-65057818D01*
X133531409Y-65050000D01*
X133550000Y-65050000D01*
X133550000Y-64977172D01*
X133549999Y-64977160D01*
X133543380Y-64915604D01*
X133543380Y-64889090D01*
X133544090Y-64882485D01*
X133544091Y-64882483D01*
X133550500Y-64822873D01*
X133550499Y-64177128D01*
X133544091Y-64117517D01*
X133544089Y-64117513D01*
X133543632Y-64113255D01*
X133543632Y-64086745D01*
X133544089Y-64082486D01*
X133544091Y-64082483D01*
X133550500Y-64022873D01*
X133550499Y-63674498D01*
X133570183Y-63607460D01*
X133622987Y-63561705D01*
X133674499Y-63550499D01*
X134022871Y-63550499D01*
X134022872Y-63550499D01*
X134082483Y-63544091D01*
X134082486Y-63544089D01*
X134086744Y-63543632D01*
X134113254Y-63543632D01*
X134117514Y-63544089D01*
G37*
%TD.AperFunction*%
%TA.AperFunction,Conductor*%
G36*
X143689355Y-66202783D02*
G01*
X143734695Y-66255945D01*
X143745500Y-66306570D01*
X143745500Y-66692240D01*
X143725815Y-66759279D01*
X143673011Y-66805034D01*
X143603853Y-66814978D01*
X143540297Y-66785953D01*
X143516033Y-66753808D01*
X143514699Y-66754631D01*
X143510908Y-66748485D01*
X143510908Y-66748484D01*
X143420340Y-66601650D01*
X143406017Y-66587327D01*
X143372532Y-66526004D01*
X143377516Y-66456312D01*
X143406021Y-66411960D01*
X143419947Y-66398035D01*
X143514245Y-66245156D01*
X143516065Y-66246278D01*
X143555281Y-66201732D01*
X143622472Y-66182574D01*
X143689355Y-66202783D01*
G37*
%TD.AperFunction*%
%TA.AperFunction,Conductor*%
G36*
X134203152Y-59974185D02*
G01*
X134223794Y-59990819D01*
X134675582Y-60442607D01*
X134977251Y-60744275D01*
X135010736Y-60805598D01*
X135005752Y-60875289D01*
X134963880Y-60931223D01*
X134898416Y-60955640D01*
X134876316Y-60955246D01*
X134822873Y-60949500D01*
X134822865Y-60949500D01*
X134177129Y-60949500D01*
X134177120Y-60949501D01*
X134113248Y-60956367D01*
X134086742Y-60956367D01*
X134082483Y-60955909D01*
X134022873Y-60949500D01*
X134022864Y-60949500D01*
X133377129Y-60949500D01*
X133377123Y-60949501D01*
X133317516Y-60955908D01*
X133182671Y-61006202D01*
X133182664Y-61006206D01*
X133067455Y-61092452D01*
X133067452Y-61092455D01*
X132981205Y-61207665D01*
X132981204Y-61207667D01*
X132972644Y-61230617D01*
X132930771Y-61286549D01*
X132865306Y-61310963D01*
X132842581Y-61310499D01*
X132700004Y-61294435D01*
X132699996Y-61294435D01*
X132520750Y-61314630D01*
X132520745Y-61314631D01*
X132350476Y-61374211D01*
X132197737Y-61470184D01*
X132070184Y-61597737D01*
X131974211Y-61750476D01*
X131914631Y-61920745D01*
X131914630Y-61920750D01*
X131894435Y-62099996D01*
X131894435Y-62100003D01*
X131914630Y-62279249D01*
X131914631Y-62279254D01*
X131974211Y-62449523D01*
X132070184Y-62602262D01*
X132180741Y-62712819D01*
X132214226Y-62774142D01*
X132209242Y-62843834D01*
X132167370Y-62899767D01*
X132101906Y-62924184D01*
X132093060Y-62924500D01*
X131402129Y-62924500D01*
X131402123Y-62924501D01*
X131342516Y-62930908D01*
X131207671Y-62981202D01*
X131207664Y-62981206D01*
X131092455Y-63067452D01*
X131092452Y-63067455D01*
X131006206Y-63182664D01*
X131006202Y-63182671D01*
X130955910Y-63317513D01*
X130955909Y-63317517D01*
X130949500Y-63377127D01*
X130949500Y-63377134D01*
X130949500Y-63377135D01*
X130949500Y-64022870D01*
X130949501Y-64022879D01*
X130956367Y-64086751D01*
X130956367Y-64113257D01*
X130955909Y-64117516D01*
X130955909Y-64117517D01*
X130949500Y-64177127D01*
X130949500Y-64177129D01*
X130949500Y-64177133D01*
X130949500Y-64822870D01*
X130949501Y-64822876D01*
X130956619Y-64889092D01*
X130956619Y-64915599D01*
X130950000Y-64977169D01*
X130950000Y-65161012D01*
X130930315Y-65228051D01*
X130877511Y-65273806D01*
X130866958Y-65278052D01*
X130848418Y-65284540D01*
X130807460Y-65291500D01*
X130668128Y-65291500D01*
X130668108Y-65291499D01*
X130661994Y-65291499D01*
X130513370Y-65291499D01*
X130513369Y-65291499D01*
X130456960Y-65302720D01*
X130400551Y-65313941D01*
X130380708Y-65317888D01*
X130367600Y-65320495D01*
X130367598Y-65320496D01*
X130342460Y-65330909D01*
X130342459Y-65330909D01*
X130230295Y-65377367D01*
X130230293Y-65377370D01*
X130106715Y-65459941D01*
X130066346Y-65500311D01*
X130001623Y-65565034D01*
X130001621Y-65565036D01*
X129213943Y-66352712D01*
X129213940Y-66352716D01*
X129139990Y-66463391D01*
X129086378Y-66508196D01*
X129036888Y-66518500D01*
X128708364Y-66518500D01*
X128641325Y-66498815D01*
X128595570Y-66446011D01*
X128585626Y-66376853D01*
X128595982Y-66342096D01*
X128613900Y-66303669D01*
X128613903Y-66303663D01*
X128675063Y-66075408D01*
X128695659Y-65840000D01*
X128677477Y-65632186D01*
X128691243Y-65563688D01*
X128713321Y-65533702D01*
X129680963Y-64566060D01*
X129680966Y-64566059D01*
X129786059Y-64460966D01*
X129868629Y-64337390D01*
X129925505Y-64200080D01*
X129954500Y-64054312D01*
X129954500Y-61163885D01*
X129974185Y-61096846D01*
X129990815Y-61076208D01*
X130730205Y-60336817D01*
X130791528Y-60303333D01*
X130817886Y-60300499D01*
X131286670Y-60300499D01*
X131286676Y-60300499D01*
X131387753Y-60290174D01*
X131551516Y-60235908D01*
X131698350Y-60145340D01*
X131820340Y-60023350D01*
X131823996Y-60017423D01*
X131826476Y-60013403D01*
X131878424Y-59966678D01*
X131932014Y-59954500D01*
X134136113Y-59954500D01*
X134203152Y-59974185D01*
G37*
%TD.AperFunction*%
%TA.AperFunction,Conductor*%
G36*
X145900000Y-60533732D02*
G01*
X145873905Y-60436344D01*
X145873904Y-60436343D01*
X145873903Y-60436337D01*
X145774035Y-60222171D01*
X145720237Y-60145338D01*
X145638494Y-60028597D01*
X145621578Y-60011681D01*
X145588093Y-59950358D01*
X145593077Y-59880666D01*
X145634949Y-59824733D01*
X145700413Y-59800316D01*
X145709259Y-59800000D01*
X145900000Y-59800000D01*
X145900000Y-60533732D01*
G37*
%TD.AperFunction*%
%TA.AperFunction,Conductor*%
G36*
X132180701Y-57341825D02*
G01*
X132190362Y-57351159D01*
X132700000Y-57900000D01*
X135557454Y-57900000D01*
X135624493Y-57919685D01*
X135633581Y-57926118D01*
X136500000Y-58600000D01*
X141151517Y-58600000D01*
X141218556Y-58619685D01*
X141235622Y-58632883D01*
X141278312Y-58672288D01*
X141314222Y-58732223D01*
X141312028Y-58802059D01*
X141281888Y-58851086D01*
X141023794Y-59109181D01*
X140962471Y-59142666D01*
X140936113Y-59145500D01*
X137780446Y-59145500D01*
X137780426Y-59145499D01*
X137774312Y-59145499D01*
X137625688Y-59145499D01*
X137625686Y-59145499D01*
X137504105Y-59169684D01*
X137489540Y-59172581D01*
X137479918Y-59174495D01*
X137479917Y-59174495D01*
X137423045Y-59198052D01*
X137423045Y-59198053D01*
X137342611Y-59231370D01*
X137342609Y-59231371D01*
X137219033Y-59313941D01*
X137166487Y-59366487D01*
X137113941Y-59419034D01*
X137113939Y-59419036D01*
X136537680Y-59995294D01*
X136476357Y-60028779D01*
X136406665Y-60023795D01*
X136362318Y-59995294D01*
X134980969Y-58613943D01*
X134980968Y-58613942D01*
X134857392Y-58531372D01*
X134857391Y-58531371D01*
X134857389Y-58531370D01*
X134857387Y-58531369D01*
X134857385Y-58531368D01*
X134732549Y-58479660D01*
X134732547Y-58479659D01*
X134720081Y-58474495D01*
X134720082Y-58474495D01*
X134710460Y-58472581D01*
X134695894Y-58469684D01*
X134574314Y-58445499D01*
X134574312Y-58445499D01*
X134425688Y-58445499D01*
X134419574Y-58445499D01*
X134419554Y-58445500D01*
X131872552Y-58445500D01*
X131805513Y-58425815D01*
X131759758Y-58373011D01*
X131749814Y-58303853D01*
X131778839Y-58240297D01*
X131784871Y-58233819D01*
X131820340Y-58198350D01*
X131910908Y-58051516D01*
X131965174Y-57887753D01*
X131975500Y-57786677D01*
X131975499Y-57435536D01*
X131995183Y-57368499D01*
X132047987Y-57322744D01*
X132117146Y-57312800D01*
X132180701Y-57341825D01*
G37*
%TD.AperFunction*%
%TD*%
%TA.AperFunction,Conductor*%
%TO.N,GND*%
G36*
X148215677Y-59819685D02*
G01*
X148236319Y-59836319D01*
X149263681Y-60863681D01*
X149297166Y-60925004D01*
X149300000Y-60951362D01*
X149300000Y-62700000D01*
X145700000Y-62700000D01*
X145700000Y-61683562D01*
X145774035Y-61577830D01*
X145873903Y-61363663D01*
X145935063Y-61135408D01*
X145955659Y-60900000D01*
X145935063Y-60664592D01*
X145873903Y-60436337D01*
X145774035Y-60222171D01*
X145700000Y-60116437D01*
X145700000Y-59800470D01*
X145700413Y-59800316D01*
X145709259Y-59800000D01*
X148148638Y-59800000D01*
X148215677Y-59819685D01*
G37*
%TD.AperFunction*%
%TD*%
M02*
