M48
; DRILL file {KiCad 8.0.8-8.0.8-0~ubuntu24.04.1} date 2025-03-23T19:57:39+0100
; FORMAT={-:-/ absolute / inch / decimal}
; #@! TF.CreationDate,2025-03-23T19:57:39+01:00
; #@! TF.GenerationSoftware,Kicad,Pcbnew,8.0.8-8.0.8-0~ubuntu24.04.1
; #@! TF.FileFunction,Plated,1,2,PTH
FMAT,2
INCH
; #@! TA.AperFunction,Plated,PTH,ViaDrill
T1C0.0118
; #@! TA.AperFunction,Plated,PTH,ComponentDrill
T2C0.0315
; #@! TA.AperFunction,Plated,PTH,ComponentDrill
T3C0.0394
; #@! TA.AperFunction,Plated,PTH,ComponentDrill
T4C0.0433
; #@! TA.AperFunction,Plated,PTH,ComponentDrill
T5C0.0512
; #@! TA.AperFunction,Plated,PTH,ComponentDrill
T6C0.0787
; #@! TA.AperFunction,Plated,PTH,ComponentDrill
T7C0.0827
%
G90
G05
T1
X4.811Y-3.5433
X4.8189Y-2.3031
X4.8386Y-3.1496
X4.8701Y-3.4252
X4.874Y-2.9409
X4.8898Y-4.2795
X4.9331Y-4.2087
X4.9528Y-3.2992
X4.9606Y-3.4134
X5.0079Y-3.6024
X5.0118Y-3.7362
X5.0177Y-3.4232
X5.0197Y-3.248
X5.0236Y-3.0906
X5.0748Y-3.4252
X5.0866Y-2.9291
X5.1024Y-3.7402
X5.1024Y-3.8071
X5.143Y-2.6667
X5.1575Y-2.4528
X5.1575Y-2.6339
X5.1613Y-2.6002
X5.1614Y-3.252
X5.189Y-3.6575
X5.2126Y-2.2756
X5.2244Y-2.4449
X5.2244Y-3.7047
X5.2707Y-3.5069
X5.2913Y-2.5197
X5.2913Y-2.7087
X5.3071Y-3.2244
X5.315Y-3.7047
X5.3189Y-3.6575
X5.3583Y-2.6181
X5.3622Y-3.6575
X5.374Y-2.3465
X5.3819Y-3.1654
X5.4055Y-2.8504
X5.4291Y-3.3307
X5.4449Y-3.0591
X5.4843Y-2.6654
X5.4843Y-2.7244
X5.5197Y-3.4235
X5.5197Y-3.4567
X5.5217Y-2.7697
X5.5315Y-2.8189
X5.5433Y-2.315
X5.5433Y-3.398
X5.5551Y-3.0
X5.6102Y-3.3504
X5.6142Y-3.1339
X5.6378Y-2.8346
X5.6496Y-2.7008
X5.6535Y-2.6142
X5.7185Y-3.3504
X5.8209Y-3.3445
X5.8504Y-2.6299
X5.8504Y-2.6654
X5.8504Y-2.7008
X5.8583Y-3.0433
X5.9055Y-2.6929
X5.9724Y-2.9724
X5.9803Y-3.1732
T2
X4.9252Y-2.852
X4.9252Y-3.0441
T3
X4.9134Y-2.4606
X4.9134Y-2.5606
X4.9134Y-2.6606
X5.0134Y-2.4606
X5.0134Y-2.5606
X5.0134Y-2.6606
X5.0925Y-4.311
X5.0925Y-4.7835
X5.0925Y-4.9705
X5.0925Y-5.4429
X5.0925Y-5.6378
X5.0925Y-6.1102
X5.0945Y-3.6378
X5.0945Y-4.1102
X5.4335Y-2.9213
X5.463Y-1.9094
X5.5335Y-2.9213
X5.563Y-1.9094
X5.663Y-1.9094
X5.6929Y-2.3976
X5.763Y-1.9094
X5.7929Y-2.3976
T4
X5.3598Y-4.2087
X5.7598Y-4.2087
X5.8268Y-4.0394
X5.9882Y-3.5173
X5.9882Y-3.9173
X6.1535Y-3.5205
X6.1535Y-3.9205
X6.3268Y-4.0394
T5
X5.0157Y-4.5453
X5.0157Y-5.2047
X5.0157Y-5.872
X5.0177Y-3.872
X5.2362Y-4.626
X5.2953Y-5.0689
X5.2953Y-5.3937
X5.2953Y-5.7382
X5.2953Y-6.0728
X5.5728Y-4.7835
X5.5728Y-5.4429
X5.5728Y-6.1102
X5.5748Y-4.1102
X5.5748Y-4.3091
X5.5748Y-4.9685
X5.5748Y-5.6358
X5.5768Y-3.6358
X5.9055Y-6.0728
X6.1417Y-5.3937
X6.1614Y-5.0689
X6.1811Y-5.7382
X6.3386Y-4.626
T6
X5.1575Y-1.8701
X6.063Y-1.8701
T7
X5.148Y-2.8543
X6.0772Y-2.8543
M30
