%TF.GenerationSoftware,KiCad,Pcbnew,8.0.8-8.0.8-0~ubuntu24.04.1*%
%TF.CreationDate,2025-03-23T19:57:33+01:00*%
%TF.ProjectId,teaser,74656173-6572-42e6-9b69-6361645f7063,rev?*%
%TF.SameCoordinates,Original*%
%TF.FileFunction,Copper,L2,Bot*%
%TF.FilePolarity,Positive*%
%FSLAX46Y46*%
G04 Gerber Fmt 4.6, Leading zero omitted, Abs format (unit mm)*
G04 Created by KiCad (PCBNEW 8.0.8-8.0.8-0~ubuntu24.04.1) date 2025-03-23 19:57:33*
%MOMM*%
%LPD*%
G01*
G04 APERTURE LIST*
G04 Aperture macros list*
%AMRoundRect*
0 Rectangle with rounded corners*
0 $1 Rounding radius*
0 $2 $3 $4 $5 $6 $7 $8 $9 X,Y pos of 4 corners*
0 Add a 4 corners polygon primitive as box body*
4,1,4,$2,$3,$4,$5,$6,$7,$8,$9,$2,$3,0*
0 Add four circle primitives for the rounded corners*
1,1,$1+$1,$2,$3*
1,1,$1+$1,$4,$5*
1,1,$1+$1,$6,$7*
1,1,$1+$1,$8,$9*
0 Add four rect primitives between the rounded corners*
20,1,$1+$1,$2,$3,$4,$5,0*
20,1,$1+$1,$4,$5,$6,$7,0*
20,1,$1+$1,$6,$7,$8,$9,0*
20,1,$1+$1,$8,$9,$2,$3,0*%
G04 Aperture macros list end*
%TA.AperFunction,ComponentPad*%
%ADD10R,1.700000X1.700000*%
%TD*%
%TA.AperFunction,ComponentPad*%
%ADD11O,1.700000X1.700000*%
%TD*%
%TA.AperFunction,ComponentPad*%
%ADD12C,3.600000*%
%TD*%
%TA.AperFunction,ComponentPad*%
%ADD13C,3.000000*%
%TD*%
%TA.AperFunction,ComponentPad*%
%ADD14C,2.500000*%
%TD*%
%TA.AperFunction,ComponentPad*%
%ADD15C,1.500000*%
%TD*%
%TA.AperFunction,ComponentPad*%
%ADD16R,2.200000X2.200000*%
%TD*%
%TA.AperFunction,ComponentPad*%
%ADD17O,2.200000X2.200000*%
%TD*%
%TA.AperFunction,SMDPad,CuDef*%
%ADD18RoundRect,0.250000X0.450000X-0.350000X0.450000X0.350000X-0.450000X0.350000X-0.450000X-0.350000X0*%
%TD*%
%TA.AperFunction,SMDPad,CuDef*%
%ADD19RoundRect,0.237500X-0.250000X-0.237500X0.250000X-0.237500X0.250000X0.237500X-0.250000X0.237500X0*%
%TD*%
%TA.AperFunction,SMDPad,CuDef*%
%ADD20RoundRect,0.150000X-0.150000X0.587500X-0.150000X-0.587500X0.150000X-0.587500X0.150000X0.587500X0*%
%TD*%
%TA.AperFunction,SMDPad,CuDef*%
%ADD21RoundRect,0.237500X-0.237500X0.300000X-0.237500X-0.300000X0.237500X-0.300000X0.237500X0.300000X0*%
%TD*%
%TA.AperFunction,SMDPad,CuDef*%
%ADD22RoundRect,0.250000X-0.650000X1.000000X-0.650000X-1.000000X0.650000X-1.000000X0.650000X1.000000X0*%
%TD*%
%TA.AperFunction,ComponentPad*%
%ADD23C,2.200000*%
%TD*%
%TA.AperFunction,SMDPad,CuDef*%
%ADD24RoundRect,0.237500X0.237500X-0.300000X0.237500X0.300000X-0.237500X0.300000X-0.237500X-0.300000X0*%
%TD*%
%TA.AperFunction,SMDPad,CuDef*%
%ADD25RoundRect,0.250000X0.600000X-0.400000X0.600000X0.400000X-0.600000X0.400000X-0.600000X-0.400000X0*%
%TD*%
%TA.AperFunction,SMDPad,CuDef*%
%ADD26RoundRect,0.237500X0.237500X-0.250000X0.237500X0.250000X-0.237500X0.250000X-0.237500X-0.250000X0*%
%TD*%
%TA.AperFunction,SMDPad,CuDef*%
%ADD27RoundRect,0.237500X0.300000X0.237500X-0.300000X0.237500X-0.300000X-0.237500X0.300000X-0.237500X0*%
%TD*%
%TA.AperFunction,SMDPad,CuDef*%
%ADD28RoundRect,0.250001X-0.499999X-0.924999X0.499999X-0.924999X0.499999X0.924999X-0.499999X0.924999X0*%
%TD*%
%TA.AperFunction,SMDPad,CuDef*%
%ADD29RoundRect,0.375000X0.375000X-0.625000X0.375000X0.625000X-0.375000X0.625000X-0.375000X-0.625000X0*%
%TD*%
%TA.AperFunction,SMDPad,CuDef*%
%ADD30RoundRect,0.500000X1.400000X-0.500000X1.400000X0.500000X-1.400000X0.500000X-1.400000X-0.500000X0*%
%TD*%
%TA.AperFunction,ViaPad*%
%ADD31C,0.600000*%
%TD*%
%TA.AperFunction,Conductor*%
%ADD32C,0.508000*%
%TD*%
%TA.AperFunction,Conductor*%
%ADD33C,0.762000*%
%TD*%
%TA.AperFunction,Conductor*%
%ADD34C,3.000000*%
%TD*%
%TA.AperFunction,Conductor*%
%ADD35C,2.000000*%
%TD*%
G04 APERTURE END LIST*
D10*
%TO.P,J4,1,Pin_1*%
%TO.N,GND*%
X147140000Y-60900000D03*
D11*
%TO.P,J4,2,Pin_2*%
%TO.N,Net-(J4-Pin_2)*%
X144600000Y-60900000D03*
%TD*%
D12*
%TO.P,J2,1,Pin_1*%
%TO.N,Net-(D4-A)*%
X154000000Y-47500000D03*
%TO.P,J2,2,Pin_2*%
%TO.N,Net-(D2-K)*%
X131000000Y-47500000D03*
%TD*%
D13*
%TO.P,K1,1*%
%TO.N,GND*%
X127450000Y-98350000D03*
D14*
%TO.P,K1,2*%
%TO.N,Net-(D1-A)*%
X129400000Y-104400000D03*
D13*
%TO.P,K1,3*%
%TO.N,Net-(D2-A)*%
X141600000Y-104400000D03*
%TO.P,K1,4*%
%TO.N,unconnected-(K1-Pad4)*%
X141650000Y-92350000D03*
D14*
%TO.P,K1,5*%
%TO.N,VCC*%
X129400000Y-92400000D03*
%TD*%
D13*
%TO.P,K2,1*%
%TO.N,Net-(D4-A)*%
X127400000Y-132200000D03*
D14*
%TO.P,K2,2*%
%TO.N,Net-(D12-K)*%
X129350000Y-138250000D03*
D13*
%TO.P,K2,3*%
%TO.N,/CH3_230*%
X141550000Y-138250000D03*
%TO.P,K2,4*%
%TO.N,unconnected-(K2-Pad4)*%
X141600000Y-126200000D03*
D14*
%TO.P,K2,5*%
%TO.N,VCC*%
X129350000Y-126250000D03*
%TD*%
D13*
%TO.P,K4,1*%
%TO.N,Net-(D4-A)*%
X127400000Y-115450000D03*
D14*
%TO.P,K4,2*%
%TO.N,Net-(D14-K)*%
X129350000Y-121500000D03*
D13*
%TO.P,K4,3*%
%TO.N,/CH1_230*%
X141550000Y-121500000D03*
%TO.P,K4,4*%
%TO.N,unconnected-(K4-Pad4)*%
X141600000Y-109450000D03*
D14*
%TO.P,K4,5*%
%TO.N,VCC*%
X129350000Y-109500000D03*
%TD*%
D10*
%TO.P,SW1,1,A*%
%TO.N,Net-(J4-Pin_2)*%
X140550000Y-74200000D03*
D11*
%TO.P,SW1,2,B*%
%TO.N,Net-(Q6-D)*%
X138010000Y-74200000D03*
%TD*%
D13*
%TO.P,K3,1*%
%TO.N,Net-(D4-A)*%
X127400000Y-149150000D03*
D14*
%TO.P,K3,2*%
%TO.N,Net-(D13-K)*%
X129350000Y-155200000D03*
D13*
%TO.P,K3,3*%
%TO.N,/CH2_230*%
X141550000Y-155200000D03*
%TO.P,K3,4*%
%TO.N,unconnected-(K3-Pad4)*%
X141600000Y-143150000D03*
D14*
%TO.P,K3,5*%
%TO.N,VCC*%
X129350000Y-143200000D03*
%TD*%
D15*
%TO.P,Y1,2,2*%
%TO.N,Net-(U3-XTAL1{slash}PB6)*%
X125100000Y-72440000D03*
%TO.P,Y1,1,1*%
%TO.N,Net-(U3-XTAL2{slash}PB7)*%
X125100000Y-77320000D03*
%TD*%
D13*
%TO.P,J3,*%
%TO.N,*%
X130760000Y-72500000D03*
X154360000Y-72500000D03*
D10*
%TO.P,J3,1,Pin_1*%
%TO.N,VCC*%
X138760000Y-48500000D03*
D11*
%TO.P,J3,2,Pin_2*%
%TO.N,GND*%
X141300000Y-48500000D03*
%TO.P,J3,3,Pin_3*%
%TO.N,/SCL*%
X143840000Y-48500000D03*
%TO.P,J3,4,Pin_4*%
%TO.N,/SDA*%
X146380000Y-48500000D03*
%TD*%
D16*
%TO.P,D4,1,K*%
%TO.N,/CH3_230*%
X152100000Y-99500000D03*
D17*
%TO.P,D4,2,A*%
%TO.N,Net-(D4-A)*%
X152100000Y-89340000D03*
%TD*%
D16*
%TO.P,D5,1,K*%
%TO.N,/CH2_230*%
X156300000Y-99580000D03*
D17*
%TO.P,D5,2,A*%
%TO.N,Net-(D4-A)*%
X156300000Y-89420000D03*
%TD*%
D18*
%TO.P,R3,1*%
%TO.N,/CH2_230*%
X148050000Y-88400000D03*
%TO.P,R3,2*%
%TO.N,/CH2_MEASURE*%
X148050000Y-86400000D03*
%TD*%
D19*
%TO.P,R7,1*%
%TO.N,Net-(U3-PD2)*%
X134600000Y-78800000D03*
%TO.P,R7,2*%
%TO.N,GND*%
X136425000Y-78800000D03*
%TD*%
D20*
%TO.P,Q6,1,G*%
%TO.N,Net-(Q6-G)*%
X143200000Y-76700000D03*
%TO.P,Q6,2,S*%
%TO.N,Net-(Q6-S)*%
X145100000Y-76700000D03*
%TO.P,Q6,3,D*%
%TO.N,Net-(Q6-D)*%
X144150000Y-78575000D03*
%TD*%
D21*
%TO.P,C14,2*%
%TO.N,Net-(U3-XTAL2{slash}PB7)*%
X126600000Y-77595000D03*
%TO.P,C14,1*%
%TO.N,GND*%
X126600000Y-75870000D03*
%TD*%
D22*
%TO.P,D3,1,K*%
%TO.N,VCC*%
X132000000Y-85000000D03*
%TO.P,D3,2,A*%
%TO.N,Net-(D12-K)*%
X132000000Y-89000000D03*
%TD*%
D11*
%TO.P,J1,6,Pin_6*%
%TO.N,GND*%
X124800000Y-67580000D03*
%TO.P,J1,5,Pin_5*%
%TO.N,/RESET*%
X127340000Y-67580000D03*
%TO.P,J1,4,Pin_4*%
%TO.N,/MOSI*%
X124800000Y-65040000D03*
%TO.P,J1,3,Pin_3*%
%TO.N,/SCK*%
X127340000Y-65040000D03*
%TO.P,J1,2,Pin_2*%
%TO.N,VCC*%
X124800000Y-62500000D03*
D10*
%TO.P,J1,1,Pin_1*%
%TO.N,/MISO*%
X127340000Y-62500000D03*
%TD*%
D23*
%TO.P,C10,1*%
%TO.N,Net-(D2-K)*%
X150000000Y-154250000D03*
%TO.P,C10,2*%
%TO.N,/CH2_230*%
X134500000Y-154250000D03*
%TD*%
D22*
%TO.P,D8,1,K*%
%TO.N,VCC*%
X124000000Y-85000000D03*
%TO.P,D8,2,A*%
%TO.N,Net-(D14-K)*%
X124000000Y-89000000D03*
%TD*%
D16*
%TO.P,D2,1,K*%
%TO.N,Net-(D2-K)*%
X160700000Y-102600000D03*
D17*
%TO.P,D2,2,A*%
%TO.N,Net-(D2-A)*%
X148000000Y-102600000D03*
%TD*%
D23*
%TO.P,C11,1*%
%TO.N,Net-(D2-K)*%
X157000000Y-145750000D03*
%TO.P,C11,2*%
%TO.N,/CH2_230*%
X134500000Y-145750000D03*
%TD*%
D22*
%TO.P,D1,1,K*%
%TO.N,VCC*%
X136000000Y-85000000D03*
%TO.P,D1,2,A*%
%TO.N,Net-(D1-A)*%
X136000000Y-89000000D03*
%TD*%
D18*
%TO.P,R5,1*%
%TO.N,/CH3_230*%
X145300000Y-88400000D03*
%TO.P,R5,2*%
%TO.N,/CH3_MEASURE*%
X145300000Y-86400000D03*
%TD*%
D21*
%TO.P,C3,1*%
%TO.N,GND*%
X132000000Y-64000000D03*
%TO.P,C3,2*%
%TO.N,VCC*%
X132000000Y-65725000D03*
%TD*%
D23*
%TO.P,C7,1*%
%TO.N,Net-(D2-K)*%
X156000000Y-137000000D03*
%TO.P,C7,2*%
%TO.N,/CH3_230*%
X134500000Y-137000000D03*
%TD*%
D24*
%TO.P,C13,1*%
%TO.N,GND*%
X126600000Y-73970000D03*
%TO.P,C13,2*%
%TO.N,Net-(U3-XTAL1{slash}PB6)*%
X126600000Y-72245000D03*
%TD*%
D23*
%TO.P,C12,1*%
%TO.N,Net-(D2-K)*%
X161000000Y-117500000D03*
%TO.P,C12,2*%
%TO.N,/CH1_230*%
X133000000Y-117500000D03*
%TD*%
D21*
%TO.P,C6,1*%
%TO.N,GND*%
X130100000Y-64000000D03*
%TO.P,C6,2*%
%TO.N,VCC*%
X130100000Y-65725000D03*
%TD*%
D22*
%TO.P,D6,1,K*%
%TO.N,VCC*%
X128000000Y-85000000D03*
%TO.P,D6,2,A*%
%TO.N,Net-(D13-K)*%
X128000000Y-89000000D03*
%TD*%
D25*
%TO.P,D9,1,K*%
%TO.N,/CH1_MEASURE*%
X139800000Y-84150000D03*
%TO.P,D9,2,A*%
%TO.N,GND*%
X139800000Y-80650000D03*
%TD*%
D26*
%TO.P,R4,1*%
%TO.N,/CH1_MEASURE*%
X142050000Y-84312500D03*
%TO.P,R4,2*%
%TO.N,GND*%
X142050000Y-82487500D03*
%TD*%
D27*
%TO.P,C9,1*%
%TO.N,GND*%
X136375000Y-77100000D03*
%TO.P,C9,2*%
%TO.N,Net-(U3-PD2)*%
X134650000Y-77100000D03*
%TD*%
D18*
%TO.P,R1,1*%
%TO.N,/CH1_230*%
X142550000Y-88400000D03*
%TO.P,R1,2*%
%TO.N,/CH1_MEASURE*%
X142550000Y-86400000D03*
%TD*%
D28*
%TO.P,C1,1*%
%TO.N,Net-(Q6-S)*%
X147200000Y-77300000D03*
%TO.P,C1,2*%
%TO.N,GND*%
X150450000Y-77300000D03*
%TD*%
D25*
%TO.P,D10,1,K*%
%TO.N,/CH2_MEASURE*%
X148800000Y-84150000D03*
%TO.P,D10,2,A*%
%TO.N,GND*%
X148800000Y-80650000D03*
%TD*%
D23*
%TO.P,C8,1*%
%TO.N,Net-(D2-K)*%
X156500000Y-128750000D03*
%TO.P,C8,2*%
%TO.N,/CH3_230*%
X134500000Y-128750000D03*
%TD*%
D25*
%TO.P,D11,1,K*%
%TO.N,/CH3_MEASURE*%
X144300000Y-84150000D03*
%TO.P,D11,2,A*%
%TO.N,GND*%
X144300000Y-80650000D03*
%TD*%
D26*
%TO.P,R2,1*%
%TO.N,/CH2_MEASURE*%
X151050000Y-84312500D03*
%TO.P,R2,2*%
%TO.N,GND*%
X151050000Y-82487500D03*
%TD*%
D29*
%TO.P,U2,1,GND*%
%TO.N,GND*%
X150010000Y-70437500D03*
%TO.P,U2,2,VO*%
%TO.N,VCC*%
X147710000Y-70437500D03*
D30*
X147710000Y-64137500D03*
D29*
%TO.P,U2,3,VI*%
%TO.N,Net-(Q6-S)*%
X145410000Y-70437500D03*
%TD*%
D26*
%TO.P,R13,1*%
%TO.N,Net-(Q6-G)*%
X143200000Y-74800000D03*
%TO.P,R13,2*%
%TO.N,GND*%
X143200000Y-72975000D03*
%TD*%
D16*
%TO.P,D7,1,K*%
%TO.N,/CH1_230*%
X146300000Y-106900000D03*
D17*
%TO.P,D7,2,A*%
%TO.N,Net-(D4-A)*%
X136140000Y-106900000D03*
%TD*%
D28*
%TO.P,C2,1*%
%TO.N,VCC*%
X147200000Y-73600000D03*
%TO.P,C2,2*%
%TO.N,GND*%
X150450000Y-73600000D03*
%TD*%
D26*
%TO.P,R6,1*%
%TO.N,/CH3_MEASURE*%
X146550000Y-84312500D03*
%TO.P,R6,2*%
%TO.N,GND*%
X146550000Y-82487500D03*
%TD*%
D31*
%TO.N,GND*%
X131000000Y-62300000D03*
X129600000Y-95000000D03*
X127600000Y-78500000D03*
X143600000Y-66400000D03*
X137300000Y-72400000D03*
X125300000Y-106900000D03*
X131100000Y-82600000D03*
X137900000Y-84600000D03*
X136100000Y-66500000D03*
X142600000Y-79600000D03*
X143200000Y-72000000D03*
X129600000Y-96700000D03*
X124200000Y-108700000D03*
X122400000Y-58500000D03*
X151900000Y-80600000D03*
X135000000Y-94100000D03*
X150000000Y-68400000D03*
X138300000Y-77700000D03*
X140500000Y-71600000D03*
X136700000Y-80400000D03*
X135100000Y-92900000D03*
X122200000Y-90000000D03*
X127200000Y-91500000D03*
X131800000Y-92900000D03*
X129200000Y-74400000D03*
X132700000Y-94100000D03*
X141100000Y-76200000D03*
X148800000Y-77300000D03*
X127300000Y-94900000D03*
X125800000Y-83800000D03*
X134400000Y-68800000D03*
X127500000Y-82500000D03*
X136200000Y-92900000D03*
X134400000Y-64000000D03*
X132400000Y-57800000D03*
X122900000Y-80000000D03*
X126000000Y-86700000D03*
X140800000Y-58800000D03*
X123800000Y-74700000D03*
X136500000Y-59600000D03*
X151700000Y-75500000D03*
X131000000Y-66900000D03*
%TO.N,VCC*%
X148600000Y-67700000D03*
X148600000Y-66800000D03*
X131096000Y-66046000D03*
X140200000Y-87800000D03*
X130633159Y-67733159D03*
X148600000Y-68600000D03*
X143500000Y-68600000D03*
X140800000Y-86310000D03*
X140200000Y-86958096D03*
%TO.N,Net-(D1-A)*%
X133875000Y-89075000D03*
%TO.N,Net-(D12-K)*%
X128900000Y-87000000D03*
%TO.N,Net-(D13-K)*%
X127450000Y-86950000D03*
%TO.N,Net-(D14-K)*%
X123700000Y-87000000D03*
%TO.N,/CH1_MEASURE*%
X142500000Y-85100000D03*
%TO.N,/CH2_MEASURE*%
X147850000Y-84950000D03*
%TO.N,/CH3_MEASURE*%
X145250000Y-85100000D03*
%TO.N,/SCK*%
X140250000Y-70350000D03*
%TO.N,/MISO*%
X139300000Y-69200000D03*
%TO.N,/MOSI*%
X139300000Y-67700000D03*
%TO.N,Net-(U3-PD2)*%
X132700000Y-62100000D03*
X134800000Y-81900000D03*
%TD*%
D32*
%TO.N,/SCK*%
X140250000Y-70350000D02*
X138850000Y-70350000D01*
X138850000Y-70350000D02*
X137100000Y-68600000D01*
X137100000Y-68600000D02*
X137100000Y-64800000D01*
X133100000Y-60800000D02*
X130900000Y-60800000D01*
X130900000Y-60800000D02*
X129100000Y-62600000D01*
X137100000Y-64800000D02*
X133100000Y-60800000D01*
X129100000Y-63280000D02*
X127340000Y-65040000D01*
X129100000Y-62600000D02*
X129100000Y-63280000D01*
%TO.N,/MISO*%
X128200000Y-61640000D02*
X129940000Y-59900000D01*
X129940000Y-59900000D02*
X133600000Y-59900000D01*
X138200000Y-68100000D02*
X139300000Y-69200000D01*
X133600000Y-59900000D02*
X138200000Y-64500000D01*
X138200000Y-64500000D02*
X138200000Y-68100000D01*
%TO.N,/MOSI*%
X139300000Y-67700000D02*
X139300000Y-64200000D01*
X123100000Y-63340000D02*
X124800000Y-65040000D01*
X139300000Y-64200000D02*
X134000000Y-58900000D01*
X134000000Y-58900000D02*
X128900000Y-58900000D01*
X128900000Y-58900000D02*
X127300000Y-60500000D01*
X127300000Y-60500000D02*
X124440000Y-60500000D01*
X124440000Y-60500000D02*
X123100000Y-61840000D01*
X123100000Y-61840000D02*
X123100000Y-63340000D01*
D33*
%TO.N,Net-(Q6-S)*%
X145410000Y-76590000D02*
X145300000Y-76700000D01*
X145410000Y-70437500D02*
X145410000Y-76590000D01*
X146120000Y-77300000D02*
X147450000Y-77300000D01*
X145410000Y-76590000D02*
X146120000Y-77300000D01*
X145300000Y-76700000D02*
X145900000Y-77300000D01*
X145900000Y-77300000D02*
X147450000Y-77300000D01*
%TO.N,GND*%
X150300000Y-78000000D02*
X150700000Y-78400000D01*
X148800000Y-80650000D02*
X149212500Y-80650000D01*
D32*
X130354000Y-66946000D02*
X129900000Y-67400000D01*
D33*
X150300000Y-75500000D02*
X150300000Y-78000000D01*
X139800000Y-80650000D02*
X140212500Y-80650000D01*
X150010000Y-70437500D02*
X150300000Y-70727500D01*
X150300000Y-70727500D02*
X150300000Y-75500000D01*
D32*
X130954000Y-66946000D02*
X130354000Y-66946000D01*
D33*
X144300000Y-80650000D02*
X144712500Y-80650000D01*
X148800000Y-80300000D02*
X148800000Y-80650000D01*
D32*
X131000000Y-66900000D02*
X130954000Y-66946000D01*
D33*
%TO.N,VCC*%
X137750000Y-126250000D02*
X137750000Y-114500000D01*
X131500000Y-94700000D02*
X131500000Y-107300000D01*
X137750000Y-139250000D02*
X137750000Y-126250000D01*
D32*
X132000000Y-67600000D02*
X132000000Y-66162500D01*
D33*
X131500000Y-107300000D02*
X129300000Y-109500000D01*
X129500000Y-92700000D02*
X129400000Y-92700000D01*
X135500000Y-141350000D02*
X131500000Y-141350000D01*
X130100000Y-91700000D02*
X129400000Y-92400000D01*
X131200000Y-141350000D02*
X129350000Y-143200000D01*
D32*
X130200000Y-65962500D02*
X130100000Y-65862500D01*
D33*
X132750000Y-109500000D02*
X129350000Y-109500000D01*
X140200000Y-86958096D02*
X140200000Y-86810000D01*
X140200000Y-87900000D02*
X136400000Y-91700000D01*
D32*
X143500000Y-68600000D02*
X147600000Y-68600000D01*
D33*
X129350000Y-126250000D02*
X131600000Y-124000000D01*
X133200000Y-71700000D02*
X132000000Y-70500000D01*
X132000000Y-83400000D02*
X133200000Y-82200000D01*
X140800000Y-86310000D02*
X139700000Y-86310000D01*
X137750000Y-124000000D02*
X137750000Y-126250000D01*
X135500000Y-141500000D02*
X137750000Y-139250000D01*
X130900000Y-94100000D02*
X129500000Y-92700000D01*
X139700000Y-86310000D02*
X137310000Y-86310000D01*
X124000000Y-85000000D02*
X136000000Y-85000000D01*
X130100000Y-65725000D02*
X132000000Y-65725000D01*
X147200000Y-73600000D02*
X147500000Y-73300000D01*
X129300000Y-109500000D02*
X132750000Y-109500000D01*
X133200000Y-85000000D02*
X136000000Y-85000000D01*
X133200000Y-82200000D02*
X133200000Y-71700000D01*
D32*
X147600000Y-68600000D02*
X147710000Y-68710000D01*
X147710000Y-68710000D02*
X147710000Y-70437500D01*
D33*
X137750000Y-114500000D02*
X132750000Y-109500000D01*
X137310000Y-86310000D02*
X136000000Y-85000000D01*
X130900000Y-94100000D02*
X131500000Y-94700000D01*
D32*
X131866841Y-67733159D02*
X132000000Y-67600000D01*
D33*
X136400000Y-91700000D02*
X130100000Y-91700000D01*
X132000000Y-85000000D02*
X136000000Y-85000000D01*
X131500000Y-141350000D02*
X131200000Y-141350000D01*
X147500000Y-73300000D02*
X147500000Y-70647500D01*
X132000000Y-85000000D02*
X132000000Y-83400000D01*
X147500000Y-70647500D02*
X147710000Y-70437500D01*
X147700000Y-64147500D02*
X147710000Y-64137500D01*
X132000000Y-70500000D02*
X132000000Y-65962500D01*
X140200000Y-86810000D02*
X139700000Y-86310000D01*
X140200000Y-87800000D02*
X140200000Y-87900000D01*
D32*
X130633159Y-67733159D02*
X131866841Y-67733159D01*
D33*
X131600000Y-124000000D02*
X137750000Y-124000000D01*
D34*
%TO.N,Net-(D2-K)*%
X161000000Y-117500000D02*
X160900000Y-117400000D01*
D35*
X160900000Y-116600000D02*
X160900000Y-117400000D01*
D32*
%TO.N,/CH3_230*%
X152100000Y-97900000D02*
X152100000Y-99500000D01*
X145250000Y-88050000D02*
X146400000Y-89200000D01*
X145350000Y-88600000D02*
X145300000Y-88650000D01*
X146400000Y-92200000D02*
X152100000Y-97900000D01*
X146400000Y-89200000D02*
X146400000Y-92200000D01*
%TO.N,/CH2_230*%
X148400000Y-88750000D02*
X148400000Y-91500000D01*
X156300000Y-99400000D02*
X156300000Y-99580000D01*
X148400000Y-91500000D02*
X156300000Y-99400000D01*
X148050000Y-88400000D02*
X148400000Y-88750000D01*
%TO.N,/CH1_230*%
X144300000Y-95600000D02*
X144900000Y-96200000D01*
X144900000Y-103900000D02*
X146300000Y-105300000D01*
X142550000Y-88750000D02*
X144300000Y-90500000D01*
X142550000Y-88400000D02*
X142550000Y-88750000D01*
X146300000Y-105300000D02*
X146300000Y-106900000D01*
X144900000Y-96200000D02*
X144900000Y-103900000D01*
X144300000Y-90500000D02*
X144300000Y-95600000D01*
%TO.N,Net-(U3-XTAL1{slash}PB6)*%
X124600000Y-72440000D02*
X126405000Y-72440000D01*
X126405000Y-72440000D02*
X126600000Y-72245000D01*
%TO.N,Net-(U3-XTAL2{slash}PB7)*%
X126600000Y-77595000D02*
X124875000Y-77595000D01*
%TO.N,Net-(D1-A)*%
X135925000Y-89075000D02*
X136000000Y-89000000D01*
X133875000Y-89075000D02*
X135925000Y-89075000D01*
%TO.N,Net-(D12-K)*%
X132000000Y-88700000D02*
X132000000Y-89000000D01*
X128900000Y-87000000D02*
X130300000Y-87000000D01*
X130300000Y-87000000D02*
X132000000Y-88700000D01*
D34*
%TO.N,Net-(D4-A)*%
X124200000Y-145950000D02*
X124200000Y-132250000D01*
X127400000Y-132200000D02*
X124250000Y-132200000D01*
X124200000Y-132250000D02*
X124200000Y-118650000D01*
X124250000Y-132200000D02*
X124200000Y-132250000D01*
X124200000Y-118650000D02*
X127400000Y-115450000D01*
X127400000Y-149150000D02*
X124200000Y-145950000D01*
D32*
%TO.N,Net-(D13-K)*%
X127550000Y-86950000D02*
X128000000Y-87400000D01*
X127450000Y-86950000D02*
X127550000Y-86950000D01*
X128000000Y-87400000D02*
X128000000Y-89000000D01*
%TO.N,Net-(D14-K)*%
X123700000Y-87000000D02*
X124000000Y-87300000D01*
X132450000Y-111750000D02*
X136500000Y-115800000D01*
X136500000Y-119500000D02*
X134500000Y-121500000D01*
X128500000Y-111750000D02*
X132450000Y-111750000D01*
X134500000Y-121500000D02*
X129350000Y-121500000D01*
X136500000Y-115800000D02*
X136500000Y-119500000D01*
X124000000Y-107250000D02*
X128500000Y-111750000D01*
X124000000Y-87300000D02*
X124000000Y-107250000D01*
X124000000Y-87300000D02*
X124000000Y-89000000D01*
%TO.N,/CH1_MEASURE*%
X142550000Y-86400000D02*
X142550000Y-85062500D01*
X142050000Y-84312500D02*
X139962500Y-84312500D01*
X142550000Y-85062500D02*
X141800000Y-84312500D01*
X139712500Y-84312500D02*
X139550000Y-84150000D01*
%TO.N,/CH2_MEASURE*%
X147850000Y-84850000D02*
X148550000Y-84150000D01*
X147850000Y-86200000D02*
X147850000Y-84850000D01*
X148800000Y-84150000D02*
X150887500Y-84150000D01*
X148050000Y-86400000D02*
X147850000Y-86200000D01*
X150637500Y-84150000D02*
X150800000Y-84312500D01*
%TO.N,/CH3_MEASURE*%
X145300000Y-86400000D02*
X145300000Y-85150000D01*
X144300000Y-84150000D02*
X144050000Y-84150000D01*
X145431250Y-85100000D02*
X146218750Y-84312500D01*
X146218750Y-84312500D02*
X146300000Y-84312500D01*
X145300000Y-85150000D02*
X145250000Y-85100000D01*
X145250000Y-85100000D02*
X144300000Y-84150000D01*
X145250000Y-85100000D02*
X145431250Y-85100000D01*
%TO.N,/MISO*%
X127340000Y-62500000D02*
X128200000Y-61640000D01*
%TO.N,/MOSI*%
X139300000Y-67700000D02*
X139200000Y-67800000D01*
D33*
%TO.N,Net-(J4-Pin_2)*%
X142000000Y-72300000D02*
X140550000Y-73750000D01*
X142000000Y-63500000D02*
X142000000Y-72300000D01*
X140550000Y-73750000D02*
X140550000Y-74200000D01*
X144600000Y-60900000D02*
X142000000Y-63500000D01*
%TO.N,Net-(Q6-G)*%
X143200000Y-74800000D02*
X143200000Y-76700000D01*
%TO.N,Net-(Q6-D)*%
X138010000Y-74200000D02*
X138010000Y-75310000D01*
X141000000Y-78300000D02*
X143800000Y-78300000D01*
X138010000Y-75310000D02*
X141000000Y-78300000D01*
D32*
%TO.N,Net-(U3-PD2)*%
X134400000Y-70900000D02*
X133300000Y-69800000D01*
X133300000Y-62700000D02*
X132700000Y-62100000D01*
X134800000Y-81900000D02*
X134400000Y-81500000D01*
X133300000Y-69800000D02*
X133300000Y-62700000D01*
X134400000Y-81500000D02*
X134400000Y-70900000D01*
D34*
%TO.N,Net-(D2-K)*%
X160900000Y-117400000D02*
X160900000Y-64200000D01*
X160900000Y-64200000D02*
X151400000Y-54700000D01*
X151400000Y-54700000D02*
X135200000Y-54700000D01*
X135200000Y-54700000D02*
X131000000Y-50500000D01*
X131000000Y-50500000D02*
X131000000Y-47500000D01*
%TD*%
%TA.AperFunction,Conductor*%
%TO.N,GND*%
G36*
X148215677Y-59819685D02*
G01*
X148236319Y-59836319D01*
X149299998Y-60899999D01*
X149300000Y-60900000D01*
X149300000Y-62651213D01*
X149287420Y-62647614D01*
X149287413Y-62647613D01*
X149221102Y-62641717D01*
X149168037Y-62637000D01*
X149168032Y-62637000D01*
X146251971Y-62637000D01*
X146251965Y-62637000D01*
X146251964Y-62637001D01*
X146240316Y-62638036D01*
X146132584Y-62647613D01*
X145949497Y-62700000D01*
X145700000Y-62700000D01*
X145700000Y-61683562D01*
X145774035Y-61577830D01*
X145873903Y-61363663D01*
X145935063Y-61135408D01*
X145955659Y-60900000D01*
X145935063Y-60664592D01*
X145873903Y-60436337D01*
X145774035Y-60222171D01*
X145774034Y-60222169D01*
X145711726Y-60133183D01*
X145700000Y-60098412D01*
X145700000Y-59924000D01*
X145719685Y-59856961D01*
X145772489Y-59811206D01*
X145824000Y-59800000D01*
X148148638Y-59800000D01*
X148215677Y-59819685D01*
G37*
%TD.AperFunction*%
%TD*%
%TA.AperFunction,Conductor*%
%TO.N,GND*%
G36*
X131415677Y-56519685D02*
G01*
X131436319Y-56536319D01*
X132833819Y-57933819D01*
X132867304Y-57995142D01*
X132862320Y-58064834D01*
X132820448Y-58120767D01*
X132754984Y-58145184D01*
X132746138Y-58145500D01*
X128980446Y-58145500D01*
X128980426Y-58145499D01*
X128974312Y-58145499D01*
X128825688Y-58145499D01*
X128825686Y-58145499D01*
X128704105Y-58169684D01*
X128689540Y-58172581D01*
X128679918Y-58174495D01*
X128679917Y-58174495D01*
X128623045Y-58198052D01*
X128623045Y-58198053D01*
X128542611Y-58231370D01*
X128542609Y-58231371D01*
X128419033Y-58313941D01*
X128366487Y-58366487D01*
X128313941Y-58419034D01*
X127023794Y-59709181D01*
X126962471Y-59742666D01*
X126936113Y-59745500D01*
X124365683Y-59745500D01*
X124219927Y-59774493D01*
X124219919Y-59774495D01*
X124082608Y-59831371D01*
X123959035Y-59913939D01*
X123959034Y-59913940D01*
X123906488Y-59966487D01*
X123853941Y-60019034D01*
X123853939Y-60019036D01*
X122513943Y-61359030D01*
X122513942Y-61359031D01*
X122431372Y-61482607D01*
X122431366Y-61482618D01*
X122374496Y-61619916D01*
X122374493Y-61619926D01*
X122345499Y-61765685D01*
X122345499Y-61920425D01*
X122345500Y-61920446D01*
X122345500Y-63260552D01*
X122345499Y-63260578D01*
X122345499Y-63414313D01*
X122357470Y-63474491D01*
X122357470Y-63474494D01*
X122370200Y-63538492D01*
X122374494Y-63560075D01*
X122374496Y-63560083D01*
X122431366Y-63697381D01*
X122431372Y-63697392D01*
X122513942Y-63820968D01*
X122513943Y-63820969D01*
X123426675Y-64733700D01*
X123460160Y-64795023D01*
X123462522Y-64832188D01*
X123444341Y-65039998D01*
X123444341Y-65040000D01*
X123464936Y-65275403D01*
X123464938Y-65275413D01*
X123526094Y-65503655D01*
X123526096Y-65503659D01*
X123526097Y-65503663D01*
X123557688Y-65571409D01*
X123625965Y-65717830D01*
X123625967Y-65717834D01*
X123656892Y-65761999D01*
X123761501Y-65911396D01*
X123761506Y-65911402D01*
X123928597Y-66078493D01*
X123928603Y-66078498D01*
X124114594Y-66208730D01*
X124158219Y-66263307D01*
X124165413Y-66332805D01*
X124133890Y-66395160D01*
X124114595Y-66411880D01*
X123928922Y-66541890D01*
X123928920Y-66541891D01*
X123761891Y-66708920D01*
X123761886Y-66708926D01*
X123626400Y-66902420D01*
X123626399Y-66902422D01*
X123526570Y-67116507D01*
X123526567Y-67116513D01*
X123469364Y-67329999D01*
X123469364Y-67330000D01*
X124366988Y-67330000D01*
X124334075Y-67387007D01*
X124300000Y-67514174D01*
X124300000Y-67645826D01*
X124334075Y-67772993D01*
X124366988Y-67830000D01*
X123469364Y-67830000D01*
X123526567Y-68043486D01*
X123526570Y-68043492D01*
X123626399Y-68257578D01*
X123761894Y-68451082D01*
X123928917Y-68618105D01*
X124122421Y-68753600D01*
X124336507Y-68853429D01*
X124336516Y-68853433D01*
X124550000Y-68910634D01*
X124550000Y-68013012D01*
X124607007Y-68045925D01*
X124734174Y-68080000D01*
X124865826Y-68080000D01*
X124992993Y-68045925D01*
X125050000Y-68013012D01*
X125050000Y-68910633D01*
X125263483Y-68853433D01*
X125263492Y-68853429D01*
X125477578Y-68753600D01*
X125671082Y-68618105D01*
X125838105Y-68451082D01*
X125968119Y-68265405D01*
X126022696Y-68221781D01*
X126092195Y-68214588D01*
X126154549Y-68246110D01*
X126171269Y-68265405D01*
X126301505Y-68451401D01*
X126468599Y-68618495D01*
X126548314Y-68674312D01*
X126662165Y-68754032D01*
X126662167Y-68754033D01*
X126662170Y-68754035D01*
X126876337Y-68853903D01*
X127104592Y-68915063D01*
X127292918Y-68931539D01*
X127339999Y-68935659D01*
X127340000Y-68935659D01*
X127340001Y-68935659D01*
X127379234Y-68932226D01*
X127575408Y-68915063D01*
X127803663Y-68853903D01*
X128017830Y-68754035D01*
X128211401Y-68618495D01*
X128378495Y-68451401D01*
X128514035Y-68257830D01*
X128613903Y-68043663D01*
X128675063Y-67815408D01*
X128695659Y-67580000D01*
X128675063Y-67344592D01*
X128613903Y-67116337D01*
X128514035Y-66902171D01*
X128508731Y-66894595D01*
X128378494Y-66708597D01*
X128211402Y-66541506D01*
X128211396Y-66541501D01*
X128025842Y-66411575D01*
X127982217Y-66356998D01*
X127975023Y-66287500D01*
X128006546Y-66225145D01*
X128025842Y-66208425D01*
X128086044Y-66166271D01*
X128211401Y-66078495D01*
X128378495Y-65911401D01*
X128514035Y-65717830D01*
X128613903Y-65503663D01*
X128675063Y-65275408D01*
X128695659Y-65040000D01*
X128677477Y-64832186D01*
X128691243Y-64763688D01*
X128713317Y-64733706D01*
X128958714Y-64488309D01*
X129020029Y-64454829D01*
X129089721Y-64459813D01*
X129145655Y-64501684D01*
X129164094Y-64536990D01*
X129189547Y-64613802D01*
X129189551Y-64613811D01*
X129280052Y-64760534D01*
X129280055Y-64760538D01*
X129293982Y-64774465D01*
X129327467Y-64835788D01*
X129322483Y-64905480D01*
X129293984Y-64949825D01*
X129279661Y-64964148D01*
X129189093Y-65110981D01*
X129189091Y-65110986D01*
X129180296Y-65137528D01*
X129134826Y-65274747D01*
X129134826Y-65274748D01*
X129134825Y-65274748D01*
X129124500Y-65375815D01*
X129124500Y-66074169D01*
X129124501Y-66074187D01*
X129134825Y-66175252D01*
X129151459Y-66225449D01*
X129189092Y-66339016D01*
X129279660Y-66485850D01*
X129401650Y-66607840D01*
X129548484Y-66698408D01*
X129712247Y-66752674D01*
X129813323Y-66763000D01*
X130252195Y-66762999D01*
X130319234Y-66782683D01*
X130364989Y-66835487D01*
X130374933Y-66904646D01*
X130345908Y-66968202D01*
X130293151Y-67004040D01*
X130283638Y-67007368D01*
X130130896Y-67103343D01*
X130003343Y-67230896D01*
X129907370Y-67383635D01*
X129847790Y-67553904D01*
X129847789Y-67553909D01*
X129827594Y-67733155D01*
X129827594Y-67733162D01*
X129847789Y-67912408D01*
X129847790Y-67912413D01*
X129907370Y-68082682D01*
X129982508Y-68202262D01*
X130003343Y-68235421D01*
X130130897Y-68362975D01*
X130221239Y-68419741D01*
X130271627Y-68451402D01*
X130283637Y-68458948D01*
X130385576Y-68494618D01*
X130453904Y-68518527D01*
X130453909Y-68518528D01*
X130633155Y-68538724D01*
X130633159Y-68538724D01*
X130633163Y-68538724D01*
X130812408Y-68518528D01*
X130812410Y-68518527D01*
X130812414Y-68518527D01*
X130812417Y-68518525D01*
X130812421Y-68518525D01*
X130880744Y-68494618D01*
X130921699Y-68487659D01*
X130994500Y-68487659D01*
X131061539Y-68507344D01*
X131107294Y-68560148D01*
X131118500Y-68611659D01*
X131118500Y-70386844D01*
X131098815Y-70453883D01*
X131046011Y-70499638D01*
X130985654Y-70510528D01*
X130760002Y-70494390D01*
X130759999Y-70494390D01*
X130474566Y-70514804D01*
X130194962Y-70575628D01*
X129926833Y-70675635D01*
X129675690Y-70812770D01*
X129675682Y-70812775D01*
X129446612Y-70984254D01*
X129446594Y-70984270D01*
X129244270Y-71186594D01*
X129244254Y-71186612D01*
X129072775Y-71415682D01*
X129072770Y-71415690D01*
X128935635Y-71666833D01*
X128835628Y-71934962D01*
X128774804Y-72214566D01*
X128754390Y-72499998D01*
X128754390Y-72500001D01*
X128774804Y-72785433D01*
X128835628Y-73065037D01*
X128835630Y-73065043D01*
X128835631Y-73065046D01*
X128935632Y-73333157D01*
X128935635Y-73333166D01*
X129072770Y-73584309D01*
X129072775Y-73584317D01*
X129244254Y-73813387D01*
X129244270Y-73813405D01*
X129446594Y-74015729D01*
X129446612Y-74015745D01*
X129675682Y-74187224D01*
X129675690Y-74187229D01*
X129926833Y-74324364D01*
X129926832Y-74324364D01*
X129926836Y-74324365D01*
X129926839Y-74324367D01*
X130194954Y-74424369D01*
X130194960Y-74424370D01*
X130194962Y-74424371D01*
X130474566Y-74485195D01*
X130474568Y-74485195D01*
X130474572Y-74485196D01*
X130728220Y-74503337D01*
X130759999Y-74505610D01*
X130760000Y-74505610D01*
X130760001Y-74505610D01*
X130788595Y-74503564D01*
X131045428Y-74485196D01*
X131274278Y-74435413D01*
X131325037Y-74424371D01*
X131325037Y-74424370D01*
X131325046Y-74424369D01*
X131593161Y-74324367D01*
X131844315Y-74187226D01*
X132073395Y-74015739D01*
X132073405Y-74015729D01*
X132106819Y-73982316D01*
X132168142Y-73948831D01*
X132237834Y-73953815D01*
X132293767Y-73995687D01*
X132318184Y-74061151D01*
X132318500Y-74069997D01*
X132318500Y-81783507D01*
X132298815Y-81850546D01*
X132282181Y-81871188D01*
X131315296Y-82838072D01*
X131315295Y-82838073D01*
X131218822Y-82982456D01*
X131152377Y-83142871D01*
X131152374Y-83142883D01*
X131138355Y-83213361D01*
X131105970Y-83275272D01*
X131055744Y-83306875D01*
X131030668Y-83315184D01*
X130881342Y-83407289D01*
X130757289Y-83531342D01*
X130665187Y-83680663D01*
X130665185Y-83680668D01*
X130642713Y-83748484D01*
X130610001Y-83847203D01*
X130610001Y-83847204D01*
X130610000Y-83847204D01*
X130599500Y-83949983D01*
X130599500Y-83994500D01*
X130579815Y-84061539D01*
X130527011Y-84107294D01*
X130475500Y-84118500D01*
X129524499Y-84118500D01*
X129457460Y-84098815D01*
X129411705Y-84046011D01*
X129400499Y-83994500D01*
X129400499Y-83949998D01*
X129400498Y-83949981D01*
X129389999Y-83847203D01*
X129389998Y-83847200D01*
X129334814Y-83680666D01*
X129242712Y-83531344D01*
X129118656Y-83407288D01*
X128984436Y-83324501D01*
X128969336Y-83315187D01*
X128969331Y-83315185D01*
X128944253Y-83306875D01*
X128802797Y-83260001D01*
X128802795Y-83260000D01*
X128700010Y-83249500D01*
X127299998Y-83249500D01*
X127299981Y-83249501D01*
X127197203Y-83260000D01*
X127197200Y-83260001D01*
X127030668Y-83315185D01*
X127030663Y-83315187D01*
X126881342Y-83407289D01*
X126757289Y-83531342D01*
X126665187Y-83680663D01*
X126665185Y-83680668D01*
X126642713Y-83748484D01*
X126610001Y-83847203D01*
X126610001Y-83847204D01*
X126610000Y-83847204D01*
X126599500Y-83949983D01*
X126599500Y-83994500D01*
X126579815Y-84061539D01*
X126527011Y-84107294D01*
X126475500Y-84118500D01*
X125524499Y-84118500D01*
X125457460Y-84098815D01*
X125411705Y-84046011D01*
X125400499Y-83994500D01*
X125400499Y-83949998D01*
X125400498Y-83949981D01*
X125389999Y-83847203D01*
X125389998Y-83847200D01*
X125334814Y-83680666D01*
X125242712Y-83531344D01*
X125118656Y-83407288D01*
X124984436Y-83324501D01*
X124969336Y-83315187D01*
X124969331Y-83315185D01*
X124944253Y-83306875D01*
X124802797Y-83260001D01*
X124802795Y-83260000D01*
X124700010Y-83249500D01*
X123299998Y-83249500D01*
X123299981Y-83249501D01*
X123197203Y-83260000D01*
X123197200Y-83260001D01*
X123030668Y-83315185D01*
X123030663Y-83315187D01*
X122881342Y-83407289D01*
X122757289Y-83531342D01*
X122665187Y-83680663D01*
X122665185Y-83680668D01*
X122642713Y-83748484D01*
X122610001Y-83847203D01*
X122610001Y-83847204D01*
X122610000Y-83847204D01*
X122599500Y-83949983D01*
X122599500Y-86050001D01*
X122599501Y-86050018D01*
X122610000Y-86152796D01*
X122610001Y-86152799D01*
X122665185Y-86319331D01*
X122665187Y-86319336D01*
X122757289Y-86468657D01*
X122881344Y-86592712D01*
X122889465Y-86597721D01*
X122936190Y-86649668D01*
X122947413Y-86718631D01*
X122941411Y-86744215D01*
X122914631Y-86820745D01*
X122914630Y-86820750D01*
X122894435Y-86999996D01*
X122894435Y-87000003D01*
X122914630Y-87179249D01*
X122914633Y-87179262D01*
X122941410Y-87255784D01*
X122944972Y-87325563D01*
X122910244Y-87386190D01*
X122889470Y-87402275D01*
X122881345Y-87407286D01*
X122757287Y-87531345D01*
X122665187Y-87680663D01*
X122665185Y-87680668D01*
X122647330Y-87734551D01*
X122610001Y-87847203D01*
X122610001Y-87847204D01*
X122610000Y-87847204D01*
X122599500Y-87949983D01*
X122599500Y-90050001D01*
X122599501Y-90050018D01*
X122610000Y-90152796D01*
X122610001Y-90152799D01*
X122665185Y-90319331D01*
X122665187Y-90319336D01*
X122693232Y-90364804D01*
X122757288Y-90468656D01*
X122881344Y-90592712D01*
X123030666Y-90684814D01*
X123160505Y-90727838D01*
X123217949Y-90767609D01*
X123244772Y-90832125D01*
X123245500Y-90845543D01*
X123245500Y-107170552D01*
X123245499Y-107170578D01*
X123245499Y-107175688D01*
X123245499Y-107324312D01*
X123245499Y-107324314D01*
X123245498Y-107324314D01*
X123274493Y-107470073D01*
X123274496Y-107470083D01*
X123331366Y-107607381D01*
X123331372Y-107607392D01*
X123413942Y-107730968D01*
X123413943Y-107730969D01*
X125763681Y-110080706D01*
X125797166Y-110142029D01*
X125800000Y-110168387D01*
X125800000Y-110549952D01*
X125780315Y-110616991D01*
X125765261Y-110636025D01*
X123136572Y-113362073D01*
X123075867Y-113396667D01*
X123047311Y-113400000D01*
X121624500Y-113400000D01*
X121557461Y-113380315D01*
X121511706Y-113327511D01*
X121500500Y-113276000D01*
X121500500Y-77319997D01*
X123844723Y-77319997D01*
X123844723Y-77320002D01*
X123863793Y-77537975D01*
X123863793Y-77537979D01*
X123920422Y-77749322D01*
X123920424Y-77749326D01*
X123920425Y-77749330D01*
X123966661Y-77848484D01*
X124012897Y-77947638D01*
X124033007Y-77976358D01*
X124138402Y-78126877D01*
X124293123Y-78281598D01*
X124472361Y-78407102D01*
X124670670Y-78499575D01*
X124882023Y-78556207D01*
X125064926Y-78572208D01*
X125099998Y-78575277D01*
X125100000Y-78575277D01*
X125100002Y-78575277D01*
X125128254Y-78572805D01*
X125317977Y-78556207D01*
X125529330Y-78499575D01*
X125719381Y-78410952D01*
X125788455Y-78400461D01*
X125852239Y-78428980D01*
X125859464Y-78435654D01*
X125901650Y-78477840D01*
X126048484Y-78568408D01*
X126212247Y-78622674D01*
X126313323Y-78633000D01*
X126886676Y-78632999D01*
X126886684Y-78632998D01*
X126886687Y-78632998D01*
X126942030Y-78627344D01*
X126987753Y-78622674D01*
X127151516Y-78568408D01*
X127298350Y-78477840D01*
X127420340Y-78355850D01*
X127510908Y-78209016D01*
X127565174Y-78045253D01*
X127575500Y-77944177D01*
X127575499Y-77245824D01*
X127565174Y-77144747D01*
X127510908Y-76980984D01*
X127420340Y-76834150D01*
X127406017Y-76819827D01*
X127372532Y-76758504D01*
X127377516Y-76688812D01*
X127406021Y-76644460D01*
X127419947Y-76630535D01*
X127510448Y-76483811D01*
X127510453Y-76483800D01*
X127564680Y-76320152D01*
X127574999Y-76219154D01*
X127575000Y-76219141D01*
X127575000Y-76120000D01*
X125613115Y-76120000D01*
X125577971Y-76139189D01*
X125519523Y-76137797D01*
X125317977Y-76083793D01*
X125100002Y-76064723D01*
X125099998Y-76064723D01*
X124963396Y-76076674D01*
X124882023Y-76083793D01*
X124882020Y-76083793D01*
X124670677Y-76140422D01*
X124670668Y-76140426D01*
X124472361Y-76232898D01*
X124472357Y-76232900D01*
X124293121Y-76358402D01*
X124138402Y-76513121D01*
X124012900Y-76692357D01*
X124012898Y-76692361D01*
X123920426Y-76890668D01*
X123920422Y-76890677D01*
X123863793Y-77102020D01*
X123863793Y-77102024D01*
X123844723Y-77319997D01*
X121500500Y-77319997D01*
X121500500Y-75520845D01*
X125625000Y-75520845D01*
X125625000Y-75620000D01*
X126350000Y-75620000D01*
X126850000Y-75620000D01*
X127574999Y-75620000D01*
X127574999Y-75520860D01*
X127574998Y-75520845D01*
X127564680Y-75419847D01*
X127510453Y-75256199D01*
X127510448Y-75256188D01*
X127419947Y-75109465D01*
X127419944Y-75109461D01*
X127318164Y-75007681D01*
X127284679Y-74946358D01*
X127289663Y-74876666D01*
X127318164Y-74832319D01*
X127419944Y-74730538D01*
X127419947Y-74730534D01*
X127510448Y-74583811D01*
X127510453Y-74583800D01*
X127564680Y-74420152D01*
X127574999Y-74319154D01*
X127575000Y-74319141D01*
X127575000Y-74220000D01*
X126850000Y-74220000D01*
X126850000Y-75620000D01*
X126350000Y-75620000D01*
X126350000Y-74220000D01*
X125625001Y-74220000D01*
X125625001Y-74319154D01*
X125635319Y-74420152D01*
X125689546Y-74583800D01*
X125689551Y-74583811D01*
X125780052Y-74730534D01*
X125881836Y-74832319D01*
X125915320Y-74893642D01*
X125910336Y-74963334D01*
X125881836Y-75007681D01*
X125780052Y-75109465D01*
X125689551Y-75256188D01*
X125689546Y-75256199D01*
X125635319Y-75419847D01*
X125625000Y-75520845D01*
X121500500Y-75520845D01*
X121500500Y-72439998D01*
X123844723Y-72439998D01*
X123845028Y-72443483D01*
X123845500Y-72454293D01*
X123845500Y-72514312D01*
X123854398Y-72559051D01*
X123856308Y-72572431D01*
X123863792Y-72657972D01*
X123863794Y-72657982D01*
X123920422Y-72869322D01*
X123920424Y-72869326D01*
X123920425Y-72869330D01*
X123966661Y-72968484D01*
X124012897Y-73067638D01*
X124012898Y-73067639D01*
X124138402Y-73246877D01*
X124293123Y-73401598D01*
X124472361Y-73527102D01*
X124670670Y-73619575D01*
X124670676Y-73619576D01*
X124670677Y-73619577D01*
X124701364Y-73627799D01*
X124882023Y-73676207D01*
X125064926Y-73692208D01*
X125099998Y-73695277D01*
X125100000Y-73695277D01*
X125100002Y-73695277D01*
X125211320Y-73685538D01*
X125317977Y-73676207D01*
X125468911Y-73635764D01*
X125538755Y-73637427D01*
X125596618Y-73676589D01*
X125607874Y-73702874D01*
X125625000Y-73720000D01*
X127574999Y-73720000D01*
X127574999Y-73620860D01*
X127574998Y-73620845D01*
X127564680Y-73519847D01*
X127510453Y-73356199D01*
X127510448Y-73356188D01*
X127419947Y-73209465D01*
X127419944Y-73209461D01*
X127406017Y-73195534D01*
X127372532Y-73134211D01*
X127377516Y-73064519D01*
X127406017Y-73020172D01*
X127420340Y-73005850D01*
X127510908Y-72859016D01*
X127565174Y-72695253D01*
X127575500Y-72594177D01*
X127575499Y-71895824D01*
X127575312Y-71893997D01*
X127565174Y-71794747D01*
X127528881Y-71685224D01*
X127510908Y-71630984D01*
X127420340Y-71484150D01*
X127298350Y-71362160D01*
X127151516Y-71271592D01*
X126987753Y-71217326D01*
X126987751Y-71217325D01*
X126886678Y-71207000D01*
X126313330Y-71207000D01*
X126313312Y-71207001D01*
X126212247Y-71217325D01*
X126048484Y-71271592D01*
X126048481Y-71271593D01*
X125901638Y-71362167D01*
X125898540Y-71364617D01*
X125896019Y-71365633D01*
X125895503Y-71365952D01*
X125895448Y-71365863D01*
X125833742Y-71390750D01*
X125765101Y-71377702D01*
X125750519Y-71368918D01*
X125727642Y-71352900D01*
X125727639Y-71352898D01*
X125529330Y-71260425D01*
X125529326Y-71260424D01*
X125529322Y-71260422D01*
X125317977Y-71203793D01*
X125100002Y-71184723D01*
X125099998Y-71184723D01*
X124954682Y-71197436D01*
X124882023Y-71203793D01*
X124882020Y-71203793D01*
X124670677Y-71260422D01*
X124670668Y-71260426D01*
X124472361Y-71352898D01*
X124472357Y-71352900D01*
X124293121Y-71478402D01*
X124138402Y-71633121D01*
X124012900Y-71812357D01*
X124012898Y-71812361D01*
X123920426Y-72010668D01*
X123920422Y-72010677D01*
X123863794Y-72222017D01*
X123863792Y-72222026D01*
X123856308Y-72307569D01*
X123854398Y-72320948D01*
X123845500Y-72365687D01*
X123845500Y-72425706D01*
X123845028Y-72436513D01*
X123844723Y-72439998D01*
X121500500Y-72439998D01*
X121500500Y-57824000D01*
X121520185Y-57756961D01*
X121572989Y-57711206D01*
X121624500Y-57700000D01*
X125899998Y-57700000D01*
X125900000Y-57700000D01*
X126866875Y-56807499D01*
X127164376Y-56532884D01*
X127226989Y-56501877D01*
X127248483Y-56500000D01*
X131348638Y-56500000D01*
X131415677Y-56519685D01*
G37*
%TD.AperFunction*%
%TA.AperFunction,Conductor*%
G36*
X126542540Y-85901185D02*
G01*
X126588295Y-85953989D01*
X126599501Y-86005500D01*
X126599501Y-86050018D01*
X126610000Y-86152796D01*
X126610001Y-86152799D01*
X126665185Y-86319331D01*
X126665189Y-86319340D01*
X126741407Y-86442909D01*
X126759847Y-86510301D01*
X126740863Y-86573975D01*
X126724209Y-86600479D01*
X126664633Y-86770737D01*
X126664630Y-86770750D01*
X126644435Y-86949996D01*
X126644435Y-86950003D01*
X126664630Y-87129249D01*
X126664631Y-87129254D01*
X126724211Y-87299524D01*
X126773818Y-87378471D01*
X126792819Y-87445708D01*
X126772452Y-87512543D01*
X126761759Y-87525675D01*
X126761766Y-87525681D01*
X126757290Y-87531341D01*
X126757288Y-87531343D01*
X126757288Y-87531344D01*
X126750175Y-87542876D01*
X126665187Y-87680663D01*
X126665185Y-87680668D01*
X126647330Y-87734551D01*
X126610001Y-87847203D01*
X126610001Y-87847204D01*
X126610000Y-87847204D01*
X126599500Y-87949983D01*
X126599500Y-90050001D01*
X126599501Y-90050018D01*
X126610000Y-90152796D01*
X126610001Y-90152799D01*
X126665185Y-90319331D01*
X126665187Y-90319336D01*
X126693232Y-90364804D01*
X126757288Y-90468656D01*
X126881344Y-90592712D01*
X127030666Y-90684814D01*
X127197203Y-90739999D01*
X127299991Y-90750500D01*
X128309906Y-90750499D01*
X128376945Y-90770183D01*
X128422700Y-90822987D01*
X128432644Y-90892146D01*
X128403619Y-90955702D01*
X128379758Y-90976952D01*
X128305524Y-91027563D01*
X128113198Y-91206014D01*
X127949614Y-91411143D01*
X127818432Y-91638356D01*
X127722582Y-91882578D01*
X127722576Y-91882597D01*
X127664197Y-92138374D01*
X127664196Y-92138379D01*
X127644592Y-92399995D01*
X127644592Y-92400004D01*
X127664196Y-92661620D01*
X127664197Y-92661625D01*
X127722576Y-92917402D01*
X127722578Y-92917407D01*
X127722580Y-92917416D01*
X127818432Y-93161643D01*
X127949614Y-93388857D01*
X127970697Y-93415294D01*
X128113198Y-93593985D01*
X128294753Y-93762441D01*
X128305521Y-93772433D01*
X128522296Y-93920228D01*
X128522301Y-93920230D01*
X128522302Y-93920231D01*
X128522303Y-93920232D01*
X128647843Y-93980688D01*
X128758673Y-94034061D01*
X128758674Y-94034061D01*
X128758677Y-94034063D01*
X129009385Y-94111396D01*
X129268818Y-94150500D01*
X129531176Y-94150500D01*
X129531182Y-94150500D01*
X129619354Y-94137209D01*
X129688574Y-94146681D01*
X129725513Y-94172143D01*
X130582181Y-95028811D01*
X130615666Y-95090134D01*
X130618500Y-95116492D01*
X130618500Y-98860973D01*
X130598815Y-98928012D01*
X130581583Y-98949249D01*
X128336213Y-101164276D01*
X128274663Y-101197343D01*
X128249130Y-101200000D01*
X125999999Y-101200000D01*
X125800000Y-101399999D01*
X125800000Y-107683613D01*
X125780315Y-107750652D01*
X125727511Y-107796407D01*
X125658353Y-107806351D01*
X125594797Y-107777326D01*
X125588319Y-107771294D01*
X124790819Y-106973794D01*
X124757334Y-106912471D01*
X124754500Y-106886113D01*
X124754500Y-98349998D01*
X125444891Y-98349998D01*
X125444891Y-98350001D01*
X125465300Y-98635362D01*
X125526109Y-98914895D01*
X125626091Y-99182958D01*
X125763191Y-99434038D01*
X125763196Y-99434046D01*
X125869882Y-99576562D01*
X125869883Y-99576563D01*
X126848958Y-98597488D01*
X126873978Y-98657890D01*
X126945112Y-98764351D01*
X127035649Y-98854888D01*
X127142110Y-98926022D01*
X127202511Y-98951041D01*
X126223435Y-99930115D01*
X126223436Y-99930116D01*
X126365953Y-100036803D01*
X126365961Y-100036808D01*
X126617042Y-100173908D01*
X126617041Y-100173908D01*
X126885104Y-100273890D01*
X127164637Y-100334699D01*
X127449999Y-100355109D01*
X127450001Y-100355109D01*
X127735362Y-100334699D01*
X128014895Y-100273890D01*
X128282958Y-100173908D01*
X128534038Y-100036808D01*
X128534039Y-100036807D01*
X128676563Y-99930115D01*
X127697488Y-98951041D01*
X127757890Y-98926022D01*
X127864351Y-98854888D01*
X127954888Y-98764351D01*
X128026022Y-98657890D01*
X128051041Y-98597488D01*
X129030115Y-99576563D01*
X129136807Y-99434039D01*
X129136808Y-99434038D01*
X129273908Y-99182958D01*
X129373890Y-98914895D01*
X129434699Y-98635362D01*
X129455109Y-98350001D01*
X129455109Y-98349998D01*
X129434699Y-98064637D01*
X129373890Y-97785104D01*
X129273908Y-97517041D01*
X129136808Y-97265961D01*
X129136803Y-97265953D01*
X129030116Y-97123436D01*
X129030115Y-97123435D01*
X128051041Y-98102510D01*
X128026022Y-98042110D01*
X127954888Y-97935649D01*
X127864351Y-97845112D01*
X127757890Y-97773978D01*
X127697487Y-97748958D01*
X128676563Y-96769883D01*
X128676562Y-96769882D01*
X128534046Y-96663196D01*
X128534038Y-96663191D01*
X128282957Y-96526091D01*
X128282958Y-96526091D01*
X128014895Y-96426109D01*
X127735362Y-96365300D01*
X127450001Y-96344891D01*
X127449999Y-96344891D01*
X127164637Y-96365300D01*
X126885104Y-96426109D01*
X126617041Y-96526091D01*
X126365961Y-96663191D01*
X126365953Y-96663196D01*
X126223435Y-96769882D01*
X127202512Y-97748958D01*
X127142110Y-97773978D01*
X127035649Y-97845112D01*
X126945112Y-97935649D01*
X126873978Y-98042110D01*
X126848958Y-98102511D01*
X125869882Y-97123435D01*
X125763196Y-97265953D01*
X125763191Y-97265961D01*
X125626091Y-97517041D01*
X125526109Y-97785104D01*
X125465300Y-98064637D01*
X125444891Y-98349998D01*
X124754500Y-98349998D01*
X124754500Y-90845544D01*
X124774185Y-90778505D01*
X124826989Y-90732750D01*
X124839496Y-90727838D01*
X124839499Y-90727837D01*
X124969334Y-90684814D01*
X125118656Y-90592712D01*
X125242712Y-90468656D01*
X125334814Y-90319334D01*
X125389999Y-90152797D01*
X125400500Y-90050009D01*
X125400499Y-87949992D01*
X125389999Y-87847203D01*
X125334814Y-87680666D01*
X125242712Y-87531344D01*
X125118656Y-87407288D01*
X124969334Y-87315186D01*
X124969331Y-87315185D01*
X124826928Y-87267997D01*
X124769483Y-87228224D01*
X124744315Y-87174482D01*
X124738860Y-87147059D01*
X124725505Y-87079921D01*
X124724599Y-87077734D01*
X124720828Y-87068629D01*
X124720828Y-87068630D01*
X124701946Y-87023045D01*
X124690208Y-86994707D01*
X124668633Y-86942618D01*
X124668632Y-86942617D01*
X124668630Y-86942611D01*
X124664936Y-86937082D01*
X124644060Y-86870404D01*
X124662546Y-86803025D01*
X124714526Y-86756336D01*
X124755436Y-86744836D01*
X124802797Y-86739999D01*
X124969334Y-86684814D01*
X125118656Y-86592712D01*
X125242712Y-86468656D01*
X125334814Y-86319334D01*
X125389999Y-86152797D01*
X125400500Y-86050009D01*
X125400500Y-86005500D01*
X125420185Y-85938461D01*
X125472989Y-85892706D01*
X125524500Y-85881500D01*
X126475501Y-85881500D01*
X126542540Y-85901185D01*
G37*
%TD.AperFunction*%
%TA.AperFunction,Conductor*%
G36*
X136788190Y-92583602D02*
G01*
X136817788Y-92646892D01*
X136808470Y-92716138D01*
X136785365Y-92750789D01*
X135701513Y-93898397D01*
X135698446Y-93901532D01*
X132592583Y-96965424D01*
X132531033Y-96998491D01*
X132461377Y-96993032D01*
X132405730Y-96950781D01*
X132381759Y-96885152D01*
X132381500Y-96877148D01*
X132381500Y-94613177D01*
X132347625Y-94442881D01*
X132347624Y-94442880D01*
X132347624Y-94442876D01*
X132347622Y-94442871D01*
X132281176Y-94282455D01*
X132217276Y-94186821D01*
X132184704Y-94138073D01*
X132184701Y-94138070D01*
X131461924Y-93415294D01*
X131102873Y-93056243D01*
X131069388Y-92994920D01*
X131074372Y-92925228D01*
X131075083Y-92923368D01*
X131077420Y-92917416D01*
X131132087Y-92677906D01*
X131166194Y-92616929D01*
X131227856Y-92584071D01*
X131252977Y-92581500D01*
X136486823Y-92581500D01*
X136657109Y-92547627D01*
X136657109Y-92547626D01*
X136657124Y-92547624D01*
X136657137Y-92547618D01*
X136659206Y-92546991D01*
X136660360Y-92546980D01*
X136663098Y-92546436D01*
X136663201Y-92546954D01*
X136729073Y-92546360D01*
X136788190Y-92583602D01*
G37*
%TD.AperFunction*%
%TA.AperFunction,Conductor*%
G36*
X149299998Y-60899999D02*
G01*
X149299999Y-60900000D01*
X150029198Y-61590819D01*
X151161281Y-62663318D01*
X151196410Y-62723713D01*
X151200000Y-62753335D01*
X151200000Y-66300000D01*
X152556699Y-67462885D01*
X152594788Y-67521458D01*
X152600000Y-67557031D01*
X152600000Y-71517310D01*
X152584832Y-71576737D01*
X152535635Y-71666833D01*
X152435628Y-71934962D01*
X152374804Y-72214566D01*
X152354390Y-72499998D01*
X152354390Y-72500001D01*
X152374804Y-72785433D01*
X152435628Y-73065037D01*
X152435630Y-73065043D01*
X152435631Y-73065046D01*
X152535633Y-73333161D01*
X152584833Y-73423264D01*
X152600000Y-73482687D01*
X152600000Y-82231272D01*
X152580315Y-82298311D01*
X152541720Y-82336424D01*
X152155000Y-82578124D01*
X152155000Y-82578125D01*
X151900000Y-82737500D01*
X150075001Y-82737500D01*
X150048820Y-82763681D01*
X149987497Y-82797166D01*
X149961139Y-82800000D01*
X147638862Y-82800000D01*
X147571823Y-82780315D01*
X147551181Y-82763681D01*
X147525000Y-82737500D01*
X145575001Y-82737500D01*
X145548820Y-82763681D01*
X145487497Y-82797166D01*
X145461139Y-82800000D01*
X143138862Y-82800000D01*
X143071823Y-82780315D01*
X143051181Y-82763681D01*
X143025000Y-82737500D01*
X141075001Y-82737500D01*
X141048820Y-82763681D01*
X140987497Y-82797166D01*
X140961139Y-82800000D01*
X140800000Y-82800000D01*
X140489952Y-82982380D01*
X140427082Y-82999500D01*
X139149998Y-82999500D01*
X139149981Y-82999501D01*
X139047203Y-83010000D01*
X139047200Y-83010001D01*
X138880668Y-83065185D01*
X138880663Y-83065187D01*
X138731342Y-83157289D01*
X138607289Y-83281342D01*
X138515187Y-83430663D01*
X138515185Y-83430668D01*
X138498951Y-83479660D01*
X138460001Y-83597203D01*
X138460001Y-83597204D01*
X138460000Y-83597204D01*
X138449500Y-83699983D01*
X138449500Y-84600001D01*
X138449501Y-84600019D01*
X138460000Y-84702796D01*
X138460001Y-84702799D01*
X138515185Y-84869331D01*
X138515186Y-84869334D01*
X138607288Y-85018656D01*
X138731344Y-85142712D01*
X138804499Y-85187834D01*
X138822539Y-85198961D01*
X138869263Y-85250909D01*
X138880486Y-85319872D01*
X138852642Y-85383954D01*
X138794574Y-85422810D01*
X138757442Y-85428500D01*
X137726491Y-85428500D01*
X137659452Y-85408815D01*
X137638810Y-85392181D01*
X137436818Y-85190189D01*
X137403333Y-85128866D01*
X137400499Y-85102508D01*
X137400499Y-83949998D01*
X137400498Y-83949981D01*
X137389999Y-83847203D01*
X137389998Y-83847200D01*
X137334814Y-83680666D01*
X137242712Y-83531344D01*
X137118656Y-83407288D01*
X136984436Y-83324501D01*
X136969336Y-83315187D01*
X136969331Y-83315185D01*
X136944253Y-83306875D01*
X136802797Y-83260001D01*
X136802795Y-83260000D01*
X136700010Y-83249500D01*
X135299998Y-83249500D01*
X135299981Y-83249501D01*
X135197203Y-83260000D01*
X135197200Y-83260001D01*
X135030668Y-83315185D01*
X135030663Y-83315187D01*
X134881342Y-83407289D01*
X134757289Y-83531342D01*
X134665187Y-83680663D01*
X134665185Y-83680668D01*
X134642713Y-83748484D01*
X134610001Y-83847203D01*
X134610001Y-83847204D01*
X134610000Y-83847204D01*
X134599500Y-83949983D01*
X134599500Y-83994500D01*
X134579815Y-84061539D01*
X134527011Y-84107294D01*
X134475500Y-84118500D01*
X133524499Y-84118500D01*
X133457460Y-84098815D01*
X133411705Y-84046011D01*
X133400499Y-83994500D01*
X133400499Y-83949998D01*
X133400498Y-83949981D01*
X133389999Y-83847203D01*
X133389998Y-83847200D01*
X133334814Y-83680666D01*
X133245567Y-83535974D01*
X133227129Y-83468586D01*
X133248051Y-83401922D01*
X133263421Y-83383206D01*
X133884705Y-82761924D01*
X133915863Y-82715294D01*
X133981175Y-82617547D01*
X134028573Y-82503117D01*
X134072411Y-82448717D01*
X134138705Y-82426651D01*
X134206404Y-82443929D01*
X134230813Y-82462891D01*
X134297738Y-82529816D01*
X134450478Y-82625789D01*
X134620745Y-82685368D01*
X134620750Y-82685369D01*
X134799996Y-82705565D01*
X134800000Y-82705565D01*
X134800004Y-82705565D01*
X134979249Y-82685369D01*
X134979252Y-82685368D01*
X134979255Y-82685368D01*
X135149522Y-82625789D01*
X135302262Y-82529816D01*
X135429816Y-82402262D01*
X135525789Y-82249522D01*
X135547196Y-82188345D01*
X141075000Y-82188345D01*
X141075000Y-82237500D01*
X141800000Y-82237500D01*
X142300000Y-82237500D01*
X143024999Y-82237500D01*
X143024999Y-82188360D01*
X143024998Y-82188345D01*
X145575000Y-82188345D01*
X145575000Y-82237500D01*
X146300000Y-82237500D01*
X146800000Y-82237500D01*
X147524999Y-82237500D01*
X147524999Y-82188360D01*
X147524998Y-82188345D01*
X150075000Y-82188345D01*
X150075000Y-82237500D01*
X150800000Y-82237500D01*
X151300000Y-82237500D01*
X152024999Y-82237500D01*
X152024999Y-82188360D01*
X152024998Y-82188345D01*
X152014680Y-82087347D01*
X151960453Y-81923699D01*
X151960448Y-81923688D01*
X151869947Y-81776965D01*
X151869944Y-81776961D01*
X151748038Y-81655055D01*
X151748034Y-81655052D01*
X151601311Y-81564551D01*
X151601300Y-81564546D01*
X151437652Y-81510319D01*
X151336654Y-81500000D01*
X151300000Y-81500000D01*
X151300000Y-82237500D01*
X150800000Y-82237500D01*
X150800000Y-81500000D01*
X150763361Y-81500000D01*
X150763343Y-81500001D01*
X150662347Y-81510319D01*
X150498699Y-81564546D01*
X150498688Y-81564551D01*
X150351965Y-81655052D01*
X150351961Y-81655055D01*
X150230055Y-81776961D01*
X150230052Y-81776965D01*
X150139551Y-81923688D01*
X150139546Y-81923699D01*
X150085319Y-82087347D01*
X150075000Y-82188345D01*
X147524998Y-82188345D01*
X147514680Y-82087347D01*
X147460453Y-81923699D01*
X147460448Y-81923688D01*
X147369947Y-81776965D01*
X147369944Y-81776961D01*
X147248038Y-81655055D01*
X147248034Y-81655052D01*
X147101311Y-81564551D01*
X147101300Y-81564546D01*
X146937652Y-81510319D01*
X146836654Y-81500000D01*
X146800000Y-81500000D01*
X146800000Y-82237500D01*
X146300000Y-82237500D01*
X146300000Y-81500000D01*
X146263361Y-81500000D01*
X146263343Y-81500001D01*
X146162347Y-81510319D01*
X145998699Y-81564546D01*
X145998688Y-81564551D01*
X145851965Y-81655052D01*
X145851961Y-81655055D01*
X145730055Y-81776961D01*
X145730052Y-81776965D01*
X145639551Y-81923688D01*
X145639546Y-81923699D01*
X145585319Y-82087347D01*
X145575000Y-82188345D01*
X143024998Y-82188345D01*
X143014680Y-82087347D01*
X142960453Y-81923699D01*
X142960448Y-81923688D01*
X142869947Y-81776965D01*
X142869944Y-81776961D01*
X142748038Y-81655055D01*
X142748034Y-81655052D01*
X142601311Y-81564551D01*
X142601300Y-81564546D01*
X142437652Y-81510319D01*
X142336654Y-81500000D01*
X142300000Y-81500000D01*
X142300000Y-82237500D01*
X141800000Y-82237500D01*
X141800000Y-81500000D01*
X141763361Y-81500000D01*
X141763343Y-81500001D01*
X141662347Y-81510319D01*
X141498699Y-81564546D01*
X141498688Y-81564551D01*
X141351965Y-81655052D01*
X141351961Y-81655055D01*
X141230055Y-81776961D01*
X141230052Y-81776965D01*
X141139551Y-81923688D01*
X141139546Y-81923699D01*
X141085319Y-82087347D01*
X141075000Y-82188345D01*
X135547196Y-82188345D01*
X135585368Y-82079255D01*
X135605565Y-81900000D01*
X135593115Y-81789506D01*
X135585369Y-81720750D01*
X135585368Y-81720745D01*
X135530713Y-81564551D01*
X135525789Y-81550478D01*
X135505598Y-81518345D01*
X135429815Y-81397737D01*
X135302261Y-81270183D01*
X135212528Y-81213800D01*
X135166237Y-81161465D01*
X135154500Y-81108806D01*
X135154500Y-81099986D01*
X138450001Y-81099986D01*
X138460494Y-81202697D01*
X138515641Y-81369119D01*
X138515643Y-81369124D01*
X138607684Y-81518345D01*
X138731654Y-81642315D01*
X138880875Y-81734356D01*
X138880880Y-81734358D01*
X139047302Y-81789505D01*
X139047309Y-81789506D01*
X139150019Y-81799999D01*
X139549999Y-81799999D01*
X140050000Y-81799999D01*
X140449972Y-81799999D01*
X140449986Y-81799998D01*
X140552697Y-81789505D01*
X140719119Y-81734358D01*
X140719124Y-81734356D01*
X140868345Y-81642315D01*
X140992315Y-81518345D01*
X141084356Y-81369124D01*
X141084358Y-81369119D01*
X141139505Y-81202697D01*
X141139506Y-81202690D01*
X141149999Y-81099986D01*
X142950001Y-81099986D01*
X142960494Y-81202697D01*
X143015641Y-81369119D01*
X143015643Y-81369124D01*
X143107684Y-81518345D01*
X143231654Y-81642315D01*
X143380875Y-81734356D01*
X143380880Y-81734358D01*
X143547302Y-81789505D01*
X143547309Y-81789506D01*
X143650019Y-81799999D01*
X144049999Y-81799999D01*
X144550000Y-81799999D01*
X144949972Y-81799999D01*
X144949986Y-81799998D01*
X145052697Y-81789505D01*
X145219119Y-81734358D01*
X145219124Y-81734356D01*
X145368345Y-81642315D01*
X145492315Y-81518345D01*
X145584356Y-81369124D01*
X145584358Y-81369119D01*
X145639505Y-81202697D01*
X145639506Y-81202690D01*
X145649999Y-81099986D01*
X147450001Y-81099986D01*
X147460494Y-81202697D01*
X147515641Y-81369119D01*
X147515643Y-81369124D01*
X147607684Y-81518345D01*
X147731654Y-81642315D01*
X147880875Y-81734356D01*
X147880880Y-81734358D01*
X148047302Y-81789505D01*
X148047309Y-81789506D01*
X148150019Y-81799999D01*
X148549999Y-81799999D01*
X149050000Y-81799999D01*
X149449972Y-81799999D01*
X149449986Y-81799998D01*
X149552697Y-81789505D01*
X149719119Y-81734358D01*
X149719124Y-81734356D01*
X149868345Y-81642315D01*
X149992315Y-81518345D01*
X150084356Y-81369124D01*
X150084358Y-81369119D01*
X150139505Y-81202697D01*
X150139506Y-81202690D01*
X150149999Y-81099986D01*
X150150000Y-81099973D01*
X150150000Y-80900000D01*
X149050000Y-80900000D01*
X149050000Y-81799999D01*
X148549999Y-81799999D01*
X148550000Y-81799998D01*
X148550000Y-80900000D01*
X147450001Y-80900000D01*
X147450001Y-81099986D01*
X145649999Y-81099986D01*
X145650000Y-81099973D01*
X145650000Y-80900000D01*
X144550000Y-80900000D01*
X144550000Y-81799999D01*
X144049999Y-81799999D01*
X144050000Y-81799998D01*
X144050000Y-80900000D01*
X142950001Y-80900000D01*
X142950001Y-81099986D01*
X141149999Y-81099986D01*
X141150000Y-81099973D01*
X141150000Y-80900000D01*
X140050000Y-80900000D01*
X140050000Y-81799999D01*
X139549999Y-81799999D01*
X139550000Y-81799998D01*
X139550000Y-80900000D01*
X138450001Y-80900000D01*
X138450001Y-81099986D01*
X135154500Y-81099986D01*
X135154500Y-80200013D01*
X138450000Y-80200013D01*
X138450000Y-80400000D01*
X139550000Y-80400000D01*
X140050000Y-80400000D01*
X141149999Y-80400000D01*
X141149999Y-80200028D01*
X141149998Y-80200013D01*
X141139505Y-80097302D01*
X141084358Y-79930880D01*
X141084356Y-79930875D01*
X140992315Y-79781654D01*
X140868345Y-79657684D01*
X140719124Y-79565643D01*
X140719119Y-79565641D01*
X140552697Y-79510494D01*
X140552690Y-79510493D01*
X140449986Y-79500000D01*
X140050000Y-79500000D01*
X140050000Y-80400000D01*
X139550000Y-80400000D01*
X139550000Y-79500000D01*
X139150028Y-79500000D01*
X139150012Y-79500001D01*
X139047302Y-79510494D01*
X138880880Y-79565641D01*
X138880875Y-79565643D01*
X138731654Y-79657684D01*
X138607684Y-79781654D01*
X138515643Y-79930875D01*
X138515641Y-79930880D01*
X138460494Y-80097302D01*
X138460493Y-80097309D01*
X138450000Y-80200013D01*
X135154500Y-80200013D01*
X135154500Y-79785983D01*
X135174185Y-79718944D01*
X135213400Y-79680447D01*
X135310850Y-79620340D01*
X135425175Y-79506014D01*
X135486494Y-79472532D01*
X135556186Y-79477516D01*
X135600534Y-79506017D01*
X135714461Y-79619944D01*
X135714465Y-79619947D01*
X135861188Y-79710448D01*
X135861199Y-79710453D01*
X136024847Y-79764680D01*
X136125851Y-79774999D01*
X136675000Y-79774999D01*
X136724140Y-79774999D01*
X136724154Y-79774998D01*
X136825152Y-79764680D01*
X136988800Y-79710453D01*
X136988811Y-79710448D01*
X137135534Y-79619947D01*
X137135538Y-79619944D01*
X137257444Y-79498038D01*
X137257447Y-79498034D01*
X137347948Y-79351311D01*
X137347953Y-79351300D01*
X137402180Y-79187652D01*
X137412499Y-79086654D01*
X137412500Y-79086641D01*
X137412500Y-79050000D01*
X136675000Y-79050000D01*
X136675000Y-79774999D01*
X136125851Y-79774999D01*
X136174999Y-79774998D01*
X136175000Y-79774998D01*
X136175000Y-78205000D01*
X136161319Y-78191319D01*
X136127834Y-78129996D01*
X136125000Y-78103638D01*
X136125000Y-77695000D01*
X136625000Y-77695000D01*
X136638681Y-77708681D01*
X136672166Y-77770004D01*
X136675000Y-77796362D01*
X136675000Y-78550000D01*
X137412499Y-78550000D01*
X137412499Y-78513360D01*
X137412498Y-78513345D01*
X137402180Y-78412347D01*
X137347953Y-78248699D01*
X137347948Y-78248688D01*
X137257447Y-78101965D01*
X137257444Y-78101961D01*
X137193164Y-78037681D01*
X137159679Y-77976358D01*
X137164663Y-77906666D01*
X137193164Y-77862319D01*
X137257444Y-77798038D01*
X137257447Y-77798034D01*
X137347948Y-77651311D01*
X137347953Y-77651300D01*
X137402180Y-77487652D01*
X137412499Y-77386654D01*
X137412500Y-77386641D01*
X137412500Y-77350000D01*
X136625000Y-77350000D01*
X136625000Y-77695000D01*
X136125000Y-77695000D01*
X136125000Y-76850000D01*
X136625000Y-76850000D01*
X137412499Y-76850000D01*
X137412499Y-76813360D01*
X137412498Y-76813345D01*
X137402180Y-76712347D01*
X137347953Y-76548699D01*
X137347948Y-76548688D01*
X137257447Y-76401965D01*
X137257444Y-76401961D01*
X137135538Y-76280055D01*
X137135534Y-76280052D01*
X136988811Y-76189551D01*
X136988800Y-76189546D01*
X136825152Y-76135319D01*
X136724154Y-76125000D01*
X136625000Y-76125000D01*
X136625000Y-76850000D01*
X136125000Y-76850000D01*
X136125000Y-76124999D01*
X136025860Y-76125000D01*
X136025844Y-76125001D01*
X135924847Y-76135319D01*
X135761199Y-76189546D01*
X135761188Y-76189551D01*
X135614465Y-76280052D01*
X135600532Y-76293985D01*
X135539208Y-76327468D01*
X135469516Y-76322482D01*
X135425172Y-76293982D01*
X135410851Y-76279661D01*
X135410850Y-76279660D01*
X135264016Y-76189092D01*
X135264013Y-76189091D01*
X135239493Y-76180965D01*
X135182049Y-76141191D01*
X135155228Y-76076674D01*
X135154500Y-76063260D01*
X135154500Y-70980446D01*
X135154501Y-70980425D01*
X135154501Y-70825685D01*
X135125506Y-70679926D01*
X135125505Y-70679925D01*
X135125505Y-70679921D01*
X135082306Y-70575628D01*
X135068633Y-70542618D01*
X135068632Y-70542617D01*
X135068630Y-70542611D01*
X135019197Y-70468629D01*
X134986059Y-70419034D01*
X134986057Y-70419031D01*
X134876647Y-70309621D01*
X134876624Y-70309600D01*
X134090819Y-69523794D01*
X134057334Y-69462471D01*
X134054500Y-69436113D01*
X134054500Y-63120886D01*
X134074185Y-63053847D01*
X134126989Y-63008092D01*
X134196147Y-62998148D01*
X134259703Y-63027173D01*
X134266181Y-63033205D01*
X136309181Y-65076205D01*
X136342666Y-65137528D01*
X136345500Y-65163886D01*
X136345500Y-68520552D01*
X136345499Y-68520578D01*
X136345499Y-68674313D01*
X136361358Y-68754035D01*
X136361358Y-68754037D01*
X136374493Y-68820072D01*
X136374496Y-68820084D01*
X136388505Y-68853903D01*
X136431368Y-68957385D01*
X136431372Y-68957392D01*
X136513942Y-69080968D01*
X136513943Y-69080969D01*
X138259600Y-70826624D01*
X138259621Y-70826647D01*
X138369031Y-70936057D01*
X138434523Y-70979817D01*
X138492606Y-71018627D01*
X138492607Y-71018627D01*
X138492611Y-71018630D01*
X138573043Y-71051945D01*
X138573044Y-71051946D01*
X138596603Y-71061704D01*
X138629920Y-71075505D01*
X138629929Y-71075506D01*
X138629930Y-71075507D01*
X138654103Y-71080315D01*
X138654110Y-71080316D01*
X138775686Y-71104501D01*
X138775688Y-71104501D01*
X138930426Y-71104501D01*
X138930446Y-71104500D01*
X139961460Y-71104500D01*
X140002415Y-71111459D01*
X140070737Y-71135366D01*
X140070743Y-71135367D01*
X140070745Y-71135368D01*
X140070746Y-71135368D01*
X140070750Y-71135369D01*
X140249996Y-71155565D01*
X140250000Y-71155565D01*
X140250004Y-71155565D01*
X140429249Y-71135369D01*
X140429252Y-71135368D01*
X140429255Y-71135368D01*
X140599522Y-71075789D01*
X140752262Y-70979816D01*
X140879816Y-70852262D01*
X140889506Y-70836839D01*
X140941841Y-70790549D01*
X141010894Y-70779901D01*
X141074743Y-70808276D01*
X141113115Y-70866665D01*
X141118500Y-70902812D01*
X141118500Y-71883507D01*
X141098815Y-71950546D01*
X141082181Y-71971188D01*
X140240187Y-72813181D01*
X140178864Y-72846666D01*
X140152506Y-72849500D01*
X139652129Y-72849500D01*
X139652123Y-72849501D01*
X139592516Y-72855908D01*
X139457671Y-72906202D01*
X139457664Y-72906206D01*
X139342455Y-72992452D01*
X139342452Y-72992455D01*
X139256206Y-73107664D01*
X139256203Y-73107669D01*
X139207189Y-73239083D01*
X139165317Y-73295016D01*
X139099853Y-73319433D01*
X139031580Y-73304581D01*
X139003326Y-73283430D01*
X138881402Y-73161506D01*
X138881395Y-73161501D01*
X138687834Y-73025967D01*
X138687830Y-73025965D01*
X138644691Y-73005849D01*
X138473663Y-72926097D01*
X138473659Y-72926096D01*
X138473655Y-72926094D01*
X138245413Y-72864938D01*
X138245403Y-72864936D01*
X138010001Y-72844341D01*
X138009999Y-72844341D01*
X137774596Y-72864936D01*
X137774586Y-72864938D01*
X137546344Y-72926094D01*
X137546335Y-72926098D01*
X137332171Y-73025964D01*
X137332169Y-73025965D01*
X137138597Y-73161505D01*
X136971505Y-73328597D01*
X136835965Y-73522169D01*
X136835964Y-73522171D01*
X136736098Y-73736335D01*
X136736094Y-73736344D01*
X136674938Y-73964586D01*
X136674936Y-73964596D01*
X136654341Y-74199999D01*
X136654341Y-74200000D01*
X136674936Y-74435403D01*
X136674938Y-74435413D01*
X136736094Y-74663655D01*
X136736096Y-74663659D01*
X136736097Y-74663663D01*
X136814743Y-74832319D01*
X136835965Y-74877830D01*
X136835967Y-74877834D01*
X136971501Y-75071395D01*
X136971506Y-75071402D01*
X137092181Y-75192077D01*
X137125666Y-75253400D01*
X137128500Y-75279758D01*
X137128500Y-75396821D01*
X137128500Y-75396823D01*
X137128499Y-75396823D01*
X137162374Y-75567118D01*
X137162377Y-75567128D01*
X137228822Y-75727543D01*
X137325295Y-75871926D01*
X137325296Y-75871927D01*
X140315294Y-78861923D01*
X140438077Y-78984706D01*
X140582453Y-79081175D01*
X140629438Y-79100636D01*
X140629439Y-79100637D01*
X140676427Y-79120100D01*
X140742876Y-79147625D01*
X140913175Y-79181499D01*
X140913179Y-79181500D01*
X140913180Y-79181500D01*
X141086821Y-79181500D01*
X143235021Y-79181500D01*
X143302060Y-79201185D01*
X143347815Y-79253989D01*
X143354097Y-79270905D01*
X143398255Y-79422897D01*
X143400742Y-79428644D01*
X143409302Y-79497988D01*
X143379012Y-79560950D01*
X143352039Y-79583429D01*
X143231656Y-79657682D01*
X143107684Y-79781654D01*
X143015643Y-79930875D01*
X143015641Y-79930880D01*
X142960494Y-80097302D01*
X142960493Y-80097309D01*
X142950000Y-80200013D01*
X142950000Y-80400000D01*
X145649999Y-80400000D01*
X145649999Y-80200028D01*
X145649998Y-80200013D01*
X147450000Y-80200013D01*
X147450000Y-80400000D01*
X148550000Y-80400000D01*
X149050000Y-80400000D01*
X150149999Y-80400000D01*
X150149999Y-80200028D01*
X150149998Y-80200013D01*
X150139505Y-80097302D01*
X150084358Y-79930880D01*
X150084356Y-79930875D01*
X149992315Y-79781654D01*
X149868345Y-79657684D01*
X149719124Y-79565643D01*
X149719119Y-79565641D01*
X149552697Y-79510494D01*
X149552690Y-79510493D01*
X149449986Y-79500000D01*
X149050000Y-79500000D01*
X149050000Y-80400000D01*
X148550000Y-80400000D01*
X148550000Y-79500000D01*
X148150028Y-79500000D01*
X148150012Y-79500001D01*
X148047302Y-79510494D01*
X147880880Y-79565641D01*
X147880875Y-79565643D01*
X147731654Y-79657684D01*
X147607684Y-79781654D01*
X147515643Y-79930875D01*
X147515641Y-79930880D01*
X147460494Y-80097302D01*
X147460493Y-80097309D01*
X147450000Y-80200013D01*
X145649998Y-80200013D01*
X145639505Y-80097302D01*
X145584358Y-79930880D01*
X145584356Y-79930875D01*
X145492315Y-79781654D01*
X145368345Y-79657684D01*
X145219124Y-79565643D01*
X145219119Y-79565641D01*
X145052697Y-79510494D01*
X145052691Y-79510493D01*
X145029348Y-79508108D01*
X144964657Y-79481709D01*
X144924507Y-79424527D01*
X144921646Y-79354716D01*
X144922878Y-79350154D01*
X144945902Y-79270905D01*
X144947598Y-79265069D01*
X144950500Y-79228194D01*
X144950500Y-78062000D01*
X144970185Y-77994961D01*
X145022989Y-77949206D01*
X145074500Y-77938000D01*
X145240007Y-77938000D01*
X145307046Y-77957685D01*
X145327688Y-77974319D01*
X145338073Y-77984704D01*
X145482456Y-78081177D01*
X145642871Y-78147622D01*
X145642876Y-78147624D01*
X145642880Y-78147624D01*
X145642881Y-78147625D01*
X145813176Y-78181500D01*
X145813179Y-78181500D01*
X145813180Y-78181500D01*
X145827969Y-78181500D01*
X145895008Y-78201185D01*
X145940763Y-78253989D01*
X145951327Y-78292897D01*
X145960000Y-78377794D01*
X145960000Y-78377795D01*
X145960001Y-78377797D01*
X145979173Y-78435654D01*
X146015186Y-78544335D01*
X146015187Y-78544337D01*
X146107286Y-78693651D01*
X146107289Y-78693655D01*
X146231344Y-78817710D01*
X146231348Y-78817713D01*
X146380662Y-78909812D01*
X146380664Y-78909813D01*
X146380666Y-78909814D01*
X146547203Y-78964999D01*
X146649992Y-78975500D01*
X146649997Y-78975500D01*
X147750003Y-78975500D01*
X147750008Y-78975500D01*
X147852797Y-78964999D01*
X148019334Y-78909814D01*
X148168655Y-78817711D01*
X148292711Y-78693655D01*
X148384814Y-78544334D01*
X148439999Y-78377797D01*
X148450500Y-78275008D01*
X148450500Y-78274985D01*
X149200000Y-78274985D01*
X149210493Y-78377689D01*
X149210494Y-78377696D01*
X149265641Y-78544118D01*
X149265643Y-78544123D01*
X149357684Y-78693344D01*
X149481655Y-78817315D01*
X149630876Y-78909356D01*
X149630881Y-78909358D01*
X149797303Y-78964505D01*
X149797310Y-78964506D01*
X149900014Y-78974999D01*
X149900027Y-78975000D01*
X150200000Y-78975000D01*
X150700000Y-78975000D01*
X150999973Y-78975000D01*
X150999985Y-78974999D01*
X151102689Y-78964506D01*
X151102696Y-78964505D01*
X151269118Y-78909358D01*
X151269123Y-78909356D01*
X151418344Y-78817315D01*
X151542315Y-78693344D01*
X151634356Y-78544123D01*
X151634358Y-78544118D01*
X151689505Y-78377696D01*
X151689506Y-78377689D01*
X151699999Y-78274985D01*
X151700000Y-78274972D01*
X151700000Y-77550000D01*
X150700000Y-77550000D01*
X150700000Y-78975000D01*
X150200000Y-78975000D01*
X150200000Y-77550000D01*
X149200000Y-77550000D01*
X149200000Y-78274985D01*
X148450500Y-78274985D01*
X148450500Y-76325014D01*
X149200000Y-76325014D01*
X149200000Y-77050000D01*
X150200000Y-77050000D01*
X150700000Y-77050000D01*
X151700000Y-77050000D01*
X151700000Y-76325027D01*
X151699999Y-76325014D01*
X151689506Y-76222310D01*
X151689505Y-76222303D01*
X151634358Y-76055881D01*
X151634356Y-76055876D01*
X151542315Y-75906655D01*
X151418344Y-75782684D01*
X151269123Y-75690643D01*
X151269118Y-75690641D01*
X151102696Y-75635494D01*
X151102689Y-75635493D01*
X150999985Y-75625000D01*
X150700000Y-75625000D01*
X150700000Y-77050000D01*
X150200000Y-77050000D01*
X150200000Y-75625000D01*
X149900014Y-75625000D01*
X149797310Y-75635493D01*
X149797303Y-75635494D01*
X149630881Y-75690641D01*
X149630876Y-75690643D01*
X149481655Y-75782684D01*
X149357684Y-75906655D01*
X149265643Y-76055876D01*
X149265641Y-76055881D01*
X149210494Y-76222303D01*
X149210493Y-76222310D01*
X149200000Y-76325014D01*
X148450500Y-76325014D01*
X148450500Y-76324992D01*
X148439999Y-76222203D01*
X148384814Y-76055666D01*
X148363862Y-76021698D01*
X148292713Y-75906348D01*
X148292710Y-75906344D01*
X148168655Y-75782289D01*
X148168651Y-75782286D01*
X148019337Y-75690187D01*
X148019335Y-75690186D01*
X147936065Y-75662593D01*
X147852797Y-75635001D01*
X147852795Y-75635000D01*
X147750015Y-75624500D01*
X147750008Y-75624500D01*
X146649992Y-75624500D01*
X146649984Y-75624500D01*
X146547204Y-75635000D01*
X146547200Y-75635001D01*
X146454503Y-75665718D01*
X146384675Y-75668119D01*
X146324633Y-75632387D01*
X146293441Y-75569867D01*
X146291500Y-75548012D01*
X146291500Y-75351987D01*
X146311185Y-75284948D01*
X146363989Y-75239193D01*
X146433147Y-75229249D01*
X146454498Y-75234279D01*
X146547203Y-75264999D01*
X146649992Y-75275500D01*
X146649997Y-75275500D01*
X147750003Y-75275500D01*
X147750008Y-75275500D01*
X147852797Y-75264999D01*
X148019334Y-75209814D01*
X148168655Y-75117711D01*
X148292711Y-74993655D01*
X148384814Y-74844334D01*
X148439999Y-74677797D01*
X148450500Y-74575008D01*
X148450500Y-74574985D01*
X149200000Y-74574985D01*
X149210493Y-74677689D01*
X149210494Y-74677696D01*
X149265641Y-74844118D01*
X149265643Y-74844123D01*
X149357684Y-74993344D01*
X149481655Y-75117315D01*
X149630876Y-75209356D01*
X149630881Y-75209358D01*
X149797303Y-75264505D01*
X149797310Y-75264506D01*
X149900014Y-75274999D01*
X149900027Y-75275000D01*
X150200000Y-75275000D01*
X150700000Y-75275000D01*
X150999973Y-75275000D01*
X150999985Y-75274999D01*
X151102689Y-75264506D01*
X151102696Y-75264505D01*
X151269118Y-75209358D01*
X151269123Y-75209356D01*
X151418344Y-75117315D01*
X151542315Y-74993344D01*
X151634356Y-74844123D01*
X151634358Y-74844118D01*
X151689505Y-74677696D01*
X151689506Y-74677689D01*
X151699999Y-74574985D01*
X151700000Y-74574972D01*
X151700000Y-73850000D01*
X150700000Y-73850000D01*
X150700000Y-75275000D01*
X150200000Y-75275000D01*
X150200000Y-73850000D01*
X149200000Y-73850000D01*
X149200000Y-74574985D01*
X148450500Y-74574985D01*
X148450500Y-72624992D01*
X148439999Y-72522203D01*
X148387793Y-72364658D01*
X148381500Y-72325656D01*
X148381500Y-71969623D01*
X148401185Y-71902584D01*
X148450405Y-71858535D01*
X148491683Y-71838063D01*
X148559296Y-71804530D01*
X148707722Y-71685222D01*
X148763675Y-71615612D01*
X148821015Y-71575696D01*
X148890837Y-71573116D01*
X148950970Y-71608694D01*
X148956967Y-71615615D01*
X149012632Y-71684866D01*
X149012633Y-71684867D01*
X149160974Y-71804107D01*
X149160977Y-71804109D01*
X149331476Y-71888668D01*
X149331484Y-71888671D01*
X149394281Y-71904289D01*
X149454588Y-71939571D01*
X149486246Y-72001857D01*
X149479205Y-72071371D01*
X149452036Y-72112304D01*
X149357682Y-72206658D01*
X149265643Y-72355876D01*
X149265641Y-72355881D01*
X149210494Y-72522303D01*
X149210493Y-72522310D01*
X149200000Y-72625014D01*
X149200000Y-73350000D01*
X151700000Y-73350000D01*
X151700000Y-72625027D01*
X151699999Y-72625014D01*
X151689506Y-72522310D01*
X151689505Y-72522303D01*
X151634358Y-72355881D01*
X151634356Y-72355876D01*
X151542315Y-72206655D01*
X151418344Y-72082684D01*
X151269123Y-71990643D01*
X151269118Y-71990641D01*
X151102696Y-71935494D01*
X151102688Y-71935493D01*
X151042062Y-71929299D01*
X150977370Y-71902902D01*
X150937219Y-71845721D01*
X150934356Y-71775910D01*
X150969691Y-71715634D01*
X150976978Y-71709293D01*
X151007369Y-71684864D01*
X151126607Y-71536525D01*
X151126609Y-71536522D01*
X151211168Y-71366023D01*
X151257102Y-71181324D01*
X151260000Y-71138596D01*
X151260000Y-70687500D01*
X150134000Y-70687500D01*
X150066961Y-70667815D01*
X150021206Y-70615011D01*
X150010000Y-70563500D01*
X150010000Y-70437500D01*
X149884000Y-70437500D01*
X149816961Y-70417815D01*
X149771206Y-70365011D01*
X149760000Y-70313500D01*
X149760000Y-70187500D01*
X150260000Y-70187500D01*
X151260000Y-70187500D01*
X151260000Y-69736403D01*
X151257102Y-69693675D01*
X151211168Y-69508976D01*
X151126609Y-69338477D01*
X151126607Y-69338474D01*
X151007367Y-69190133D01*
X151007366Y-69190132D01*
X150859025Y-69070892D01*
X150859022Y-69070890D01*
X150688523Y-68986331D01*
X150503824Y-68940397D01*
X150461097Y-68937500D01*
X150260000Y-68937500D01*
X150260000Y-70187500D01*
X149760000Y-70187500D01*
X149760000Y-68937500D01*
X149576355Y-68937500D01*
X149509316Y-68917815D01*
X149463561Y-68865011D01*
X149453617Y-68795853D01*
X149463561Y-68761986D01*
X149465338Y-68758097D01*
X149485023Y-68691058D01*
X149485024Y-68691054D01*
X149505500Y-68548638D01*
X149505500Y-65634806D01*
X149525185Y-65567767D01*
X149572088Y-65524898D01*
X149663407Y-65477198D01*
X149821109Y-65348609D01*
X149949698Y-65190907D01*
X150043909Y-65010549D01*
X150099886Y-64814918D01*
X150110500Y-64695537D01*
X150110499Y-63579464D01*
X150099886Y-63460082D01*
X150043909Y-63264451D01*
X149949698Y-63084093D01*
X149858966Y-62972819D01*
X149821109Y-62926390D01*
X149663409Y-62797804D01*
X149663410Y-62797804D01*
X149663407Y-62797802D01*
X149483049Y-62703591D01*
X149483048Y-62703590D01*
X149483045Y-62703589D01*
X149365829Y-62670050D01*
X149287418Y-62647614D01*
X149287415Y-62647613D01*
X149287413Y-62647613D01*
X149221102Y-62641717D01*
X149168037Y-62637000D01*
X149168032Y-62637000D01*
X146251971Y-62637000D01*
X146251965Y-62637000D01*
X146251964Y-62637001D01*
X146240316Y-62638036D01*
X146132584Y-62647613D01*
X145936954Y-62703589D01*
X145846772Y-62750696D01*
X145756593Y-62797802D01*
X145756591Y-62797803D01*
X145756590Y-62797804D01*
X145598890Y-62926390D01*
X145470304Y-63084090D01*
X145470302Y-63084093D01*
X145452825Y-63117552D01*
X145376089Y-63264454D01*
X145320114Y-63460083D01*
X145320113Y-63460086D01*
X145316558Y-63500079D01*
X145311224Y-63560079D01*
X145309500Y-63579466D01*
X145309500Y-64695528D01*
X145309501Y-64695534D01*
X145320113Y-64814915D01*
X145376089Y-65010545D01*
X145376090Y-65010548D01*
X145376091Y-65010549D01*
X145470302Y-65190907D01*
X145470304Y-65190909D01*
X145598890Y-65348609D01*
X145632266Y-65375823D01*
X145756593Y-65477198D01*
X145936951Y-65571409D01*
X146132582Y-65627386D01*
X146251963Y-65638000D01*
X146470500Y-65637999D01*
X146537539Y-65657683D01*
X146583294Y-65710487D01*
X146594500Y-65761999D01*
X146594500Y-67721500D01*
X146574815Y-67788539D01*
X146522011Y-67834294D01*
X146470500Y-67845500D01*
X143788540Y-67845500D01*
X143747585Y-67838541D01*
X143679262Y-67814633D01*
X143679249Y-67814630D01*
X143500004Y-67794435D01*
X143499996Y-67794435D01*
X143320750Y-67814630D01*
X143320745Y-67814631D01*
X143150476Y-67874211D01*
X143071472Y-67923853D01*
X143004235Y-67942853D01*
X142937400Y-67922485D01*
X142892186Y-67869217D01*
X142881500Y-67818859D01*
X142881500Y-63916490D01*
X142901185Y-63849451D01*
X142917814Y-63828814D01*
X144458856Y-62287771D01*
X144520177Y-62254288D01*
X144557338Y-62251926D01*
X144600000Y-62255659D01*
X144835408Y-62235063D01*
X145063663Y-62173903D01*
X145277830Y-62074035D01*
X145471401Y-61938495D01*
X145593717Y-61816178D01*
X145655036Y-61782696D01*
X145724728Y-61787680D01*
X145780662Y-61829551D01*
X145797577Y-61860528D01*
X145846646Y-61992088D01*
X145846649Y-61992093D01*
X145932809Y-62107187D01*
X145932812Y-62107190D01*
X146047906Y-62193350D01*
X146047913Y-62193354D01*
X146182620Y-62243596D01*
X146182627Y-62243598D01*
X146242155Y-62249999D01*
X146242172Y-62250000D01*
X146890000Y-62250000D01*
X146890000Y-61333012D01*
X146947007Y-61365925D01*
X147074174Y-61400000D01*
X147205826Y-61400000D01*
X147332993Y-61365925D01*
X147390000Y-61333012D01*
X147390000Y-62250000D01*
X148037828Y-62250000D01*
X148037844Y-62249999D01*
X148097372Y-62243598D01*
X148097379Y-62243596D01*
X148232086Y-62193354D01*
X148232093Y-62193350D01*
X148347187Y-62107190D01*
X148347190Y-62107187D01*
X148433350Y-61992093D01*
X148433354Y-61992086D01*
X148483596Y-61857379D01*
X148483598Y-61857372D01*
X148489999Y-61797844D01*
X148490000Y-61797827D01*
X148490000Y-61150000D01*
X147573012Y-61150000D01*
X147605925Y-61092993D01*
X147640000Y-60965826D01*
X147640000Y-60834174D01*
X147605925Y-60707007D01*
X147573012Y-60650000D01*
X148327778Y-60650000D01*
X149299998Y-60899999D01*
G37*
%TD.AperFunction*%
%TA.AperFunction,Conductor*%
G36*
X142208290Y-73440850D02*
G01*
X142264224Y-73482721D01*
X142282663Y-73518027D01*
X142289547Y-73538802D01*
X142289551Y-73538811D01*
X142380052Y-73685534D01*
X142380055Y-73685538D01*
X142493982Y-73799465D01*
X142527467Y-73860788D01*
X142522483Y-73930480D01*
X142493983Y-73974827D01*
X142379659Y-74089151D01*
X142289093Y-74235981D01*
X142289092Y-74235984D01*
X142234826Y-74399747D01*
X142234826Y-74399748D01*
X142234825Y-74399748D01*
X142224500Y-74500815D01*
X142224500Y-75099169D01*
X142224501Y-75099187D01*
X142234825Y-75200252D01*
X142234826Y-75200255D01*
X142289091Y-75364014D01*
X142289095Y-75364023D01*
X142300037Y-75381761D01*
X142318500Y-75446860D01*
X142318500Y-76786820D01*
X142318500Y-76786822D01*
X142318499Y-76786822D01*
X142352374Y-76957118D01*
X142352377Y-76957128D01*
X142390061Y-77048105D01*
X142399500Y-77095557D01*
X142399500Y-77294500D01*
X142379815Y-77361539D01*
X142327011Y-77407294D01*
X142275500Y-77418500D01*
X141416491Y-77418500D01*
X141349452Y-77398815D01*
X141328810Y-77382181D01*
X139708809Y-75762180D01*
X139675324Y-75700857D01*
X139680308Y-75631165D01*
X139722180Y-75575232D01*
X139787644Y-75550815D01*
X139796464Y-75550499D01*
X141447872Y-75550499D01*
X141507483Y-75544091D01*
X141642331Y-75493796D01*
X141757546Y-75407546D01*
X141843796Y-75292331D01*
X141894091Y-75157483D01*
X141900500Y-75097873D01*
X141900499Y-73697490D01*
X141920184Y-73630452D01*
X141936808Y-73609820D01*
X142077281Y-73469347D01*
X142138598Y-73435866D01*
X142208290Y-73440850D01*
G37*
%TD.AperFunction*%
%TA.AperFunction,Conductor*%
G36*
X143071471Y-69276145D02*
G01*
X143150478Y-69325789D01*
X143288786Y-69374185D01*
X143320745Y-69385368D01*
X143320750Y-69385369D01*
X143499996Y-69405565D01*
X143500000Y-69405565D01*
X143500004Y-69405565D01*
X143679249Y-69385369D01*
X143679251Y-69385368D01*
X143679255Y-69385368D01*
X143679258Y-69385366D01*
X143679262Y-69385366D01*
X143747585Y-69361459D01*
X143788540Y-69354500D01*
X144088119Y-69354500D01*
X144155158Y-69374185D01*
X144200913Y-69426989D01*
X144210857Y-69496147D01*
X144208454Y-69508426D01*
X144162400Y-69693606D01*
X144159500Y-69736379D01*
X144159500Y-71138622D01*
X144159501Y-71138625D01*
X144162399Y-71181386D01*
X144162399Y-71181387D01*
X144184833Y-71271593D01*
X144207356Y-71362161D01*
X144208360Y-71366196D01*
X144292967Y-71536792D01*
X144292969Y-71536795D01*
X144412275Y-71685219D01*
X144412276Y-71685220D01*
X144412278Y-71685222D01*
X144482188Y-71741417D01*
X144522106Y-71798759D01*
X144528500Y-71838063D01*
X144528500Y-75562691D01*
X144508815Y-75629730D01*
X144492181Y-75650372D01*
X144431923Y-75710629D01*
X144431917Y-75710637D01*
X144348255Y-75852103D01*
X144348253Y-75852106D01*
X144324576Y-75933606D01*
X144286970Y-75992492D01*
X144223497Y-76021698D01*
X144154311Y-76011952D01*
X144101376Y-75966348D01*
X144081501Y-75899365D01*
X144081500Y-75899011D01*
X144081500Y-75446860D01*
X144099963Y-75381761D01*
X144110904Y-75364023D01*
X144110904Y-75364021D01*
X144110908Y-75364016D01*
X144165174Y-75200253D01*
X144175500Y-75099177D01*
X144175499Y-74500824D01*
X144165174Y-74399747D01*
X144110908Y-74235984D01*
X144020340Y-74089150D01*
X143906017Y-73974827D01*
X143872532Y-73913504D01*
X143877516Y-73843812D01*
X143906017Y-73799464D01*
X144019948Y-73685533D01*
X144110448Y-73538811D01*
X144110453Y-73538800D01*
X144164680Y-73375152D01*
X144174999Y-73274154D01*
X144175000Y-73274141D01*
X144175000Y-73225000D01*
X143324000Y-73225000D01*
X143256961Y-73205315D01*
X143211206Y-73152511D01*
X143200000Y-73101000D01*
X143200000Y-72975000D01*
X143074000Y-72975000D01*
X143006961Y-72955315D01*
X142961206Y-72902511D01*
X142950000Y-72851000D01*
X142950000Y-72725000D01*
X143450000Y-72725000D01*
X144174999Y-72725000D01*
X144174999Y-72675860D01*
X144174998Y-72675845D01*
X144164680Y-72574847D01*
X144110453Y-72411199D01*
X144110448Y-72411188D01*
X144019947Y-72264465D01*
X144019944Y-72264461D01*
X143898038Y-72142555D01*
X143898034Y-72142552D01*
X143751311Y-72052051D01*
X143751300Y-72052046D01*
X143587652Y-71997819D01*
X143486654Y-71987500D01*
X143450000Y-71987500D01*
X143450000Y-72725000D01*
X142950000Y-72725000D01*
X142950000Y-71987500D01*
X142917819Y-71955320D01*
X142884334Y-71893997D01*
X142881500Y-71867638D01*
X142881500Y-69381140D01*
X142901185Y-69314101D01*
X142953989Y-69268346D01*
X143023147Y-69258402D01*
X143071471Y-69276145D01*
G37*
%TD.AperFunction*%
%TA.AperFunction,Conductor*%
G36*
X141112967Y-58619685D02*
G01*
X141136792Y-58639622D01*
X142400000Y-60000000D01*
X143343329Y-60000000D01*
X143410368Y-60019685D01*
X143456123Y-60072489D01*
X143466067Y-60141647D01*
X143444904Y-60195122D01*
X143435699Y-60208268D01*
X143425963Y-60222173D01*
X143326098Y-60436335D01*
X143326094Y-60436344D01*
X143264938Y-60664586D01*
X143264936Y-60664596D01*
X143244341Y-60899999D01*
X143244341Y-60900000D01*
X143248072Y-60942658D01*
X143234304Y-61011158D01*
X143212225Y-61041144D01*
X141315297Y-62938071D01*
X141315294Y-62938076D01*
X141291348Y-62973914D01*
X141268511Y-63008092D01*
X141218823Y-63082455D01*
X141152377Y-63242871D01*
X141152374Y-63242881D01*
X141118500Y-63413177D01*
X141118500Y-69797187D01*
X141098815Y-69864226D01*
X141046011Y-69909981D01*
X140976853Y-69919925D01*
X140913297Y-69890900D01*
X140889508Y-69863161D01*
X140879819Y-69847742D01*
X140879815Y-69847737D01*
X140752262Y-69720184D01*
X140599523Y-69624211D01*
X140429254Y-69564631D01*
X140429249Y-69564630D01*
X140250004Y-69544435D01*
X140250003Y-69544435D01*
X140250001Y-69544435D01*
X140250000Y-69544435D01*
X140223829Y-69547383D01*
X140214542Y-69548430D01*
X140145720Y-69536374D01*
X140094341Y-69489024D01*
X140076718Y-69421413D01*
X140083621Y-69384247D01*
X140084708Y-69381140D01*
X140085368Y-69379255D01*
X140085369Y-69379249D01*
X140105565Y-69200003D01*
X140105565Y-69199996D01*
X140085369Y-69020750D01*
X140085368Y-69020745D01*
X140048388Y-68915063D01*
X140025789Y-68850478D01*
X139929816Y-68697738D01*
X139802262Y-68570184D01*
X139778084Y-68554992D01*
X139731796Y-68502661D01*
X139721146Y-68433607D01*
X139749521Y-68369758D01*
X139778082Y-68345009D01*
X139802262Y-68329816D01*
X139929816Y-68202262D01*
X140025789Y-68049522D01*
X140085368Y-67879255D01*
X140085369Y-67879249D01*
X140105565Y-67700003D01*
X140105565Y-67699996D01*
X140085369Y-67520750D01*
X140085368Y-67520745D01*
X140061458Y-67452414D01*
X140054500Y-67411459D01*
X140054500Y-64280446D01*
X140054501Y-64280425D01*
X140054501Y-64125685D01*
X140030315Y-64004105D01*
X140030314Y-64004099D01*
X140025507Y-63979929D01*
X140025506Y-63979927D01*
X140025505Y-63979920D01*
X140010228Y-63943039D01*
X139999669Y-63917546D01*
X139968633Y-63842618D01*
X139968632Y-63842617D01*
X139968630Y-63842611D01*
X139917505Y-63766097D01*
X139886059Y-63719034D01*
X139886057Y-63719031D01*
X139776647Y-63609621D01*
X139776624Y-63609600D01*
X135778706Y-59611681D01*
X135745221Y-59550358D01*
X135750205Y-59480666D01*
X135792077Y-59424733D01*
X135857541Y-59400316D01*
X135866387Y-59400000D01*
X139800000Y-59400000D01*
X140563681Y-58636319D01*
X140625004Y-58602834D01*
X140651362Y-58600000D01*
X141045928Y-58600000D01*
X141112967Y-58619685D01*
G37*
%TD.AperFunction*%
%TA.AperFunction,Conductor*%
G36*
X131940030Y-61574185D02*
G01*
X131985785Y-61626989D01*
X131995729Y-61696147D01*
X131977983Y-61744475D01*
X131974211Y-61750477D01*
X131914631Y-61920745D01*
X131914630Y-61920750D01*
X131894435Y-62099996D01*
X131894435Y-62100003D01*
X131914630Y-62279249D01*
X131914631Y-62279254D01*
X131974211Y-62449523D01*
X132070184Y-62602262D01*
X132197739Y-62729817D01*
X132241072Y-62757045D01*
X132287362Y-62809379D01*
X132298010Y-62878433D01*
X132269635Y-62942281D01*
X132262781Y-62949718D01*
X132250000Y-62962499D01*
X132250000Y-63876000D01*
X132230315Y-63943039D01*
X132177511Y-63988794D01*
X132126000Y-64000000D01*
X132000000Y-64000000D01*
X132000000Y-64126000D01*
X131980315Y-64193039D01*
X131927511Y-64238794D01*
X131876000Y-64250000D01*
X130224000Y-64250000D01*
X130156961Y-64230315D01*
X130111206Y-64177511D01*
X130100000Y-64126000D01*
X130100000Y-64000000D01*
X129974000Y-64000000D01*
X129906961Y-63980315D01*
X129861206Y-63927511D01*
X129850000Y-63876000D01*
X129850000Y-63750000D01*
X130350000Y-63750000D01*
X131750000Y-63750000D01*
X131750000Y-62962500D01*
X131713361Y-62962500D01*
X131713343Y-62962501D01*
X131612347Y-62972819D01*
X131448699Y-63027046D01*
X131448688Y-63027051D01*
X131301965Y-63117552D01*
X131301961Y-63117555D01*
X131180055Y-63239461D01*
X131180052Y-63239465D01*
X131155538Y-63279209D01*
X131103590Y-63325934D01*
X131034628Y-63337155D01*
X130970546Y-63309312D01*
X130944462Y-63279209D01*
X130919947Y-63239465D01*
X130919944Y-63239461D01*
X130798038Y-63117555D01*
X130798034Y-63117552D01*
X130651311Y-63027051D01*
X130651300Y-63027046D01*
X130487652Y-62972819D01*
X130386654Y-62962500D01*
X130350000Y-62962500D01*
X130350000Y-63750000D01*
X129850000Y-63750000D01*
X129850000Y-63389152D01*
X129852383Y-63364957D01*
X129854501Y-63354310D01*
X129854501Y-63200578D01*
X129854500Y-63200552D01*
X129854500Y-62963886D01*
X129874185Y-62896847D01*
X129890819Y-62876205D01*
X131176205Y-61590819D01*
X131237528Y-61557334D01*
X131263886Y-61554500D01*
X131872991Y-61554500D01*
X131940030Y-61574185D01*
G37*
%TD.AperFunction*%
%TD*%
%TA.AperFunction,Conductor*%
%TO.N,VCC*%
G36*
X148943039Y-65119685D02*
G01*
X148988794Y-65172489D01*
X149000000Y-65224000D01*
X149000000Y-68548638D01*
X148980315Y-68615677D01*
X148963681Y-68636319D01*
X148400000Y-69199999D01*
X148400000Y-69576000D01*
X148380315Y-69643039D01*
X148327511Y-69688794D01*
X148276000Y-69700000D01*
X147224000Y-69700000D01*
X147156961Y-69680315D01*
X147111206Y-69627511D01*
X147100000Y-69576000D01*
X147100000Y-65224000D01*
X147119685Y-65156961D01*
X147172489Y-65111206D01*
X147224000Y-65100000D01*
X148876000Y-65100000D01*
X148943039Y-65119685D01*
G37*
%TD.AperFunction*%
%TD*%
M02*
