%TF.GenerationSoftware,KiCad,Pcbnew,8.0.8-8.0.8-0~ubuntu24.04.1*%
%TF.CreationDate,2025-03-23T19:57:37+01:00*%
%TF.ProjectId,teaser,74656173-6572-42e6-9b69-6361645f7063,rev?*%
%TF.SameCoordinates,Original*%
%TF.FileFunction,Drillmap*%
%TF.FilePolarity,Positive*%
%FSLAX45Y45*%
G04 Gerber Fmt 4.5, Leading zero omitted, Abs format (unit mm)*
G04 Created by KiCad (PCBNEW 8.0.8-8.0.8-0~ubuntu24.04.1) date 2025-03-23 19:57:37*
%MOMM*%
%LPD*%
G01*
G04 APERTURE LIST*
%ADD10C,0.050000*%
%ADD11C,0.200000*%
%ADD12C,0.320000*%
G04 APERTURE END LIST*
D10*
X12400000Y-15850000D02*
X12100000Y-15550000D01*
X16400000Y-15550000D02*
X16400000Y-5400000D01*
X12750000Y-4350000D02*
X15750000Y-4350000D01*
X12350000Y-5150000D02*
X12100000Y-5400000D01*
X12750000Y-5150000D02*
X12350000Y-5150000D01*
X12750000Y-4350000D02*
X12750000Y-5150000D01*
X16150000Y-5150000D02*
X16400000Y-5400000D01*
X15750000Y-5150000D02*
X16150000Y-5150000D01*
X15750000Y-4350000D02*
X15750000Y-5150000D01*
X12100000Y-14750000D02*
X12100000Y-5400000D01*
X16100000Y-15850000D02*
X16400000Y-15550000D01*
X12100000Y-14750000D02*
X12100000Y-15550000D01*
X12400000Y-15850000D02*
X16100000Y-15850000D01*
D11*
D12*
X12340000Y-5340000D02*
X12660000Y-5660000D01*
X12660000Y-5340000D02*
X12340000Y-5660000D01*
X15840000Y-5340000D02*
X16160000Y-5660000D01*
X16160000Y-5340000D02*
X15840000Y-5660000D01*
X15840000Y-15290000D02*
X16160000Y-15610000D01*
X16160000Y-15290000D02*
X15840000Y-15610000D01*
D11*
X12358277Y-16163984D02*
X12358277Y-15963984D01*
X12358277Y-15963984D02*
X12405896Y-15963984D01*
X12405896Y-15963984D02*
X12434467Y-15973508D01*
X12434467Y-15973508D02*
X12453515Y-15992555D01*
X12453515Y-15992555D02*
X12463039Y-16011603D01*
X12463039Y-16011603D02*
X12472562Y-16049698D01*
X12472562Y-16049698D02*
X12472562Y-16078269D01*
X12472562Y-16078269D02*
X12463039Y-16116365D01*
X12463039Y-16116365D02*
X12453515Y-16135412D01*
X12453515Y-16135412D02*
X12434467Y-16154460D01*
X12434467Y-16154460D02*
X12405896Y-16163984D01*
X12405896Y-16163984D02*
X12358277Y-16163984D01*
X12558277Y-16163984D02*
X12558277Y-16030650D01*
X12558277Y-16068746D02*
X12567801Y-16049698D01*
X12567801Y-16049698D02*
X12577324Y-16040174D01*
X12577324Y-16040174D02*
X12596372Y-16030650D01*
X12596372Y-16030650D02*
X12615420Y-16030650D01*
X12682086Y-16163984D02*
X12682086Y-16030650D01*
X12682086Y-15963984D02*
X12672562Y-15973508D01*
X12672562Y-15973508D02*
X12682086Y-15983031D01*
X12682086Y-15983031D02*
X12691610Y-15973508D01*
X12691610Y-15973508D02*
X12682086Y-15963984D01*
X12682086Y-15963984D02*
X12682086Y-15983031D01*
X12805896Y-16163984D02*
X12786848Y-16154460D01*
X12786848Y-16154460D02*
X12777324Y-16135412D01*
X12777324Y-16135412D02*
X12777324Y-15963984D01*
X12910658Y-16163984D02*
X12891610Y-16154460D01*
X12891610Y-16154460D02*
X12882086Y-16135412D01*
X12882086Y-16135412D02*
X12882086Y-15963984D01*
X13139229Y-16163984D02*
X13139229Y-15963984D01*
X13139229Y-15963984D02*
X13205896Y-16106841D01*
X13205896Y-16106841D02*
X13272562Y-15963984D01*
X13272562Y-15963984D02*
X13272562Y-16163984D01*
X13453515Y-16163984D02*
X13453515Y-16059222D01*
X13453515Y-16059222D02*
X13443991Y-16040174D01*
X13443991Y-16040174D02*
X13424943Y-16030650D01*
X13424943Y-16030650D02*
X13386848Y-16030650D01*
X13386848Y-16030650D02*
X13367801Y-16040174D01*
X13453515Y-16154460D02*
X13434467Y-16163984D01*
X13434467Y-16163984D02*
X13386848Y-16163984D01*
X13386848Y-16163984D02*
X13367801Y-16154460D01*
X13367801Y-16154460D02*
X13358277Y-16135412D01*
X13358277Y-16135412D02*
X13358277Y-16116365D01*
X13358277Y-16116365D02*
X13367801Y-16097317D01*
X13367801Y-16097317D02*
X13386848Y-16087793D01*
X13386848Y-16087793D02*
X13434467Y-16087793D01*
X13434467Y-16087793D02*
X13453515Y-16078269D01*
X13548753Y-16030650D02*
X13548753Y-16230650D01*
X13548753Y-16040174D02*
X13567801Y-16030650D01*
X13567801Y-16030650D02*
X13605896Y-16030650D01*
X13605896Y-16030650D02*
X13624943Y-16040174D01*
X13624943Y-16040174D02*
X13634467Y-16049698D01*
X13634467Y-16049698D02*
X13643991Y-16068746D01*
X13643991Y-16068746D02*
X13643991Y-16125888D01*
X13643991Y-16125888D02*
X13634467Y-16144936D01*
X13634467Y-16144936D02*
X13624943Y-16154460D01*
X13624943Y-16154460D02*
X13605896Y-16163984D01*
X13605896Y-16163984D02*
X13567801Y-16163984D01*
X13567801Y-16163984D02*
X13548753Y-16154460D01*
X13729705Y-16144936D02*
X13739229Y-16154460D01*
X13739229Y-16154460D02*
X13729705Y-16163984D01*
X13729705Y-16163984D02*
X13720182Y-16154460D01*
X13720182Y-16154460D02*
X13729705Y-16144936D01*
X13729705Y-16144936D02*
X13729705Y-16163984D01*
X13729705Y-16040174D02*
X13739229Y-16049698D01*
X13739229Y-16049698D02*
X13729705Y-16059222D01*
X13729705Y-16059222D02*
X13720182Y-16049698D01*
X13720182Y-16049698D02*
X13729705Y-16040174D01*
X13729705Y-16040174D02*
X13729705Y-16059222D01*
X11897500Y-16392500D02*
X12097500Y-16592500D01*
X12097500Y-16392500D02*
X11897500Y-16592500D01*
X12339229Y-16383984D02*
X12463039Y-16383984D01*
X12463039Y-16383984D02*
X12396372Y-16460174D01*
X12396372Y-16460174D02*
X12424943Y-16460174D01*
X12424943Y-16460174D02*
X12443991Y-16469698D01*
X12443991Y-16469698D02*
X12453515Y-16479222D01*
X12453515Y-16479222D02*
X12463039Y-16498269D01*
X12463039Y-16498269D02*
X12463039Y-16545888D01*
X12463039Y-16545888D02*
X12453515Y-16564936D01*
X12453515Y-16564936D02*
X12443991Y-16574460D01*
X12443991Y-16574460D02*
X12424943Y-16583984D01*
X12424943Y-16583984D02*
X12367801Y-16583984D01*
X12367801Y-16583984D02*
X12348753Y-16574460D01*
X12348753Y-16574460D02*
X12339229Y-16564936D01*
X12548753Y-16564936D02*
X12558277Y-16574460D01*
X12558277Y-16574460D02*
X12548753Y-16583984D01*
X12548753Y-16583984D02*
X12539229Y-16574460D01*
X12539229Y-16574460D02*
X12548753Y-16564936D01*
X12548753Y-16564936D02*
X12548753Y-16583984D01*
X12634467Y-16403031D02*
X12643991Y-16393508D01*
X12643991Y-16393508D02*
X12663039Y-16383984D01*
X12663039Y-16383984D02*
X12710658Y-16383984D01*
X12710658Y-16383984D02*
X12729705Y-16393508D01*
X12729705Y-16393508D02*
X12739229Y-16403031D01*
X12739229Y-16403031D02*
X12748753Y-16422079D01*
X12748753Y-16422079D02*
X12748753Y-16441127D01*
X12748753Y-16441127D02*
X12739229Y-16469698D01*
X12739229Y-16469698D02*
X12624943Y-16583984D01*
X12624943Y-16583984D02*
X12748753Y-16583984D01*
X12872562Y-16383984D02*
X12891610Y-16383984D01*
X12891610Y-16383984D02*
X12910658Y-16393508D01*
X12910658Y-16393508D02*
X12920182Y-16403031D01*
X12920182Y-16403031D02*
X12929705Y-16422079D01*
X12929705Y-16422079D02*
X12939229Y-16460174D01*
X12939229Y-16460174D02*
X12939229Y-16507793D01*
X12939229Y-16507793D02*
X12929705Y-16545888D01*
X12929705Y-16545888D02*
X12920182Y-16564936D01*
X12920182Y-16564936D02*
X12910658Y-16574460D01*
X12910658Y-16574460D02*
X12891610Y-16583984D01*
X12891610Y-16583984D02*
X12872562Y-16583984D01*
X12872562Y-16583984D02*
X12853515Y-16574460D01*
X12853515Y-16574460D02*
X12843991Y-16564936D01*
X12843991Y-16564936D02*
X12834467Y-16545888D01*
X12834467Y-16545888D02*
X12824943Y-16507793D01*
X12824943Y-16507793D02*
X12824943Y-16460174D01*
X12824943Y-16460174D02*
X12834467Y-16422079D01*
X12834467Y-16422079D02*
X12843991Y-16403031D01*
X12843991Y-16403031D02*
X12853515Y-16393508D01*
X12853515Y-16393508D02*
X12872562Y-16383984D01*
X13063039Y-16383984D02*
X13082086Y-16383984D01*
X13082086Y-16383984D02*
X13101134Y-16393508D01*
X13101134Y-16393508D02*
X13110658Y-16403031D01*
X13110658Y-16403031D02*
X13120182Y-16422079D01*
X13120182Y-16422079D02*
X13129705Y-16460174D01*
X13129705Y-16460174D02*
X13129705Y-16507793D01*
X13129705Y-16507793D02*
X13120182Y-16545888D01*
X13120182Y-16545888D02*
X13110658Y-16564936D01*
X13110658Y-16564936D02*
X13101134Y-16574460D01*
X13101134Y-16574460D02*
X13082086Y-16583984D01*
X13082086Y-16583984D02*
X13063039Y-16583984D01*
X13063039Y-16583984D02*
X13043991Y-16574460D01*
X13043991Y-16574460D02*
X13034467Y-16564936D01*
X13034467Y-16564936D02*
X13024943Y-16545888D01*
X13024943Y-16545888D02*
X13015420Y-16507793D01*
X13015420Y-16507793D02*
X13015420Y-16460174D01*
X13015420Y-16460174D02*
X13024943Y-16422079D01*
X13024943Y-16422079D02*
X13034467Y-16403031D01*
X13034467Y-16403031D02*
X13043991Y-16393508D01*
X13043991Y-16393508D02*
X13063039Y-16383984D01*
X13215420Y-16583984D02*
X13215420Y-16450650D01*
X13215420Y-16469698D02*
X13224943Y-16460174D01*
X13224943Y-16460174D02*
X13243991Y-16450650D01*
X13243991Y-16450650D02*
X13272563Y-16450650D01*
X13272563Y-16450650D02*
X13291610Y-16460174D01*
X13291610Y-16460174D02*
X13301134Y-16479222D01*
X13301134Y-16479222D02*
X13301134Y-16583984D01*
X13301134Y-16479222D02*
X13310658Y-16460174D01*
X13310658Y-16460174D02*
X13329705Y-16450650D01*
X13329705Y-16450650D02*
X13358277Y-16450650D01*
X13358277Y-16450650D02*
X13377324Y-16460174D01*
X13377324Y-16460174D02*
X13386848Y-16479222D01*
X13386848Y-16479222D02*
X13386848Y-16583984D01*
X13482086Y-16583984D02*
X13482086Y-16450650D01*
X13482086Y-16469698D02*
X13491610Y-16460174D01*
X13491610Y-16460174D02*
X13510658Y-16450650D01*
X13510658Y-16450650D02*
X13539229Y-16450650D01*
X13539229Y-16450650D02*
X13558277Y-16460174D01*
X13558277Y-16460174D02*
X13567801Y-16479222D01*
X13567801Y-16479222D02*
X13567801Y-16583984D01*
X13567801Y-16479222D02*
X13577324Y-16460174D01*
X13577324Y-16460174D02*
X13596372Y-16450650D01*
X13596372Y-16450650D02*
X13624943Y-16450650D01*
X13624943Y-16450650D02*
X13643991Y-16460174D01*
X13643991Y-16460174D02*
X13653515Y-16479222D01*
X13653515Y-16479222D02*
X13653515Y-16583984D01*
X14043991Y-16374460D02*
X13872563Y-16631603D01*
X14301134Y-16383984D02*
X14320182Y-16383984D01*
X14320182Y-16383984D02*
X14339229Y-16393508D01*
X14339229Y-16393508D02*
X14348753Y-16403031D01*
X14348753Y-16403031D02*
X14358277Y-16422079D01*
X14358277Y-16422079D02*
X14367801Y-16460174D01*
X14367801Y-16460174D02*
X14367801Y-16507793D01*
X14367801Y-16507793D02*
X14358277Y-16545888D01*
X14358277Y-16545888D02*
X14348753Y-16564936D01*
X14348753Y-16564936D02*
X14339229Y-16574460D01*
X14339229Y-16574460D02*
X14320182Y-16583984D01*
X14320182Y-16583984D02*
X14301134Y-16583984D01*
X14301134Y-16583984D02*
X14282086Y-16574460D01*
X14282086Y-16574460D02*
X14272563Y-16564936D01*
X14272563Y-16564936D02*
X14263039Y-16545888D01*
X14263039Y-16545888D02*
X14253515Y-16507793D01*
X14253515Y-16507793D02*
X14253515Y-16460174D01*
X14253515Y-16460174D02*
X14263039Y-16422079D01*
X14263039Y-16422079D02*
X14272563Y-16403031D01*
X14272563Y-16403031D02*
X14282086Y-16393508D01*
X14282086Y-16393508D02*
X14301134Y-16383984D01*
X14453515Y-16564936D02*
X14463039Y-16574460D01*
X14463039Y-16574460D02*
X14453515Y-16583984D01*
X14453515Y-16583984D02*
X14443991Y-16574460D01*
X14443991Y-16574460D02*
X14453515Y-16564936D01*
X14453515Y-16564936D02*
X14453515Y-16583984D01*
X14653515Y-16583984D02*
X14539229Y-16583984D01*
X14596372Y-16583984D02*
X14596372Y-16383984D01*
X14596372Y-16383984D02*
X14577325Y-16412555D01*
X14577325Y-16412555D02*
X14558277Y-16431603D01*
X14558277Y-16431603D02*
X14539229Y-16441127D01*
X14729706Y-16403031D02*
X14739229Y-16393508D01*
X14739229Y-16393508D02*
X14758277Y-16383984D01*
X14758277Y-16383984D02*
X14805896Y-16383984D01*
X14805896Y-16383984D02*
X14824944Y-16393508D01*
X14824944Y-16393508D02*
X14834467Y-16403031D01*
X14834467Y-16403031D02*
X14843991Y-16422079D01*
X14843991Y-16422079D02*
X14843991Y-16441127D01*
X14843991Y-16441127D02*
X14834467Y-16469698D01*
X14834467Y-16469698D02*
X14720182Y-16583984D01*
X14720182Y-16583984D02*
X14843991Y-16583984D01*
X15015420Y-16383984D02*
X14977325Y-16383984D01*
X14977325Y-16383984D02*
X14958277Y-16393508D01*
X14958277Y-16393508D02*
X14948753Y-16403031D01*
X14948753Y-16403031D02*
X14929706Y-16431603D01*
X14929706Y-16431603D02*
X14920182Y-16469698D01*
X14920182Y-16469698D02*
X14920182Y-16545888D01*
X14920182Y-16545888D02*
X14929706Y-16564936D01*
X14929706Y-16564936D02*
X14939229Y-16574460D01*
X14939229Y-16574460D02*
X14958277Y-16583984D01*
X14958277Y-16583984D02*
X14996372Y-16583984D01*
X14996372Y-16583984D02*
X15015420Y-16574460D01*
X15015420Y-16574460D02*
X15024944Y-16564936D01*
X15024944Y-16564936D02*
X15034467Y-16545888D01*
X15034467Y-16545888D02*
X15034467Y-16498269D01*
X15034467Y-16498269D02*
X15024944Y-16479222D01*
X15024944Y-16479222D02*
X15015420Y-16469698D01*
X15015420Y-16469698D02*
X14996372Y-16460174D01*
X14996372Y-16460174D02*
X14958277Y-16460174D01*
X14958277Y-16460174D02*
X14939229Y-16469698D01*
X14939229Y-16469698D02*
X14929706Y-16479222D01*
X14929706Y-16479222D02*
X14920182Y-16498269D01*
X15158277Y-16383984D02*
X15177325Y-16383984D01*
X15177325Y-16383984D02*
X15196372Y-16393508D01*
X15196372Y-16393508D02*
X15205896Y-16403031D01*
X15205896Y-16403031D02*
X15215420Y-16422079D01*
X15215420Y-16422079D02*
X15224944Y-16460174D01*
X15224944Y-16460174D02*
X15224944Y-16507793D01*
X15224944Y-16507793D02*
X15215420Y-16545888D01*
X15215420Y-16545888D02*
X15205896Y-16564936D01*
X15205896Y-16564936D02*
X15196372Y-16574460D01*
X15196372Y-16574460D02*
X15177325Y-16583984D01*
X15177325Y-16583984D02*
X15158277Y-16583984D01*
X15158277Y-16583984D02*
X15139229Y-16574460D01*
X15139229Y-16574460D02*
X15129706Y-16564936D01*
X15129706Y-16564936D02*
X15120182Y-16545888D01*
X15120182Y-16545888D02*
X15110658Y-16507793D01*
X15110658Y-16507793D02*
X15110658Y-16460174D01*
X15110658Y-16460174D02*
X15120182Y-16422079D01*
X15120182Y-16422079D02*
X15129706Y-16403031D01*
X15129706Y-16403031D02*
X15139229Y-16393508D01*
X15139229Y-16393508D02*
X15158277Y-16383984D01*
X15301134Y-16383984D02*
X15301134Y-16422079D01*
X15377325Y-16383984D02*
X15377325Y-16422079D01*
X15672563Y-16660174D02*
X15663039Y-16650650D01*
X15663039Y-16650650D02*
X15643991Y-16622079D01*
X15643991Y-16622079D02*
X15634468Y-16603031D01*
X15634468Y-16603031D02*
X15624944Y-16574460D01*
X15624944Y-16574460D02*
X15615420Y-16526841D01*
X15615420Y-16526841D02*
X15615420Y-16488746D01*
X15615420Y-16488746D02*
X15624944Y-16441127D01*
X15624944Y-16441127D02*
X15634468Y-16412555D01*
X15634468Y-16412555D02*
X15643991Y-16393508D01*
X15643991Y-16393508D02*
X15663039Y-16364936D01*
X15663039Y-16364936D02*
X15672563Y-16355412D01*
X15729706Y-16383984D02*
X15853515Y-16383984D01*
X15853515Y-16383984D02*
X15786848Y-16460174D01*
X15786848Y-16460174D02*
X15815420Y-16460174D01*
X15815420Y-16460174D02*
X15834468Y-16469698D01*
X15834468Y-16469698D02*
X15843991Y-16479222D01*
X15843991Y-16479222D02*
X15853515Y-16498269D01*
X15853515Y-16498269D02*
X15853515Y-16545888D01*
X15853515Y-16545888D02*
X15843991Y-16564936D01*
X15843991Y-16564936D02*
X15834468Y-16574460D01*
X15834468Y-16574460D02*
X15815420Y-16583984D01*
X15815420Y-16583984D02*
X15758277Y-16583984D01*
X15758277Y-16583984D02*
X15739229Y-16574460D01*
X15739229Y-16574460D02*
X15729706Y-16564936D01*
X16091610Y-16583984D02*
X16091610Y-16383984D01*
X16177325Y-16583984D02*
X16177325Y-16479222D01*
X16177325Y-16479222D02*
X16167801Y-16460174D01*
X16167801Y-16460174D02*
X16148753Y-16450650D01*
X16148753Y-16450650D02*
X16120182Y-16450650D01*
X16120182Y-16450650D02*
X16101134Y-16460174D01*
X16101134Y-16460174D02*
X16091610Y-16469698D01*
X16301134Y-16583984D02*
X16282087Y-16574460D01*
X16282087Y-16574460D02*
X16272563Y-16564936D01*
X16272563Y-16564936D02*
X16263039Y-16545888D01*
X16263039Y-16545888D02*
X16263039Y-16488746D01*
X16263039Y-16488746D02*
X16272563Y-16469698D01*
X16272563Y-16469698D02*
X16282087Y-16460174D01*
X16282087Y-16460174D02*
X16301134Y-16450650D01*
X16301134Y-16450650D02*
X16329706Y-16450650D01*
X16329706Y-16450650D02*
X16348753Y-16460174D01*
X16348753Y-16460174D02*
X16358277Y-16469698D01*
X16358277Y-16469698D02*
X16367801Y-16488746D01*
X16367801Y-16488746D02*
X16367801Y-16545888D01*
X16367801Y-16545888D02*
X16358277Y-16564936D01*
X16358277Y-16564936D02*
X16348753Y-16574460D01*
X16348753Y-16574460D02*
X16329706Y-16583984D01*
X16329706Y-16583984D02*
X16301134Y-16583984D01*
X16482087Y-16583984D02*
X16463039Y-16574460D01*
X16463039Y-16574460D02*
X16453515Y-16555412D01*
X16453515Y-16555412D02*
X16453515Y-16383984D01*
X16634468Y-16574460D02*
X16615420Y-16583984D01*
X16615420Y-16583984D02*
X16577325Y-16583984D01*
X16577325Y-16583984D02*
X16558277Y-16574460D01*
X16558277Y-16574460D02*
X16548753Y-16555412D01*
X16548753Y-16555412D02*
X16548753Y-16479222D01*
X16548753Y-16479222D02*
X16558277Y-16460174D01*
X16558277Y-16460174D02*
X16577325Y-16450650D01*
X16577325Y-16450650D02*
X16615420Y-16450650D01*
X16615420Y-16450650D02*
X16634468Y-16460174D01*
X16634468Y-16460174D02*
X16643991Y-16479222D01*
X16643991Y-16479222D02*
X16643991Y-16498269D01*
X16643991Y-16498269D02*
X16548753Y-16517317D01*
X16720182Y-16574460D02*
X16739230Y-16583984D01*
X16739230Y-16583984D02*
X16777325Y-16583984D01*
X16777325Y-16583984D02*
X16796373Y-16574460D01*
X16796373Y-16574460D02*
X16805896Y-16555412D01*
X16805896Y-16555412D02*
X16805896Y-16545888D01*
X16805896Y-16545888D02*
X16796373Y-16526841D01*
X16796373Y-16526841D02*
X16777325Y-16517317D01*
X16777325Y-16517317D02*
X16748753Y-16517317D01*
X16748753Y-16517317D02*
X16729706Y-16507793D01*
X16729706Y-16507793D02*
X16720182Y-16488746D01*
X16720182Y-16488746D02*
X16720182Y-16479222D01*
X16720182Y-16479222D02*
X16729706Y-16460174D01*
X16729706Y-16460174D02*
X16748753Y-16450650D01*
X16748753Y-16450650D02*
X16777325Y-16450650D01*
X16777325Y-16450650D02*
X16796373Y-16460174D01*
X16872563Y-16660174D02*
X16882087Y-16650650D01*
X16882087Y-16650650D02*
X16901134Y-16622079D01*
X16901134Y-16622079D02*
X16910658Y-16603031D01*
X16910658Y-16603031D02*
X16920182Y-16574460D01*
X16920182Y-16574460D02*
X16929706Y-16526841D01*
X16929706Y-16526841D02*
X16929706Y-16488746D01*
X16929706Y-16488746D02*
X16920182Y-16441127D01*
X16920182Y-16441127D02*
X16910658Y-16412555D01*
X16910658Y-16412555D02*
X16901134Y-16393508D01*
X16901134Y-16393508D02*
X16882087Y-16364936D01*
X16882087Y-16364936D02*
X16872563Y-16355412D01*
X17234468Y-16660174D02*
X17224944Y-16650650D01*
X17224944Y-16650650D02*
X17205896Y-16622079D01*
X17205896Y-16622079D02*
X17196373Y-16603031D01*
X17196373Y-16603031D02*
X17186849Y-16574460D01*
X17186849Y-16574460D02*
X17177325Y-16526841D01*
X17177325Y-16526841D02*
X17177325Y-16488746D01*
X17177325Y-16488746D02*
X17186849Y-16441127D01*
X17186849Y-16441127D02*
X17196373Y-16412555D01*
X17196373Y-16412555D02*
X17205896Y-16393508D01*
X17205896Y-16393508D02*
X17224944Y-16364936D01*
X17224944Y-16364936D02*
X17234468Y-16355412D01*
X17310658Y-16450650D02*
X17310658Y-16583984D01*
X17310658Y-16469698D02*
X17320182Y-16460174D01*
X17320182Y-16460174D02*
X17339230Y-16450650D01*
X17339230Y-16450650D02*
X17367801Y-16450650D01*
X17367801Y-16450650D02*
X17386849Y-16460174D01*
X17386849Y-16460174D02*
X17396373Y-16479222D01*
X17396373Y-16479222D02*
X17396373Y-16583984D01*
X17520182Y-16583984D02*
X17501134Y-16574460D01*
X17501134Y-16574460D02*
X17491611Y-16564936D01*
X17491611Y-16564936D02*
X17482087Y-16545888D01*
X17482087Y-16545888D02*
X17482087Y-16488746D01*
X17482087Y-16488746D02*
X17491611Y-16469698D01*
X17491611Y-16469698D02*
X17501134Y-16460174D01*
X17501134Y-16460174D02*
X17520182Y-16450650D01*
X17520182Y-16450650D02*
X17548754Y-16450650D01*
X17548754Y-16450650D02*
X17567801Y-16460174D01*
X17567801Y-16460174D02*
X17577325Y-16469698D01*
X17577325Y-16469698D02*
X17586849Y-16488746D01*
X17586849Y-16488746D02*
X17586849Y-16545888D01*
X17586849Y-16545888D02*
X17577325Y-16564936D01*
X17577325Y-16564936D02*
X17567801Y-16574460D01*
X17567801Y-16574460D02*
X17548754Y-16583984D01*
X17548754Y-16583984D02*
X17520182Y-16583984D01*
X17643992Y-16450650D02*
X17720182Y-16450650D01*
X17672563Y-16383984D02*
X17672563Y-16555412D01*
X17672563Y-16555412D02*
X17682087Y-16574460D01*
X17682087Y-16574460D02*
X17701134Y-16583984D01*
X17701134Y-16583984D02*
X17720182Y-16583984D01*
X17939230Y-16450650D02*
X17939230Y-16650650D01*
X17939230Y-16460174D02*
X17958277Y-16450650D01*
X17958277Y-16450650D02*
X17996373Y-16450650D01*
X17996373Y-16450650D02*
X18015420Y-16460174D01*
X18015420Y-16460174D02*
X18024944Y-16469698D01*
X18024944Y-16469698D02*
X18034468Y-16488746D01*
X18034468Y-16488746D02*
X18034468Y-16545888D01*
X18034468Y-16545888D02*
X18024944Y-16564936D01*
X18024944Y-16564936D02*
X18015420Y-16574460D01*
X18015420Y-16574460D02*
X17996373Y-16583984D01*
X17996373Y-16583984D02*
X17958277Y-16583984D01*
X17958277Y-16583984D02*
X17939230Y-16574460D01*
X18148754Y-16583984D02*
X18129706Y-16574460D01*
X18129706Y-16574460D02*
X18120182Y-16555412D01*
X18120182Y-16555412D02*
X18120182Y-16383984D01*
X18310658Y-16583984D02*
X18310658Y-16479222D01*
X18310658Y-16479222D02*
X18301135Y-16460174D01*
X18301135Y-16460174D02*
X18282087Y-16450650D01*
X18282087Y-16450650D02*
X18243992Y-16450650D01*
X18243992Y-16450650D02*
X18224944Y-16460174D01*
X18310658Y-16574460D02*
X18291611Y-16583984D01*
X18291611Y-16583984D02*
X18243992Y-16583984D01*
X18243992Y-16583984D02*
X18224944Y-16574460D01*
X18224944Y-16574460D02*
X18215420Y-16555412D01*
X18215420Y-16555412D02*
X18215420Y-16536365D01*
X18215420Y-16536365D02*
X18224944Y-16517317D01*
X18224944Y-16517317D02*
X18243992Y-16507793D01*
X18243992Y-16507793D02*
X18291611Y-16507793D01*
X18291611Y-16507793D02*
X18310658Y-16498269D01*
X18377325Y-16450650D02*
X18453515Y-16450650D01*
X18405896Y-16383984D02*
X18405896Y-16555412D01*
X18405896Y-16555412D02*
X18415420Y-16574460D01*
X18415420Y-16574460D02*
X18434468Y-16583984D01*
X18434468Y-16583984D02*
X18453515Y-16583984D01*
X18596373Y-16574460D02*
X18577325Y-16583984D01*
X18577325Y-16583984D02*
X18539230Y-16583984D01*
X18539230Y-16583984D02*
X18520182Y-16574460D01*
X18520182Y-16574460D02*
X18510658Y-16555412D01*
X18510658Y-16555412D02*
X18510658Y-16479222D01*
X18510658Y-16479222D02*
X18520182Y-16460174D01*
X18520182Y-16460174D02*
X18539230Y-16450650D01*
X18539230Y-16450650D02*
X18577325Y-16450650D01*
X18577325Y-16450650D02*
X18596373Y-16460174D01*
X18596373Y-16460174D02*
X18605896Y-16479222D01*
X18605896Y-16479222D02*
X18605896Y-16498269D01*
X18605896Y-16498269D02*
X18510658Y-16517317D01*
X18777325Y-16583984D02*
X18777325Y-16383984D01*
X18777325Y-16574460D02*
X18758277Y-16583984D01*
X18758277Y-16583984D02*
X18720182Y-16583984D01*
X18720182Y-16583984D02*
X18701135Y-16574460D01*
X18701135Y-16574460D02*
X18691611Y-16564936D01*
X18691611Y-16564936D02*
X18682087Y-16545888D01*
X18682087Y-16545888D02*
X18682087Y-16488746D01*
X18682087Y-16488746D02*
X18691611Y-16469698D01*
X18691611Y-16469698D02*
X18701135Y-16460174D01*
X18701135Y-16460174D02*
X18720182Y-16450650D01*
X18720182Y-16450650D02*
X18758277Y-16450650D01*
X18758277Y-16450650D02*
X18777325Y-16460174D01*
X18853516Y-16660174D02*
X18863039Y-16650650D01*
X18863039Y-16650650D02*
X18882087Y-16622079D01*
X18882087Y-16622079D02*
X18891611Y-16603031D01*
X18891611Y-16603031D02*
X18901135Y-16574460D01*
X18901135Y-16574460D02*
X18910658Y-16526841D01*
X18910658Y-16526841D02*
X18910658Y-16488746D01*
X18910658Y-16488746D02*
X18901135Y-16441127D01*
X18901135Y-16441127D02*
X18891611Y-16412555D01*
X18891611Y-16412555D02*
X18882087Y-16393508D01*
X18882087Y-16393508D02*
X18863039Y-16364936D01*
X18863039Y-16364936D02*
X18853516Y-16355412D01*
M02*
